<?xml version="1.0" encoding="utf-8"?>
<!-- Generator: Adobe Illustrator 17.0.0, SVG Export Plug-In . SVG Version: 6.00 Build 0)  -->
<!DOCTYPE svg PUBLIC "-//W3C//DTD SVG 1.1//EN" "http://www.w3.org/Graphics/SVG/1.1/DTD/svg11.dtd">
<svg version="1.1" id="图层_1" xmlns="http://www.w3.org/2000/svg" xmlns:xlink="http://www.w3.org/1999/xlink" x="0px" y="0px"
	 width="760px" height="760px" viewBox="120 0 760 760" enable-background="new 120 0 760 760" xml:space="preserve">
<g>
	<path fill="#F74A06" d="M414.112,699.462C414.016,699.462,414.016,699.462,414.112,699.462c-2.397,0-4.314-1.918-4.314-4.314
		l0.096-38.638c0-2.397,1.918-4.314,4.314-4.314l0,0c2.397,0,4.314,1.918,4.314,4.314l-0.192,38.542
		C418.331,697.545,416.413,699.462,414.112,699.462z"/>
	<path fill="#F74A06" d="M393.498,701.38c-2.397,0-4.314-1.918-4.314-4.314v-41.323c0-3.835-2.397-7.287-6.04-8.629
		c-12.464-4.41-20.805-16.299-20.805-29.53c0-15.82,11.697-28.859,26.845-30.968v-2.78c0-2.397,2.013-4.314,4.41-4.219
		c2.397,0,4.314,2.013,4.219,4.41l-0.096,6.711c0,2.397-1.918,4.219-4.314,4.219c-12.368,0-22.435,10.163-22.435,22.627
		c0,9.588,6.04,18.217,15.053,21.476c6.999,2.493,11.793,9.204,11.793,16.682v41.323C397.813,699.366,395.8,701.38,393.498,701.38z"
		/>
	<path fill="#F74A06" d="M404.908,646.251c-1.151,0-2.205-0.479-3.068-1.246l-24.161-24.353c-1.63-1.726-1.63-4.41,0-6.04
		l12.656-12.752c0.767-0.863,1.918-1.246,3.068-1.246s2.205,0.479,3.068,1.246l12.656,12.752c1.63,1.726,1.63,4.41,0,6.136
		l-7.191,7.191c-1.055,1.055-2.397,1.438-3.739,1.246l7.478,7.574c6.328-4.123,10.259-11.313,10.259-18.984
		c0-9.3-5.561-17.545-14.094-20.997c-2.205-0.863-3.26-3.452-2.397-5.657c0.863-2.205,3.452-3.26,5.657-2.397
		c11.793,4.794,19.463,16.203,19.463,29.051c0,11.985-6.999,23.106-17.833,28.284C406.154,646.155,405.483,646.251,404.908,646.251z
		 M386.787,617.68l7.766,7.862c-0.192-1.342,0.192-2.685,1.246-3.739l4.123-4.123l-6.52-6.615L386.787,617.68z"/>
	<path fill="#F74A06" d="M356.203,700.613c-2.397,0-4.314-1.918-4.314-4.314s1.918-4.314,4.314-4.314
		c7.67,0,14.382-7.382,14.382-15.82v-17.737c0-2.397,1.918-4.314,4.314-4.314s4.314,1.917,4.314,4.314v17.737
		C379.213,689.395,368.762,700.613,356.203,700.613z"/>
	<path fill="#F74A06" d="M329.549,700.517c-1.918,0-3.643-1.246-4.123-3.164c-0.575-2.301,0.767-4.698,3.068-5.273
		c21.189-5.657,22.627-24.257,19.655-101.533c-0.192-4.986,1.63-9.684,5.081-13.327c3.547-3.643,8.437-5.753,13.519-5.753h53.499
		c2.397,0,4.314,1.918,4.314,4.314s-1.918,4.314-4.314,4.314h-53.499c-2.685,0-5.369,1.151-7.287,3.068
		c-1.822,1.918-2.78,4.41-2.685,6.999c1.534,40.46,1.822,67.114-1.63,83.221c-3.356,15.628-10.163,23.106-24.353,26.941
		C330.316,700.421,329.932,700.517,329.549,700.517z"/>
	<path fill="#F74A06" d="M302.512,698.887c-1.822,0-3.547-1.151-4.123-2.972c-0.767-2.301,0.479-4.698,2.78-5.465
		c16.011-5.177,30.297-13.231,27.612-55.8c-0.192-2.397,1.63-4.41,4.027-4.602c2.397-0.192,4.41,1.63,4.602,4.027
		c2.78,43.816-11.409,57.526-33.557,64.621C303.47,698.791,302.991,698.887,302.512,698.887z"/>
	<g>
		<polygon id="XMLID_6_" fill="#F74A06" points="333.576,622.761 328.015,617.296 333.576,611.639 339.041,617.296 		"/>
		<path fill="#F74A06" d="M333.576,626.788l-9.684-9.492l9.684-9.684l9.492,9.684L333.576,626.788z M332.042,617.2l1.438,1.438
			l1.438-1.438l-1.438-1.438L332.042,617.2z"/>
	</g>
	<g>
		<polygon id="XMLID_5_" fill="#F74A06" points="333.576,600.326 328.015,594.957 333.576,589.3 339.041,594.957 		"/>
		<path fill="#F74A06" d="M333.576,604.449l-9.684-9.492l9.684-9.684l9.492,9.684L333.576,604.449z M332.042,594.861l1.438,1.438
			l1.438-1.438l-1.438-1.438L332.042,594.861z"/>
	</g>
	<path fill="#F74A06" d="M562.72,699.462C562.625,699.462,562.625,699.462,562.72,699.462c-2.397,0-4.314-1.918-4.314-4.314
		l0.288-38.542c0-2.397,1.918-4.314,4.314-4.314l0,0c2.397,0,4.314,1.917,4.314,4.314l-0.288,38.542
		C566.939,697.545,565.021,699.462,562.72,699.462z"/>
	<path fill="#F74A06" d="M542.203,701.38c-2.397,0-4.314-1.918-4.314-4.314v-41.323c0-3.835-2.397-7.287-6.04-8.629
		c-12.464-4.41-20.805-16.299-20.805-29.53c0-15.82,11.697-28.859,26.845-30.968v-2.78c0-2.397,2.013-4.314,4.41-4.219
		c2.397,0,4.314,2.013,4.219,4.41l-0.096,6.711c0,2.397-1.917,4.219-4.314,4.219c-12.368,0-22.435,10.163-22.435,22.627
		c0,9.588,6.04,18.217,15.053,21.476c6.999,2.493,11.793,9.204,11.793,16.682v41.323C546.517,699.366,544.504,701.38,542.203,701.38
		z"/>
	<path fill="#F74A06" d="M553.612,646.251c-1.151,0-2.205-0.479-3.068-1.246l-24.161-24.353c-1.63-1.726-1.63-4.41,0-6.04
		l12.656-12.752c0.767-0.863,1.918-1.246,3.068-1.246c1.151,0,2.205,0.479,3.068,1.246l12.656,12.752c1.63,1.726,1.63,4.41,0,6.136
		l-7.191,7.191c-1.055,1.055-2.397,1.438-3.739,1.246l7.478,7.574c6.328-4.123,10.259-11.313,10.259-18.984
		c0-9.3-5.561-17.545-14.094-20.997c-2.205-0.863-3.26-3.452-2.397-5.657c0.863-2.205,3.452-3.26,5.657-2.397
		c11.793,4.794,19.463,16.203,19.463,29.051c0,11.985-6.999,23.106-17.833,28.284C554.859,646.155,554.188,646.251,553.612,646.251z
		 M535.492,617.68l7.766,7.862c-0.192-1.342,0.192-2.685,1.246-3.739l4.123-4.123l-6.52-6.615L535.492,617.68z"/>
	<path fill="#F74A06" d="M501.935,700.613c-2.397,0-4.314-1.918-4.314-4.314s1.918-4.314,4.314-4.314
		c7.67,0,14.382-7.382,14.382-15.82v-17.737c0-2.397,1.917-4.314,4.314-4.314s4.314,1.917,4.314,4.314v17.737
		C524.945,689.395,514.495,700.613,501.935,700.613z"/>
	<path fill="#F74A06" d="M478.157,700.517c-1.918,0-3.643-1.246-4.123-3.164c-0.575-2.301,0.767-4.698,3.068-5.273
		c21.189-5.657,22.627-24.257,19.655-101.533c-0.192-4.986,1.63-9.684,5.081-13.327c3.547-3.643,8.437-5.753,13.519-5.753h53.499
		c2.397,0,4.314,1.918,4.314,4.314s-1.918,4.314-4.314,4.314h-53.499c-2.685,0-5.369,1.151-7.287,3.068
		c-1.822,1.918-2.78,4.41-2.685,6.999c1.534,40.46,1.822,67.114-1.63,83.221c-3.356,15.628-10.163,23.106-24.353,26.941
		C478.924,700.421,478.541,700.517,478.157,700.517z"/>
	<path fill="#F74A06" d="M451.216,698.887c-1.822,0-3.547-1.151-4.123-2.972c-0.767-2.301,0.479-4.698,2.78-5.465
		c16.011-5.177,30.297-13.231,27.612-55.8c-0.192-2.397,1.63-4.41,4.027-4.602c2.397-0.192,4.41,1.63,4.602,4.027
		c2.78,43.816-11.409,57.526-33.557,64.621C452.175,698.791,451.696,698.887,451.216,698.887z"/>
	<g>
		<polygon id="XMLID_4_" fill="#F74A06" points="482.184,622.761 476.719,617.296 482.184,611.639 487.745,617.296 		"/>
		<path fill="#F74A06" d="M482.088,626.788l-9.492-9.492l9.492-9.684l9.684,9.684L482.088,626.788z M480.746,617.2l1.438,1.438
			l1.438-1.438l-1.438-1.438L480.746,617.2z"/>
	</g>
	<g>
		<polygon id="XMLID_3_" fill="#F74A06" points="482.184,600.326 476.719,594.957 482.184,589.3 487.745,594.957 		"/>
		<path fill="#F74A06" d="M482.088,604.449l-9.492-9.492l9.492-9.684l9.684,9.684L482.088,604.449z M480.746,594.861l1.438,1.438
			l1.438-1.438l-1.438-1.438L480.746,594.861z"/>
	</g>
	<g id="XMLID_703_">
		<path fill="#F74A06" d="M697.523,610.681c-2.397,0-4.314-1.918-4.314-4.314v-17.258c0-3.643-2.972-6.615-6.52-6.615h-18.888
			c-2.397,0-4.314-1.918-4.314-4.314s1.917-4.314,4.314-4.314h18.888c8.341,0,15.148,6.807,15.148,15.244v17.258
			C701.837,608.763,699.92,610.681,697.523,610.681z"/>
		<path fill="#F74A06" d="M619.863,625.35c-2.397,0-4.314-1.917-4.314-4.314v-31.831c0-8.437,6.807-15.244,15.148-15.244h20.901
			v-3.835c0-2.397,1.918-4.314,4.314-4.314s4.314,1.917,4.314,4.314v8.15c0,2.397-1.918,4.314-4.314,4.314h-25.216
			c-3.547,0-6.52,2.972-6.52,6.615v31.831C624.177,623.432,622.26,625.35,619.863,625.35z"/>
		<path fill="#F74A06" d="M624.465,662.55c-2.205,0-4.027-1.63-4.314-3.835c-0.288-2.397,1.438-4.506,3.835-4.794
			c33.557-3.739,46.884-29.338,51.102-40.652h-25.503c-2.397,0-4.314-1.917-4.314-4.314s1.918-4.314,4.314-4.314h31.447
			c1.342,0,2.589,0.575,3.356,1.63c0.863,1.055,1.151,2.397,0.767,3.643c-0.096,0.479-2.972,11.985-11.697,24.257
			c-8.149,11.313-23.202,25.503-48.609,28.379C624.848,662.55,624.657,662.55,624.465,662.55z"/>
		<path fill="#F74A06" d="M683.141,706.845h-45.925c-7.383,0-13.327-5.944-13.327-13.327v-20.901
			c0-7.383,5.944-13.327,13.327-13.327h45.925c7.383,0,13.327,5.944,13.327,13.327v20.901
			C696.564,700.804,690.524,706.845,683.141,706.845z M637.312,667.823c-2.589,0-4.698,2.109-4.698,4.698v20.901
			c0,2.589,2.109,4.698,4.698,4.698h45.829c2.589,0,4.698-2.109,4.698-4.698v-20.901c0-2.589-2.109-4.698-4.698-4.698H637.312z"/>
		<path fill="#F74A06" d="M633.765,613.94c-1.726,0-3.452-1.055-4.027-2.876c-0.863-2.205,0.383-4.698,2.589-5.561
			c8.533-3.068,9.012-13.806,9.012-13.998c0.096-2.397,2.109-4.219,4.506-4.123c2.397,0.096,4.219,2.109,4.123,4.506
			c0,0.671-0.863,16.682-14.765,21.668C634.724,613.844,634.244,613.94,633.765,613.94z"/>
		<path fill="#F74A06" d="M696.852,653.346c-0.863,0-1.822-0.288-2.589-0.863l-47.267-34.707c-1.918-1.438-2.301-4.123-0.959-6.04
			c1.438-1.918,4.123-2.301,6.04-0.959l47.267,34.707c1.918,1.438,2.301,4.123,0.959,6.04
			C699.536,652.674,698.194,653.346,696.852,653.346z"/>
	</g>
</g>
<g>
	<path id="XMLID_690_" fill="#F74A06" d="M633.519,513.113H366.481c-48.957,0-89.013-40.056-89.013-89.013V157.062
		c0-48.957,40.056-89.013,89.013-89.013h267.038c48.957,0,89.013,40.056,89.013,89.013V424.1
		C722.531,473.057,682.476,513.113,633.519,513.113z"/>
	<path fill="#FFFFFF" d="M579.277,448.578c-5.285,0-9.736-4.451-9.736-9.736V337.869c0-9.736-6.398-18.637-15.299-21.697
		c-30.32-10.848-50.904-39.499-50.904-71.488c0-38.665,28.929-70.654,66.203-75.382v-7.51c0-5.285,4.451-9.736,10.014-9.458
		c5.285,0,9.736,4.451,9.458,10.014l-0.278,16.412c0,5.285-4.451,9.458-9.736,9.458c-30.876,0-56.189,25.313-56.189,56.467
		c0,23.644,15.299,45.063,37.83,53.129c16.968,5.841,28.373,21.975,28.373,40.056v101.252
		C589.013,444.406,584.562,448.578,579.277,448.578z"/>
	<path fill="#FFFFFF" d="M607.65,314.225c-2.503,0-5.007-1.113-6.954-2.782l-59.805-59.805c-3.894-3.894-3.894-10.014,0-13.63
		l31.433-31.433c3.616-3.616,10.014-3.616,13.908,0l31.154,31.154c3.894,3.894,3.894,10.014,0,13.908l-17.803,17.803
		c-3.338,3.338-8.345,3.616-12.239,1.113l21.975,21.975c16.133-10.292,26.426-28.373,26.426-47.844
		c0-23.088-13.908-43.672-35.327-52.017c-5.007-1.947-7.51-7.789-5.563-12.517c1.947-5.007,7.789-7.51,12.517-5.563
		c28.929,11.405,47.566,38.943,47.566,70.376c0,29.207-16.968,56.189-43.394,68.707C610.431,313.669,609.04,314.225,607.65,314.225z
		 M561.474,244.684l22.809,22.809c-2.503-3.894-2.225-8.901,1.113-12.239l10.848-10.848l-17.524-17.524L561.474,244.684z"/>
	<path fill="#FFFFFF" d="M483.032,449.135c-5.285,0-9.736-4.451-9.736-9.736s4.451-9.736,9.736-9.736
		c19.471,0,36.439-18.359,36.439-39.221v-44.506c0-5.285,4.451-9.736,9.736-9.736c5.285,0,9.736,4.451,9.736,9.736v44.506
		C538.943,422.431,513.352,449.135,483.032,449.135z"/>
	<path fill="#FFFFFF" d="M632.406,446.909L632.406,446.909c-5.563,0-9.736-4.451-9.736-9.736l0.556-94.576
		c0-5.285,4.451-9.736,9.736-9.736l0,0c5.285,0,9.736,4.451,9.736,9.736l-0.556,94.576
		C642.142,442.459,637.691,446.909,632.406,446.909z"/>
	<path fill="#FFFFFF" d="M421.28,446.909c-4.451,0-8.345-2.782-9.458-7.232c-1.391-5.285,1.669-10.57,6.954-11.961
		c47.01-12.517,57.302-36.996,49.235-249.791c-0.556-11.961,3.894-23.366,12.239-31.989c8.623-8.901,20.584-13.908,32.823-13.908
		h132.128c5.285,0,9.736,4.451,9.736,9.736c0,5.285-4.451,9.736-9.736,9.736H513.074c-6.954,0-13.908,2.782-18.915,8.067
		c-4.729,4.729-6.954,11.127-6.676,17.802c7.789,202.782,2.782,251.739-63.7,269.263
		C422.949,446.631,422.114,446.909,421.28,446.909z"/>
	<path fill="#FFFFFF" d="M354.52,443.015c-4.172,0-8.067-2.782-9.179-6.676c-1.669-5.007,1.113-10.57,6.398-12.239
		c40.056-12.796,75.383-32.823,68.985-137.691c-0.278-5.285,3.894-10.014,9.179-10.292c5.285-0.278,10.014,3.894,10.292,9.179
		c6.398,106.815-28.373,140.195-82.337,157.163C356.467,442.737,355.355,443.015,354.52,443.015z"/>
	<g>
		
			<rect id="XMLID_2_" x="421.567" y="234.13" transform="matrix(-0.7071 -0.7071 0.7071 -0.7071 563.7021 720.9453)" fill="#FFFFFF" width="19.193" height="19.193"/>
		<path fill="#FFFFFF" d="M431.015,267.215L407.65,243.85l23.366-23.366l23.366,23.366L431.015,267.215z M427.399,243.85
			l3.616,3.616l3.616-3.616l-3.616-3.616L427.399,243.85z"/>
	</g>
	<g>
		
			<rect id="XMLID_1_" x="421.562" y="179.334" transform="matrix(-0.7071 -0.7071 0.7071 -0.7071 602.4395 627.4005)" fill="#FFFFFF" width="19.193" height="19.193"/>
		<path fill="#FFFFFF" d="M431.015,212.417l-23.366-23.366l23.366-23.366l23.366,23.366L431.015,212.417z M427.399,189.051
			l3.616,3.616l3.616-3.616l-3.616-3.616L427.399,189.051z"/>
	</g>
</g>
</svg>
