<svg class="icon" viewBox="0 0 1024 1024" version="1.1" xmlns="http://www.w3.org/2000/svg" p-id="1505" height="128" width="128"><path d="M700.8 629.5h-35c-8.5 0-15.3-6.9-15.3-15.3 0-8.5 6.9-15.3 15.3-15.3h35c52.2 0 94.7-42.5 94.7-94.7s-42.5-94.7-94.7-94.7h-33.1v-15.3c0-81-65.9-146.9-146.9-146.9S374 313.1 374 394.1v15.3h-33.1c-52.2 0-94.7 42.5-94.7 94.7s42.5 94.7 94.7 94.7h35c8.5 0 15.3 6.9 15.3 15.3 0 8.5-6.9 15.3-15.3 15.3h-35c-69.1 0-125.4-56.2-125.4-125.4s56.2-125.4 125.4-125.4h3c7.8-90.8 84.2-162.2 176.9-162.2S690 288 697.8 378.7h3c69.1 0 125.4 56.2 125.4 125.4 0 69.1-56.3 125.4-125.4 125.4zM520.9 757.4c-8.5 0-15.3-6.9-15.3-15.3V423c0-8.5 6.9-15.3 15.3-15.3 8.5 0 15.3 6.9 15.3 15.3v319c0 8.5-6.8 15.4-15.3 15.4zM652.7 554.1c-3.9 0-7.9-1.5-10.9-4.5l-121-121-121 121c-6 6-15.7 6-21.7 0s-6-15.7 0-21.7L500 406.1c11.5-11.5 30.3-11.5 41.8 0l121.8 121.8c6 6 6 15.7 0 21.7-3 3-6.9 4.5-10.9 4.5z" p-id="1506"></path></svg>