<?xml version="1.0" standalone="no"?>
<!DOCTYPE svg PUBLIC "-//W3C//DTD SVG 1.1//EN" "http://www.w3.org/Graphics/SVG/1.1/DTD/svg11.dtd" >
<!--
2013-9-30: Created.
-->
<svg>
<metadata>
Created by iconfont
</metadata>
<defs>

<font id="mshopdesign" horiz-adv-x="1024" >
  <font-face
    font-family="mshopdesign"
    font-weight="500"
    font-stretch="normal"
    units-per-em="1024"
    ascent="896"
    descent="-128"
  />
    <missing-glyph />
    
    <glyph glyph-name="chuchuang1" unicode="&#58967;" d="M896 800a32 32 0 0 0 32-32v-768a32 32 0 0 0-32-32H128a32 32 0 0 0-32 32V768a32 32 0 0 0 32 32h768z m-32-64H160v-704h704V736zM301.344 358.864h437.968c24.704 0 44.72 12.112 44.72 27.088 0 14.96-20.016 27.088-44.72 27.088H301.344c-24.704 0-44.72-12.112-44.72-27.088 0.016-14.976 20.032-27.088 44.72-27.088z m0 160.8h437.968c24.704 0 44.72 12.112 44.72 27.088 0 14.96-20.016 27.088-44.72 27.088H301.344c-24.704 0-44.72-12.112-44.72-27.088 0.016-14.96 20.032-27.088 44.72-27.088z m0-323.296h437.968c24.704 0 44.72 12.112 44.72 27.088 0 14.96-20.016 27.088-44.72 27.088H301.344c-24.704 0-44.72-12.112-44.72-27.088 0.016-14.976 20.032-27.088 44.72-27.088z"  horiz-adv-x="1024" />

    
    <glyph glyph-name="sousuo" unicode="&#58968;" d="M896 800a32 32 0 0 0 32-32v-768a32 32 0 0 0-32-32H128a32 32 0 0 0-32 32V768a32 32 0 0 0 32 32h768z m-32-64H160v-704h704V736z m-390.896-141.776c99.056 0 181.488-80.864 181.488-179.92s-80.864-181.488-179.92-181.488-181.488 80.864-181.488 179.92c0.016 98.736 80.88 179.6 179.92 181.488m0 32.912c-118.8 0-214.704-95.92-214.704-214.72s95.92-214.72 214.704-214.72 214.72 95.92 214.72 214.72-95.92 214.72-214.72 214.72z m285.552-477.072l-122.24 122.24-23.2-23.2 122.24-122.24a16.112 16.112 0 0 1 23.2 0c6.592 6.592 6.592 18.192 0 23.2z"  horiz-adv-x="1024" />

    
    <glyph glyph-name="gouwuche" unicode="&#58969;" d="M896 800a32 32 0 0 0 32-32v-768a32 32 0 0 0-32-32H128a32 32 0 0 0-32 32V768a32 32 0 0 0 32 32h768z m-32-64H160v-704h704V736z m-109.712-158.688H348.576c-6.864 31.344-10.448 52.544-10.448 55.824 0 17.616-10.448 28.064-20.896 34.928-10.448 3.584-17.616 3.584-20.896 3.584h-38.816c-10.448 0-17.616-6.864-17.616-17.616 0-10.448 6.864-17.616 17.616-17.616h42.096s3.584 0 3.584-6.864c3.584-20.896 55.824-353.456 59.408-374.368 0-3.584 3.584-10.448 6.864-20.896 10.448-10.448 20.896-20.896 45.376-20.896h325.408c10.448 0 17.616 6.864 17.616 17.616 0 10.448-6.864 17.616-17.616 17.616H414.848c-3.584 0-10.448 0-14.032 3.584l-3.584 3.584v3.584s-3.584 14.032-6.864 34.928h321.824c28.064 0 45.376 14.032 52.544 38.512l34.928 199.424v2.992c0 21.184-20.896 42.08-45.376 42.08z m-20.896-237.936c-3.584-6.864-6.864-14.032-17.616-14.032H387.088c-6.864 62.992-24.48 150.464-34.928 217.04h402.416c3.584 0 6.864-3.584 10.448-6.864l-31.632-196.144z m-25.984-154.64a36.368 36.368 0 0 1-36.416-36.416 36.368 36.368 0 0 1 36.416-36.416 36.368 36.368 0 0 1 36.416 36.416 36.352 36.352 0 0 1-36.416 36.416z m-290.176 0a36.368 36.368 0 0 1-36.416-36.416 36.368 36.368 0 0 1 36.416-36.416 36.368 36.368 0 0 1 36.416 36.416c-0.288 20-16.4 36.416-36.416 36.416z"  horiz-adv-x="1024" />

    
    <glyph glyph-name="caidan1" unicode="&#58971;" d="M896 800a32 32 0 0 0 32-32v-768a32 32 0 0 0-32-32H128a32 32 0 0 0-32 32V768a32 32 0 0 0 32 32h768z m-32-64H160v-704h704V736zM275.472 565.2h-30.064a30.08 30.08 0 0 0 0 60.128h30.064a30.08 30.08 0 0 0 0-60.128z m0-210.464h-30.064a30.08 30.08 0 0 0 0 60.128h30.064a30.08 30.08 0 0 0 0-60.128z m0-210.464h-30.064a30.064 30.064 0 1 0 0 60.128h30.064a30.064 30.064 0 1 0 0-60.128zM786.592 565.2H365.664a30.08 30.08 0 0 0 0 60.128h420.928a30.064 30.064 0 1 0 0-60.128z m0-210.464H365.664a30.08 30.08 0 0 0 0 60.128h420.928a30.064 30.064 0 1 0 0-60.128z m0-210.464H365.664a30.064 30.064 0 1 0 0 60.128h420.928c16.624 0 30.064-13.44 30.064-30.064a30.016 30.016 0 0 0-30.064-30.064z"  horiz-adv-x="1024" />

    
    <glyph glyph-name="logoqiang2" unicode="&#58972;" d="M896 800a32 32 0 0 0 32-32v-768a32 32 0 0 0-32-32H128a32 32 0 0 0-32 32V768a32 32 0 0 0 32 32h768z m-32-64H160v-704h704V736zM386.048 387.328H210V563.36h176.048v-176.032z m-148.256 27.792h120.448v120.448h-120.448v-120.448z m361.632-27.504H423.392V563.664h176.048v-176.048z m-148.24 27.792h120.448v120.448h-120.448v-120.448z m361.632-27.728H636.768V563.728h176.048V387.68z m-148.256 27.792h120.448v120.448h-120.448v-120.448zM386.048 175.328H210V351.376h176.048v-176.048z m-148.256 27.792h120.448v120.448h-120.448v-120.448z m361.632-27.488H423.392V351.664h176.048v-176.032z m-148.24 27.792h120.448v120.448h-120.448v-120.448z m361.632-27.728H636.768V351.728h176.048v-176.032z m-148.256 27.792h120.448v120.448h-120.448v-120.448z m-278.512 183.84H210V563.36h176.048v-176.032z m-148.256 27.792h120.448v120.448h-120.448v-120.448z m361.632-27.504H423.392V563.664h176.048v-176.048z m-148.24 27.792h120.448v120.448h-120.448v-120.448z m361.632-27.728H636.768V563.728h176.048V387.68z m-148.256 27.792h120.448v120.448h-120.448v-120.448z"  horiz-adv-x="1024" />

    
    <glyph glyph-name="lunbo" unicode="&#58973;" d="M896 800a32 32 0 0 0 32-32v-768a32 32 0 0 0-32-32H128a32 32 0 0 0-32 32V768a32 32 0 0 0 32 32h768z m-32-64H160v-704h704V736zM680.656 142.896H355.36a49.168 49.168 0 0 0-49.12 49.12V576.752a49.168 49.168 0 0 0 49.12 49.12h325.312a49.168 49.168 0 0 0 49.12-49.12v-384.784a49.232 49.232 0 0 0-49.136-49.072zM355.36 596.096c-10.672 0-19.36-8.672-19.36-19.36v-384.784c0-10.672 8.672-19.36 19.36-19.36h325.312c10.672 0 19.36 8.672 19.36 19.36v384.8c0 10.672-8.672 19.36-19.36 19.36l-325.312-0.016zM420.4 385.936c-28.48 0-51.776 23.232-51.776 51.776s23.232 51.776 51.776 51.776c28.544 0 51.776-23.232 51.776-51.776s-23.232-51.776-51.776-51.776z m0 77.216a25.44 25.44 0 1 1 0-50.88 25.44 25.44 0 0 1 0 50.88z m-54.304-183.872l105.504 101.68 24.464-73.792 150.096 165.44s22.528-15.664 23.424-28.096c0.848-12.432 0-165.104 0-165.104l-303.488-0.128z m-55.856-69.008h-31.072c-28.16 0-51.072 20.912-51.072 46.672v254.88c0 25.696 22.912 46.672 51.072 46.672h37.536a14.88 14.88 0 0 0 0-29.76h-37.536c-11.52 0-21.296-7.696-21.296-16.896v-254.88c0-9.12 9.712-16.896 21.296-16.896h31.072a14.88 14.88 0 0 0 0-29.792z m446.608 0h-39.872a14.88 14.88 0 0 0 0 29.76h39.872c11.52 0 21.296 7.696 21.296 16.896v254.88c0 9.12-9.712 16.896-21.296 16.896h-42a14.88 14.88 0 0 0 0 29.76h42c28.16 0 51.072-20.912 51.072-46.672v-254.88c-0.08-25.664-22.928-46.64-51.072-46.64z"  horiz-adv-x="1024" />

    
    <glyph glyph-name="ziyoumianban" unicode="&#58976;" d="M896 800a32 32 0 0 0 32-32v-768a32 32 0 0 0-32-32H128a32 32 0 0 0-32 32V768a32 32 0 0 0 32 32h768z m-32-64H160v-704h704V736zM475.248 117.2H271.536a18.24 18.24 0 0 0-18.336 18.336V624.464c1.024 10.192 8.144 17.312 18.336 17.312h203.728a18.24 18.24 0 0 0 18.336-18.336v-488.928c-0.016-9.168-8.16-17.312-18.352-17.312z m-185.376 35.648h168.064v453.28H289.872v-453.28z m470.592 249.568H556.736a18.24 18.24 0 0 0-18.336 18.336V624.464a18.24 18.24 0 0 0 18.336 18.336h203.728a18.24 18.24 0 0 0 18.336-18.336v-203.728a18.24 18.24 0 0 0-18.336-18.32z m-185.392 35.648h168.064V606.128H575.072v-168.064z m83.536-320.864c-66.208 0-120.192 53.984-120.192 120.192s53.984 119.184 120.192 119.184 120.192-52.96 120.192-119.184-53.984-120.192-120.192-120.192z m0 203.728c-45.84 0-84.544-37.696-84.544-84.544a84.352 84.352 0 0 1 84.544-84.544 84.352 84.352 0 0 1 84.544 84.544c0 46.848-38.704 84.544-84.544 84.544z"  horiz-adv-x="1024" />

    
    <glyph glyph-name="requhuizhi" unicode="&#58977;" d="M896 800a32 32 0 0 0 32-32v-768a32 32 0 0 0-32-32H128a32 32 0 0 0-32 32V768a32 32 0 0 0 32 32h768z m-32-64H160v-704h704V736z m-467.024-114h50.032v-23.76h-50.032v23.76z m90-449.04h50.032v-23.76h-50.032V172.96zM278.4 365.584h23.76v-50.032H278.4v50.032z m218.656 256.416h50.032v-23.76h-50.032v23.76zM386.912 172.96h50.032v-23.76h-50.032V172.96zM278.4 465.648h23.76v-50.032H278.4v50.032zM587.056 172.96h50.032v-23.76h-50.032V172.96z m140.4 278.24h23.76v-50.032h-23.76V451.2z m0-100.064h23.76v-50.032h-23.76v50.032zM597.12 622h50.032v-23.76H597.12v23.76zM325.616 667.04h-62.48a29.088 29.088 0 0 1-29.152-29.088v-62.48c0-16.08 13.008-29.088 29.088-29.088h15.328v-30.64h23.76V546.4h23.456a29.072 29.072 0 0 1 29.088 29.088v62.48a29.072 29.072 0 0 1-29.088 29.072z m440.304 0h-62.48a29.072 29.072 0 0 1-29.088-29.088v-62.48c0-16.08 13.008-29.088 29.088-29.088h24.016v-45.088h23.76v45.024h14.704a29.072 29.072 0 0 1 29.088 29.088v62.48a29.104 29.104 0 0 1-29.088 29.152z m0-440.304h-14.704v24.336h-23.76v-24.336h-24.08a29.072 29.072 0 0 1-29.088-29.088v-62.48c0-16.08 13.008-29.088 29.088-29.088h62.48a29.072 29.072 0 0 1 29.088 29.088v62.48a28.992 28.992 0 0 1-29.024 29.088z m-440.304 0h-23.456v38.768H278.4v-38.768h-15.328a29.072 29.072 0 0 1-29.088-29.088v-62.48c0-16.08 13.008-29.088 29.088-29.088h62.48a29.072 29.072 0 0 1 29.088 29.088v62.48a28.96 28.96 0 0 1-29.024 29.088z"  horiz-adv-x="1024" />

    
    <glyph glyph-name="wenben2" unicode="&#58978;" d="M896 800a32 32 0 0 0 32-32v-768a32 32 0 0 0-32-32H128a32 32 0 0 0-32 32V768a32 32 0 0 0 32 32h768z m-32-64H160v-704h704V736zM704 608a32 32 0 1 0 0-64H544v-352a32 32 0 1 0-64 0V544H320a32 32 0 0 0 0 64h384z"  horiz-adv-x="1024" />

    
    <glyph glyph-name="shangpin" unicode="&#58983;" d="M896 800a32 32 0 0 0 32-32v-768a32 32 0 0 0-32-32H128a32 32 0 0 0-32 32V768a32 32 0 0 0 32 32h768z m-32-64H160v-704h704V736z m-151.44-97.904H599.088a17.056 17.056 0 1 1 0-34.112H705.12a30.24 30.24 0 0 0 30.224-30.224v-390.8a30.24 30.24 0 0 0-30.224-30.224H314.32a30.224 30.224 0 0 0-30.224 30.224V573.776a30.24 30.24 0 0 0 30.224 30.224h91.488a17.056 17.056 0 1 1 0 34.112H306.88a56.88 56.88 0 0 1-56.88-56.88v-405.68a56.88 56.88 0 0 1 56.88-56.88h405.68a56.88 56.88 0 0 1 56.88 56.88V581.232a56.864 56.864 0 0 1-56.88 56.864zM683.36 508a28.72 28.72 0 1 1-46.128-22.832c-12.912-58.24-64.944-101.936-127.024-101.936s-114.128 43.712-127.024 101.968a28.72 28.72 0 1 1-32.272-1.776 9.648 9.648 0 0 1 2.448-1.584c12.528-75.264 78.08-132.848 156.848-132.848 78.768 0 144.336 57.584 156.848 132.848a9.856 9.856 0 0 1 2.56 1.68c8.256 5.024 13.744 14.112 13.744 24.48z"  horiz-adv-x="1024" />

    
    <glyph glyph-name="logoqiang" unicode="&#58964;" d="M896 800a32 32 0 0 0 32-32v-768a32 32 0 0 0-32-32H128a32 32 0 0 0-32 32V768a32 32 0 0 0 32 32h768z m-32-64H160v-704h704V736zM386.048 387.328H210V563.36h176.048v-176.032z m-148.256 27.792h120.448v120.448h-120.448v-120.448z m361.632-27.504H423.392V563.664h176.048v-176.048z m-148.24 27.792h120.448v120.448h-120.448v-120.448z m361.632-27.728H636.768V563.728h176.048V387.68z m-148.256 27.792h120.448v120.448h-120.448v-120.448zM386.048 175.328H210V351.376h176.048v-176.048z m-148.256 27.792h120.448v120.448h-120.448v-120.448z m361.632-27.488H423.392V351.664h176.048v-176.032z m-148.24 27.792h120.448v120.448h-120.448v-120.448z m361.632-27.728H636.768V351.728h176.048v-176.032z m-148.256 27.792h120.448v120.448h-120.448v-120.448z m-278.512 183.84H210V563.36h176.048v-176.032z m-148.256 27.792h120.448v120.448h-120.448v-120.448z m361.632-27.504H423.392V563.664h176.048v-176.048z m-148.24 27.792h120.448v120.448h-120.448v-120.448z m361.632-27.728H636.768V563.728h176.048V387.68z m-148.256 27.792h120.448v120.448h-120.448v-120.448z"  horiz-adv-x="1024" />

    
    <glyph glyph-name="wenben1" unicode="&#59001;" d="M896 800a32 32 0 0 0 32-32v-768a32 32 0 0 0-32-32H128a32 32 0 0 0-32 32V768a32 32 0 0 0 32 32h768z m-32-64h-704v-704h704v704z m-160-128a32 32 0 1 0 0-64H544V192a32 32 0 1 0-64 0V544H320a32 32 0 0 0 0 64h384z"  horiz-adv-x="1024" />

    
    <glyph glyph-name="h5" unicode="&#58935;" d="M128.38952107 819.03993813l69.79766933-783.0895712 313.3325376-86.99030506 314.15009067 87.10928106 69.939568 782.97059414L128.4069856 819.03993813 128.38952107 819.03993813 128.38952107 819.03993813zM743.6394112 562.92304213L376.1191264 562.92304213l8.75404373-98.35309653 350.0471264 0L708.5402816 169.71804480000003l-197.00308907-54.58942933L314.7764224 169.71804480000003l-13.44760747 150.83478827 96.43746774 0 6.83950613-76.67101227 106.94777707-28.81521067 0.24341013 0.06876587 107.00344533 28.88288533 11.10300907 124.53227094L297.0434816 368.55053226999996l-25.90738453 290.4137536 481.09908586 0L743.6394112 562.92304213 743.6394112 562.92304213 743.6394112 562.92304213zM743.6394112 562.92304213"  horiz-adv-x="1024" />

    
    <glyph glyph-name="space_demo_dashboard-fill" unicode="&#58933;" d="M-18.24287605 325.08412443h471.32700048V914.24287605H-18.24287605v-589.15875162z m0-471.32700048h471.32700048v353.49525071H-18.24287605v-353.49525071z m589.15875162 0h471.32700048V442.91587557h-471.32700048v-589.15875162zM570.91587557 914.24287605v-353.49525071h471.32700048V914.24287605z"  horiz-adv-x="1024" />

    
    <glyph glyph-name="cart" unicode="&#58993;" d="M887.466667 179.20000000000005H392.533333c-71.68 0-139.946667 51.2-153.6 116.053333L157.013333 827.733333H34.133333c-10.24 0-17.066667 6.826667-17.066666 17.066667S23.893333 861.866667 34.133333 861.866667h136.533334c6.826667 0 17.066667-6.826667 17.066666-13.653334l85.333334-546.133333c10.24-47.786667 64.853333-88.746667 119.466666-88.746667H887.466667c10.24 0 17.066667-6.826667 17.066666-17.066666s-6.826667-17.066667-17.066666-17.066667zM273.066667 247.46666700000003c-6.826667 0-17.066667 6.826667-17.066667 13.653333 0 10.24 3.413333 17.066667 13.653333 20.48l638.293334 98.986667L969.386667 691.2H204.8c-10.24 0-17.066667 6.826667-17.066667 17.066667S194.56 725.333333 204.8 725.333333h785.066667c6.826667 0 10.24-3.413333 13.653333-6.826666s3.413333-10.24 3.413333-13.653334l-68.266666-341.333333c0-6.826667-6.826667-13.653333-13.653334-13.653333L273.066667 247.46666700000003c3.413333 0 0 0 0 0zM375.466667-93.866667c-64.853333 0-119.466667 54.613333-119.466667 119.466667S310.613333 145.06666700000005 375.466667 145.06666700000005s119.466667-54.613333 119.466666-119.466667S440.32-93.866667 375.466667-93.866667z m0 204.8c-47.786667 0-85.333333-37.546667-85.333334-85.333333S327.68-59.733333000000016 375.466667-59.733333000000016s85.333333 37.546667 85.333333 85.333333S423.253333 110.93333299999995 375.466667 110.93333299999995zM785.066667-93.866667c-64.853333 0-119.466667 54.613333-119.466667 119.466667S720.213333 145.06666700000005 785.066667 145.06666700000005s119.466667-54.613333 119.466666-119.466667S849.92-93.866667 785.066667-93.866667z m0 204.8c-47.786667 0-85.333333-37.546667-85.333334-85.333333S737.28-59.733333000000016 785.066667-59.733333000000016s85.333333 37.546667 85.333333 85.333333S832.853333 110.93333299999995 785.066667 110.93333299999995zM375.466667 349.866667c-6.826667 0-17.066667 6.826667-17.066667 13.653333l-34.133333 238.933333c0 10.24 6.826667 20.48 13.653333 20.48 10.24 0 17.066667-6.826667 20.48-13.653333l34.133333-238.933333c0-10.24-6.826667-20.48-17.066666-20.48zM477.866667 366.93333299999995c-10.24 0-17.066667 6.826667-17.066667 17.066667L443.733333 605.866667c0 6.826667 6.826667 17.066667 17.066667 17.066666 6.826667 0 17.066667-6.826667 17.066667-17.066666l17.066666-221.866667c0-6.826667-6.826667-17.066667-17.066666-17.066667zM580.266667 384c-10.24 0-17.066667 6.826667-17.066667 17.066667v204.8c0 10.24 6.826667 17.066667 17.066667 17.066666s17.066667-6.826667 17.066666-17.066666v-204.8c0-10.24-6.826667-17.066667-17.066666-17.066667zM682.666667 401.066667c-10.24 0-17.066667 10.24-17.066667 17.066666l17.066667 187.733334c0 10.24 10.24 17.066667 17.066666 17.066666 10.24 0 17.066667-10.24 17.066667-17.066666l-17.066667-187.733334c0-10.24-6.826667-17.066667-17.066666-17.066666zM785.066667 418.133333s-3.413333 0 0 0c-13.653333 3.413333-17.066667 10.24-17.066667 20.48l34.133333 170.666667c3.413333 10.24 10.24 13.653333 20.48 13.653333 10.24-3.413333 13.653333-10.24 13.653334-20.48l-34.133334-170.666666c-3.413333-6.826667-10.24-13.653333-17.066666-13.653334z"  horiz-adv-x="1024" />

    
    <glyph glyph-name="fenxiang1" unicode="&#58949;" d="M940.46368442 566.26588816c-2.40186285 5.67803419-4.93661085 11.28031118-7.55084189 16.83787927-0.00372585 0.00745168-0.00745168 0.01490337-0.01117754 0.02235507-22.76429733 48.38872284-53.51658959 92.15628144-91.64088691 130.27809689-42.50825765 42.5070149-92.0134615 75.88223143-147.14081431 99.19918049-57.08709403 24.14530591-117.71364542 36.38810183-180.19685839 36.38810185-62.48445573 0-123.11224866-12.24279594-180.20058424-36.38810185-6.02825372-2.54965138-11.97578407-5.24087994-17.86742677-8.03022073-0.16641653-0.08072458-0.33655891-0.14903008-0.50049116-0.23348049-47.79260374-22.69226598-91.04601057-53.20859466-128.77413792-90.93672203-42.50825765-42.5070149-75.88595727-92.01097842-99.20290635-147.13957277-24.14654745-57.08585248-36.39058493-117.71364542-36.39058492-180.19685839 0-62.48569727 12.24279594-123.11349021 36.38934339-180.20182577 23.31819061-55.12859436 56.69464868-104.63379941 99.20290633-147.14081431 42.50825765-42.50825765 92.0134615-75.88347297 147.14205587-99.20042205 4.54168242-1.92124245 9.10944453-3.75803449 13.69583585-5.5290041 2.78561497-1.83679203 5.99968973-3.0650459 9.45966406-3.53573153 50.22799918-18.13816449 102.93982732-27.32460775 157.04508431-27.32460775 62.48321297 0 123.10976436 12.24155318 180.19685839 36.38934338 55.12859436 23.31694907 104.63255788 56.6921656 147.14081431 99.20042205 42.50825765 42.50825765 75.88471572 92.0134615 99.2016648 147.14081431 24.14654745 57.08833556 36.39058493 117.7161285 36.39058493 180.20182577C976.85426934 448.55100121 964.61023186 509.17879413 940.46368442 566.26588816zM384.95398692 387.16688278c0 71.3927096 58.08311015 129.47581974 129.47581975 129.47581975 71.40885451 0 129.50438373-58.08311015 129.50438373-129.47581975 0-52.76274719-31.72471179-98.25035757-77.09806622-118.40787555-2.41800775-0.5675551-4.68326081-1.51016789-6.73987152-2.76698575-14.20874608-5.37252355-29.59855404-8.32207075-45.66644599-8.32207075C443.03709586 257.66995073 384.95398692 315.76299566 384.95398692 387.16688278zM96.94899466 386.06778823c0 45.0728112 7.1099618 89.05273678 20.78840998 130.6643321l278.38387906-0.13909409c-10.02721917-9.17402419-18.98639209-19.49433492-26.67136068-30.75105072L115.63360195 262.04645817000005C103.34237249 301.68713353 96.94899466 343.38442081000005 96.94899466 386.06778823zM683.65931619 340.77888421L903.44469057 535.4452904c18.02390854-47.04621302 27.44879969-97.48658039 27.44879968-149.37750338 0-40.22934399-5.68796896-79.57941211-16.62923814-117.15975092l-269.97114774 0.38747796C662.58402357 289.42695233999996 676.25998746 313.81815659999995 683.65931619 340.77888421zM808.76235313 680.90455291c30.37847613-30.37723458 55.46639482-64.62924269 74.85765132-101.62215565L688.79835924 406.72828165c-4.42742647 39.71519101-22.16445238 75.46494794-48.64207409 102.68150868L640.15628515 783.64691539C703.0853456 763.74523297 760.75117227 728.91449222 808.76235313 680.90455291zM594.61527264 795.2637867c-0.25956018-1.38225133-0.4098318-2.80300142-0.40983181-4.26100993l0-247.60178006c-1.07425641 0.5514102-2.15720604 1.08667548-3.24512305 1.61448907l-225.29947511 230.98371945c46.72952487 17.74571915 96.78117274 27.03275774 148.26350546 27.03275774C541.32098602 803.03196297 568.31276069 800.39413533 594.61527264 795.2637867zM219.08013056 680.90455291c30.46789393 30.46665238 64.83291645 55.61169905 101.95126287 75.02655215l188.63442663-193.3922031c-2.09014207-0.05588643-4.16662354-0.15896485-6.23813761-0.28812417l-367.54466163 0.22106142C156.19453626 605.9289185800001 184.1487957 645.9732168200001 219.08013056 680.90455291zM219.08013056 91.22481342000003c-36.63648449 36.63648449-65.6041453 78.89263244-86.12306034 124.82112291l206.38138854 181.97155507c-0.21981867-3.5903752-0.34525215-7.20558975-0.34525215-10.84936708 0-0.01987075 0-0.03974151 0-0.05961227 0 0 0-0.00124155 0-0.00248431l-1.72750347-378.96158381C293.90300896 28.44602458999998 253.94440268 56.36054130000002 219.08013056 91.22481342000003zM383.14575887-10.080654070000037l1.27296277 279.56493971c12.08258833-13.33940619 26.18701324-24.81221481 41.82023646-33.94152887l236.72757483-239.12322875c-46.95182783-17.93945812-97.2742122-27.32336621-149.04342755-27.32336621C468.80931111-30.903838189999988 424.79088557-23.783941610000056 383.14575887-10.080654070000037zM808.76235313 91.22481342000003c-30.24310787-30.24310787-64.32248931-55.2428503-101.12539034-74.59809114L514.50556265 211.71041197c22.56062237 0.00993477 44.13764889 4.30075024 63.96481809 12.09997478l319.63283456-0.33034877C877.44396341 174.67775748999998 847.36603053 129.82849080999995 808.76235313 91.22481342000003z"  horiz-adv-x="1024" />

    
    <glyph glyph-name="check" unicode="&#58932;" d="M439.439404 119.052722a32.717146 32.717146 0 0 0-21.343097 7.892761L185.810916 325.771831c-13.779841 11.795651-15.389502 32.527834-3.593851 46.308698 11.795651 13.778818 32.528857 15.390525 46.308699 3.593852L435.957093 198.122569l349.863273 405.566946c11.846816 13.736862 32.588209 15.265682 46.323025 3.415796 13.733792-11.847839 15.263635-32.587186 3.414773-46.322002l-371.235023-430.340165c-6.492878-7.52744-15.661701-11.390421-24.883737-11.390422z"  horiz-adv-x="1024" />

    
    <glyph glyph-name="tubiaolunkuo" unicode="&#58931;" d="M1004.8 704h-192c-12.8 0-19.2 6.4-19.2 19.2s6.4 19.2 19.2 19.2h192c12.8 0 19.2-6.4 19.2-19.2s-6.4-19.2-19.2-19.2zM908.8 608c-12.8 0-19.2 6.4-19.2 19.2v192c0 12.8 6.4 19.2 19.2 19.2s19.2-6.4 19.2-19.2v-192c0-12.8-6.4-19.2-19.2-19.2zM224 384c-44.8 0-83.2 38.4-83.2 83.2s38.4 83.2 83.2 83.2 83.2-38.4 83.2-83.2S268.8 384 224 384z m0 128c-25.6 0-44.8-19.2-44.8-44.8s19.2-44.8 44.8-44.8 44.8 19.2 44.8 44.8-19.2 44.8-44.8 44.8zM780.8-64H147.2C64-64 0 0 0 83.20000000000005v512c0 83.2 64 147.2 147.2 147.2H704c12.8 0 19.2-6.4 19.2-19.2s-6.4-19.2-19.2-19.2H147.2C89.6 704 38.4 652.8 38.4 595.2v-512c0-57.6 51.2-108.8 108.8-108.8h633.6c57.6 0 108.8 51.2 108.8 108.8V492.8c-12.8 12.8-57.6 51.2-147.2 19.2-76.8-25.6-96-89.6-115.2-160-12.8-51.2-32-96-76.8-115.2-32-12.8-83.2-6.4-147.2 25.6-115.2 57.6-294.4-121.6-300.8-121.6-6.4-6.4-19.2-6.4-25.6 0s-6.4 19.2 0 25.6c6.4 6.4 204.8 198.4 339.2 134.4 57.6-32 96-38.4 121.6-32 25.6 12.8 38.4 51.2 51.2 96 19.2 70.4 44.8 153.6 140.8 185.6 134.4 44.8 192-38.4 192-44.8l6.4-12.8v-409.6c0-83.2-64-147.2-147.2-147.2z"  horiz-adv-x="1024" />

    
    <glyph glyph-name="jiantiebanclipboard70" unicode="&#59013;" d="M605.090909 709.818182c0 0 46.545455-3.304727 46.545455 45.335273 0 48.64-46.545455 47.383273-46.545455 47.383273S606.813091 896 512 896 418.909091 802.536727 418.909091 802.536727 372.363636 800.535273 372.363636 755.153455C372.363636 709.818182 418.909091 709.818182 418.909091 709.818182L605.090909 709.818182zM512 849.454545c25.693091 0 46.545455-20.852364 46.545455-46.545455S537.693091 756.363636 512 756.363636C486.306909 756.363636 465.454545 777.216 465.454545 802.909091S486.306909 849.454545 512 849.454545zM241.664 757.713455l82.850909 0L324.514909 802.909091l-82.850909 0C241.664 802.909091 139.636364 802.909091 139.636364 701.719273c0-292.910545 0-728.529455 0-728.529455C139.636364-128 241.664-128 241.664-128l540.672 0c0 0 102.027636 0 102.027636 101.189818L884.363636 701.719273C884.363636 802.909091 782.336 802.909091 782.336 802.909091l-82.804364 0 0-45.195636 82.804364 0c0 0 57.344-5.399273 57.344-55.994182l0-728.529455c0-55.808-57.344-57.204364-57.344-57.204364L241.664-84.014545c0 0-56.738909 6.609455-56.738909 57.204364L184.925091 701.719273C184.878545 752.314182 241.664 757.713455 241.664 757.713455z"  horiz-adv-x="1024" />

    
    <glyph glyph-name="fabu" unicode="&#58947;" d="M934.784072 125.312286c-4.919033-103.121636-90.146113-185.509041-194.157002-185.509041l-3.523243 0L284.933471-60.196755l-3.51915 0c-104.013959 0-189.285041 82.387405-194.19998 185.509041l-0.213871 0 0 9.457396L87.00047 633.627361l0 1.654686 0 9.411347 0.213871 0c4.91494 103.161544 90.186022 185.549973 194.19998 185.549973l359.013677 0 0-0.044002 27.604708 0-83.829244-70.850651L563.088562 759.348714l-41.425482 0-90.403986 0L281.414321 759.348714c-68.183915 0-123.728976-55.67809-123.728976-124.06769l0-23.833825 0-1.824555 0-124.658138L157.685345 162.920836l0-0.252757 0-27.898397c0-68.394716 55.54506-124.068713 123.728976-124.068713l149.844773 0 0 0 159.51911 0 0 0 149.848866 0c68.180845 0 123.724883 55.672974 123.724883 124.068713l0 25.65224 0 0.765433L864.351953 285.085176 864.351953 485.050464l70.685899 69.666686L935.037852 134.769682l0-9.457396L934.784072 125.312286 934.784072 125.312286zM690.674379 436.498678l-51.260477-54.102199c-17.004279-17.388019-60.044538-61.019749-73.65144-75.43711-13.657045-14.500249-24.976858-26.412556-33.9226-35.783994-8.948813-9.372461-14.332427-14.754029-15.986089-16.072047-4.327562-3.985778-9.203616-8.184403-14.759145-12.676717-5.510504-4.453429-11.275811-8.015557-17.253966-10.68434-5.978155-3.140527-14.71412-6.872524-26.248827-11.449773-11.533684-4.452405-23.574928-8.775874-36.211736-13.020548-12.592806-4.238534-24.550139-7.885598-35.830043-11.022031-11.320836-3.051499-19.759019-5.132904-25.314549-6.062066-11.489682-1.316995-19.162432 0.506537-23.023366 5.381567-3.855818 4.879124-4.91494 13.18837-3.220345 24.678052 0.890276 6.27696 2.883677 15.309684 6.108115 27.098171 3.176342 11.827373 6.613628 24.081465 10.216689 36.759205 3.647063 12.681834 7.166213 24.424272 10.556427 35.108612 3.437286 10.68434 6.191003 18.063401 8.353248 22.049179 2.543939 6.192026 5.430686 11.916401 8.651031 17.045211 3.180436 5.132904 7.757684 10.813277 13.740956 17.045211 2.539846 2.673899 8.522094 9.03477 17.934464 19.038612 9.367345 10.05296 48.720631 50.076512 62.794162 64.790632l46.728254 48.805566 51.901067 54.102199L703.608969 700.665173l120.758318-122.501008L690.674379 436.498678 690.674379 436.498678zM907.223367 664.751219c-6.360871-6.659677-12.085246-12.468986-17.130146-17.472953-5.048993-5.004991-9.457396-9.457396-13.18837-13.314237-4.239558-4.452405-8.185426-8.353248-11.916401-11.658528L744.822626 744.759437c6.404873 6.108115 13.953803 13.44215 22.729677 22.050202 8.775874 8.606005 16.110933 15.394618 21.920242 20.398586 7.502881 6.101975 15.181771 10.386558 23.192212 12.885472 7.29515 2.291183 14.46034 3.394307 21.542642 3.349281l1.948375 0c3.89982-0.168846 7.761778-0.546446 11.492752-1.182942-0.083911 0.040932-0.257873 0-0.341784 0.040932 0.083911 0 0.25685 0 0.341784-0.040932 16.155958-3.010567 33.072233-11.70253 47.448662-25.612331 7.971555-7.761778 14.45727-16.408715 19.162432-25.313525 6.957459-13.144368 10.261715-26.885324 9.626241-39.433104 0-1.52575 0.128937-3.096525 0.128937-4.666276 0-7.250124-1.356904-14.456247-4.02978-21.666462C917.316236 678.362214 913.031653 671.404756 907.223367 664.751219L907.223367 664.751219zM907.223367 664.751219"  horiz-adv-x="1024" />

    
    <glyph glyph-name="shipin1" unicode="&#58928;" d="M854.464257 751.347482 170.275593 751.347482c-58.328453 0-105.783255-47.453778-105.783255-105.783255l0-513.766226c0-58.332547 47.454802-105.784278 105.783255-105.784278L854.464257 26.013723c58.329477 0 105.783255 47.451732 105.783255 105.784278L960.247512 645.564227C960.242396 703.894727 912.788617 751.347482 854.464257 751.347482L854.464257 751.347482zM891.401518 102.979652c-0.005117-4.613064-3.749394-8.359388-8.359388-8.359388L141.295562 94.620263c-2.235924 0-4.334725 0.870834-5.91164 2.451842-1.576915 1.572822-2.447748 3.669576-2.447748 5.90243l0.00307 571.286268c0 4.604878 3.749394 8.355295 8.356318 8.355295l741.749638 0c2.230808 0 4.328585-0.870834 5.906523-2.448772 1.577938-1.577938 2.448772-3.676739 2.448772-5.9055L891.400494 102.979652 891.401518 102.979652zM680.246377 410.27441 434.661076 588.885344c-4.591575 3.346211-10.022261 5.109368-15.706727 5.109368-4.189416 0-8.378831-1.006933-12.113899-2.905166-8.997931-4.584412-14.588253-13.700023-14.588253-23.794939l0-357.226984c0-10.093892 5.589298-19.209504 14.588253-23.795962 3.735068-1.89721 7.924483-2.90312 12.113899-2.90312 5.684466 0 11.115152 1.76418 15.706727 5.104251L680.246377 367.087818c6.885827 5.010107 10.992355 13.08297 10.992355 21.594831C691.238732 397.19451 687.131181 405.269419 680.246377 410.27441L680.246377 410.27441zM615.007537 385.678222 451.555861 266.798694c-0.647753-0.467651-1.413186-0.707105-2.183735-0.707105-0.576121 0-1.152243 0.132006-1.683339 0.401136-1.246387 0.63445-2.031263 1.915629-2.031263 3.311419l0 237.754962c0 1.39579 0.784876 2.674922 2.031263 3.309372 1.243317 0.63445 2.739391 0.515746 3.867074-0.303922l163.451676-118.881574c0.960885-0.695848 1.531889-1.811252 1.531889-3.001357C616.539426 387.496637 615.968421 386.37407 615.007537 385.678222L615.007537 385.678222zM615.007537 385.678222"  horiz-adv-x="1024" />

    
    <glyph glyph-name="shipin2" unicode="&#58930;" d="M512 896a512 512 0 1 1 512-512A512 512 0 0 1 512 896z m0-942.08a430.08 430.08 0 1 0 430.08 430.08 430.08 430.08 0 0 0-430.08-430.08zM723.626667 401.2032L430.08 570.7776a19.797333 19.797333 0 0 1-29.764267-17.2032v-339.217067a19.797333 19.797333 0 0 1 29.764267-17.134933l293.546667 169.642667a19.797333 19.797333 0 0 1 0 34.338133z"  horiz-adv-x="1024" />

    
    <glyph glyph-name="guanyuwomen" unicode="&#58916;" d="M516.251837-62.32216200000005c-246.49809 0-446.321138 199.826118-446.321138 446.321138S269.753747 830.322162 516.251837 830.322162c246.496044 0 446.321138-199.828165 446.321138-446.323185S762.747881-62.32216200000005 516.251837-62.32216200000005zM516.251837 634.374374c-30.060643 0-54.429657-24.369014-54.429657-54.42761 0-30.062689 24.369014-54.431703 54.429657-54.431703 30.060643 0 54.429657 24.369014 54.429657 54.431703C570.681494 610.00536 546.31248 634.374374 516.251837 634.374374zM570.681494 416.656771c0 24.048719-19.497053 43.543725-43.543725 43.543725l-21.771863 0c-24.048719 0-43.543725-19.493983-43.543725-43.543725l0-261.261329c0-24.046672 19.493983-43.543725 43.543725-43.543725l21.771863 0c24.046672 0 43.543725 19.497053 43.543725 43.543725L570.681494 416.656771z"  horiz-adv-x="1024" />

    
    <glyph glyph-name="shoucang" unicode="&#58926;" d="M927.6055973 539.42640413l-249.55965895 35.97438862-112.4126868 227.07712114c-6.74592541 13.49068686-22.48370176 22.48253781-38.22147811 22.48253781s-29.22846322-8.99185095-38.22147811-24.72962731l-107.91850895-229.32886756-249.55965895-35.96973169c-15.73777635-2.24708949-29.22846322-13.49068686-33.72380615-29.22846322-4.49767197-15.73777635 0-31.47555271 11.24010439-42.71682105L291.34163741 285.37140223999995 257.61550222 33.564653789999966c-2.24708949-15.73661241 4.49767197-31.47555271 15.73661241-40.47206058 6.74592541-4.49301504 15.73777635-8.99185095 24.73079126-8.99185095 6.74476146 0 13.49068686 2.25174642 20.23544832 4.49883591L531.90478848 107.75819149999995l211.33934478-116.91268779c6.74476146-2.24592555 13.49068686-4.49301504 20.23544832-4.49301504 22.48370176 0 40.46973155 17.9837019 40.46973156 42.71565711l0 8.99185095-33.72264221 249.55965895 179.86262813 179.86262813c11.23894045 11.24359737 15.73777635 26.98137373 11.23894044 42.71915008C954.58697102 525.94037419 943.34337365 537.17931463 927.6055973 539.42640413L927.6055973 539.42640413zM347.54798137 289.86674516999994c2.24708949 13.49068686-2.25058247 29.22846322-13.49068686 38.22147812L160.9394267 485.47180658l242.81489749 33.72380615c13.49068686 2.24708949 26.9767168 11.23894045 33.72264221 24.7296273l89.93364309 209.0922553 98.92316502-204.59341938c6.74476146-13.49068686 17.98835883-22.48370176 33.72613518-24.73544818l236.06897209-38.21682119L727.50635691 323.59404429999995c-11.23894045-8.9930149-15.73777635-24.72962731-11.23894045-38.22147811l26.9767168-233.8218826-191.10273251 112.41385188c-11.24010439 6.74476146-26.97788075 4.49767197-40.46973156-2.2470895l-195.60040448-107.91850894L347.54798137 289.86674516999994 347.54798137 289.86674516999994zM529.65886293 783.93535033L410.12418333 553.40493027 133.02195997 497.51876722 331.33982947 297.26001835 291.36608711 24.81497657 540.52522894 141.24448199000005 759.41269845 36.457927110000014 733.79820771 290.27424825 915.42823595 483.54722702 654.62614357 530.11902919Z"  horiz-adv-x="1024" />

    
    <glyph glyph-name="bianji" unicode="&#58927;" d="M896 352v-287.808C896 28.73599999999999 866.816 0 831.872 0h-639.68A64.448 64.448 0 0 0 128 64.19200000000001v639.68C128 739.264 157.184 768 192.192 768H544a32 32 0 0 1 0 64H192.384A128.32 128.32 0 0 1 64 703.616v-639.232C64-6.5919999999999845 121.472-64 192.384-64h639.232A128.32 128.32 0 0 1 960 64.38400000000001V352a32 32 0 1 1-64 0z m-443.904-74.56L938.56 763.904a32 32 0 0 1 0.192 45.44 32.512 32.512 0 0 1-45.504-0.192l-486.4-486.4a32.128 32.128 0 0 1-0.192-45.504c12.096-12.16 32.832-12.416 45.44 0.192z"  horiz-adv-x="1024" />

    
    <glyph glyph-name="delete1" unicode="&#58919;" d="M512-128C229.229714-128 0 101.22971399999994 0 384 0 666.7702859999999 229.229714 896 512 896 794.770286 896 1024 666.7702859999999 1024 384 1024 101.22971399999994 794.770286-128 512-128ZM768.146286 590.848L716.434286 642.633143 509.586286 435.712 302.665143 642.633143 250.953143 590.848 457.874286 384 250.953143 177.07885699999997 302.665143 125.36685699999998 509.586286 332.288 716.434286 125.36685699999998 768.146286 177.07885699999997 561.298286 384 768.146286 590.848Z"  horiz-adv-x="1024" />

    
    <glyph glyph-name="map" unicode="&#58925;" d="M512.043 443.984A105.12 105.12 0 0 1 617.03 549.0129999999999a105.12 105.12 0 0 1-104.986 104.986A105.12 105.12 0 0 1 407.06 549.014a105.12 105.12 0 0 1 104.985-105.03z m0 180c41.356 0 75.016-33.616 75.016-74.971 0-41.4-33.66-75.015-75.015-75.015a75.105 75.105 0 0 0-75.014 75.015c0 41.355 33.66 74.97 75.014 74.97zM509.39 12.659999999999968l230.128 332.324c86.31 115.064 73.8 304.2-26.73 404.729A285.75 285.75 0 0 1 509.39 833.999a285.75 285.75 0 0 1-203.4-84.24C205.46 649.23 192.95 460.05 278.945 345.481l230.444-332.822zM327.182 728.518A256.05 256.05 0 0 0 509.39 803.984a256.05 256.05 0 0 0 182.204-75.465c90.72-90.72 101.925-261.54 23.581-365.984L509.39 65.39999999999998l-206.1 297.629c-78.029 103.994-66.825 274.814 23.895 365.534zM693.798 188.88a14.985 14.985 0 0 1-3.51-29.79c157.726-18.54 241.74-68.58 241.74-97.605 0-40.68-159.75-97.47-419.985-97.47s-419.982 56.79-419.982 97.47c0 29.024 84.015 79.065 241.74 97.65a14.985 14.985 0 0 1-3.51 29.745C172.34 170.29399999999998 62.044 117.91399999999999 62.044 61.52999999999997c0-63.45 154.575-127.53 450-127.53 295.423 0 449.999 64.124 449.999 127.484 0 56.43-110.296 108.809-268.246 127.395z"  horiz-adv-x="1024" />

    
    <glyph glyph-name="shoucang-tianchong" unicode="&#58917;" d="M512 834c-24.37499971 0-46.87499971-13.12499971-58.12499971-37.50000029l-84.375-181.87499971c-11.25-22.5-31.87500029-39.375-56.25-43.12500029L118.25 543.37499971c-52.49999971-9.37500029-74.99999971-73.125-37.50000029-110.62499942l146.25-150.00000029c16.875-16.875 24.37499971-41.24999971 20.62500029-63.74999971L212.00000029 10.875000290000003c-5.625-43.12500029 26.25000029-76.87500029 63.74999971-76.87500029 11.25 0 20.62500029 1.87499971 31.87500029 7.49999971l172.49999942 95.625c9.37500029 5.625 20.62500029 7.49999971 31.87500029 7.50000058 11.25 0 22.5-1.87499971 31.87500029-7.50000058l172.49999942-95.625c9.37500029-5.625 20.62500029-7.49999971 31.87500029-7.49999971 37.50000029 0 71.25000029 33.75 63.74999971 76.87500029l-33.75 208.125c-3.75000029 22.5 3.75000029 46.87499971 20.62500029 63.74999971l146.25 150.00000029c37.50000029 37.50000029 15.00000029 101.25-37.50000029 110.62499942L712.62500029 571.49999971c-24.37499971 3.75000029-46.87499971 20.62500029-56.25 43.12500029L570.12499971 796.49999971C558.87499971 820.87500029 536.37499971 834 512 834z"  horiz-adv-x="1025" />

    
    <glyph glyph-name="duohangwenben" unicode="&#58915;" d="M164.352 782.336c-23.04 0-46.08-28.672-46.08-56.832v-113.664c0-28.672 23.04-51.2 46.08-51.2s41.472 22.528 41.472 51.2l4.608 56.832H348.16v-523.264H279.552c-23.04 0-41.472-22.528-41.472-51.2s18.432-51.2 41.472-51.2h229.888c23.04 0 41.472 22.528 41.472 51.2s-18.432 51.2-41.472 51.2H440.32V668.672h142.336v-56.832c0-28.672 23.04-51.2 46.08-51.2 23.04 5.632 41.472 22.528 41.472 51.2V725.504c0 28.672-23.04 56.832-46.08 56.832H164.352zM871.936 322.56h-189.44c-18.432 0-33.28 14.848-33.28 33.28s14.848 33.28 33.28 33.28h189.44c18.432 0 33.28-14.848 33.28-33.28s-14.848-33.28-33.28-33.28zM871.936 182.784h-189.44c-18.432 0-33.28 14.848-33.28 33.28s14.848 33.28 33.28 33.28h189.44c18.432 0 33.28-14.848 33.28-33.28s-14.848-33.28-33.28-33.28zM871.936 42.496h-189.44c-18.432 0-33.28 14.848-33.28 33.28s14.848 33.28 33.28 33.28h189.44c18.432 0 33.28-14.848 33.28-33.28 0-17.92-14.848-33.28-33.28-33.28z"  horiz-adv-x="1024" />

    
    <glyph glyph-name="shipin" unicode="&#58966;" d="M814.545455 709.818182h-230.4l121.018181 86.109091c11.636364 6.981818 13.963636 20.945455 4.654546 32.581818-6.981818 11.636364-20.945455 13.963636-32.581818 4.654545l-165.236364-116.363636-165.236364 116.363636c-11.636364 6.981818-25.6 4.654545-32.581818-4.654545-6.981818-11.636364-4.654545-25.6 4.654546-32.581818L439.854545 709.818182H209.454545c-76.8 0-139.636364-62.836364-139.636363-139.636364v-477.090909c0-76.8 62.836364-139.636364 139.636363-139.636364h605.09091c76.8 0 139.636364 62.836364 139.636363 139.636364V570.181818c0 76.8-62.836364 139.636364-139.636363 139.636364z m93.090909-616.727273c0-51.2-41.890909-93.090909-93.090909-93.090909H209.454545c-51.2 0-93.090909 41.890909-93.090909 93.090909V570.181818c0 51.2 41.890909 93.090909 93.090909 93.090909h605.09091c51.2 0 93.090909-41.890909 93.090909-93.090909v-477.090909zM686.545455 372.36363600000004l-251.345455 144.290909c-6.981818 4.654545-16.290909 6.981818-23.272727 6.981819-23.272727 0-46.545455-18.618182-46.545455-46.545455v-290.909091c0-27.927273 23.272727-46.545455 46.545455-46.545454 6.981818 0 16.290909 2.327273 23.272727 6.981818L686.545455 290.909091c30.254545 18.618182 30.254545 62.836364 0 81.454545z m-274.618182-186.181818V477.090909l251.345454-144.290909-251.345454-146.618182z"  horiz-adv-x="1024" />

    
    <glyph glyph-name="tiaozhuan" unicode="&#58912;" d="M790.536784-27.653571000000056L77.292364-27.653571000000056 77.292364 667.171338 625.784486 667.171338 625.784486 631.3556209999999 113.108081 631.3556209999999 113.108081 8.162146000000007 753.697761 8.162146000000007 753.697761 485.022835 790.536784 485.022835ZM904.925691 780.198156l25.885344-25.885344-400.116482-400.116482-25.885344 25.885344 400.116482 400.116482ZM932.909375 555.83767L896.369158 557.983543 908.096247 757.4689 708.61089 745.741811 706.465017 782.282029 947.06784 796.4404930000001Z"  horiz-adv-x="1024" />

    
    <glyph glyph-name="ditu" unicode="&#58913;" d="M946.545954 725.346295c-7.391341 6.209422-17.210987 8.839319-26.731828 7.125281l-237.180887-42.196031-60.578704 20.139689c-17.274432 5.750981-35.678594-3.578502-41.386596-20.72502-5.687536-17.146519 3.578502-35.667338 20.72502-41.365106l68.460208-22.759353c1.589195-0.525979 3.215228-0.915859 4.856611-1.196245l0-265.596054-135.363967 41.666982c-11.523451 3.535523-23.707958-2.939959-27.26497-14.420431-3.535523-11.513218 2.918469-23.728424 14.44192-27.26497l148.187017-45.617967 0-273.828552L391.156748 118.94936800000005l0 123.269511c0 12.045337-9.755178 21.811772-21.811772 21.811772s-21.811772-9.766434-21.811772-21.811772l0-123.82005-218.116693-34.229592 0.001023 616.0948c0 18.073634-14.654768 32.717146-32.717146 32.717146s-32.717146-14.644535-32.717146-32.717146L63.981197 45.91293499999995c0-9.56382 4.175089-18.648732 11.460006-24.868387 7.263427-6.209422 16.912182-8.978489 26.327622-7.454786l271.048229 42.536792 303.979246-85.37239c2.87549-0.809435 5.857405-1.213641 8.839319-1.213641 1.959631 0 3.919263 0.181125 5.857405 0.532119l239.906975 43.655266c15.549138 2.822278 26.859741 16.380062 26.859741 32.185027l0.001023 654.351102C958.261787 709.9455370000001 953.980273 719.12664 946.545954 725.346295zM892.826472 385.534959l-174.49315-30.369681 0 275.004331 174.49315 31.039947L892.826472 385.534959zM718.332299 41.458483l0 269.420149 174.49315 30.367635 0-268.035616L718.332299 41.458483zM209.677487 530.072867c10.692526-21.193695 108.99439-159.743214 138.879024-201.704908 6.134721-8.616238 16.060791-13.738909 26.646893-13.738909 0.021489 0 0.063445 0 0.084934 0 10.629081 0.031722 20.555152 5.207605 26.668383 13.888312 29.77821 42.302455 127.717823 181.852768 137.771807 201.214744 13.20679 25.411763 20.470217 55.008848 20.470217 83.327824 0 102.231359-83.178421 185.399547-185.399547 185.399547-102.221126 0-185.399547-83.168188-185.399547-185.399547 0-28.297486 6.816243-56.201 20.277836-82.954317C209.677487 530.0943560000001 209.677487 530.084123 209.677487 530.072867zM374.799198 733.0241619999999c66.138326 0 119.964232-53.815673 119.964232-119.964232 0-17.754363-4.771677-37.137829-13.057387-53.102429-5.709025-10.564613-55.211463-82.411965-106.652042-155.865907-47.223534 66.808592-100.730169 143.639444-106.949824 155.471934-8.797363 17.530258-13.270235 35.529191-13.270235 53.496401C254.834966 679.208489 308.660872 733.0241619999999 374.799198 733.0241619999999zM374.805338 613.0138810000001m-54.528917 0a53.287 53.287 0 1 1 109.057835 0 53.287 53.287 0 1 1-109.057835 0Z"  horiz-adv-x="1024" />

    
    <glyph glyph-name="fenxiang" unicode="&#58918;" d="M908.280954 223.811648c-32.602535 32.5483-75.31329 48.848545-118.077256 48.848545-42.709731 0-85.419462-16.301268-118.02302-48.848545-5.486968-5.487991-9.943466-11.68411-14.508435-17.769712L447.493336 328.95636c5.216815 17.603937 8.856715 35.80753 8.856715 55.04364 0 17.551748-3.096525 34.233686-7.443529 50.42546l212.136491 116.66407c1.249457 0.706081 2.065032 1.848091 3.15076 2.716878 30.646997-35.537378 75.42176-58.521858 126.010949-58.521858 92.211145 0 166.926824 74.714655 166.926824 166.926824S882.414843 829.138196 790.203698 829.138196s-166.926824-74.714655-166.926824-166.926824c0-21.952988 4.50971-42.763966 12.225439-62.000076-0.434905-0.216941-0.923022-0.162706-1.303692-0.38067L426.95251 485.8292c-34.342156 55.588039-95.254457 92.918249-165.350932 92.918249-107.535155 0-194.748473-87.213317-194.748473-194.748473S154.067446 189.25050399999998 261.602601 189.25050399999998c68.357877 0 128.291898 35.375695 163.014724 88.62548l207.354582-121.228015c-18.420535-57.653071-5.487991-123.184577 40.209794-168.93762 32.603559-32.5483 75.31329-48.848545 118.02302-48.848545 42.763966 0 85.473697 16.301268 118.077256 48.848545C973.432813 52.91746599999999 973.432813 158.65978900000005 908.280954 223.811648zM790.203698 773.495922c61.347207 0 111.284549-49.936319 111.284549-111.284549s-49.937342-111.284549-111.284549-111.284549-111.284549 49.936319-111.284549 111.284549S728.856491 773.495922 790.203698 773.495922zM261.602601 244.89277900000002c-76.671217 0-139.106198 62.436004-139.106198 139.106198 0 76.67224 62.434981 139.106198 139.106198 139.106198s139.106198-62.433958 139.106198-139.106198C400.707776 307.32878300000004 338.272795 244.89277900000002 261.602601 244.89277900000002zM868.938923 27.053402000000006c-21.083178-20.97573-49.012274-32.550347-78.735226-32.550347s-57.653071 11.574616-78.682014 32.550347c-43.416835 43.416835-43.416835 114.000404 0 157.417239 21.028942 21.029966 48.959062 32.5483 78.682014 32.5483s57.653071-11.518335 78.735226-32.5483C912.301524 141.053806 912.301524 70.46921399999997 868.938923 27.053402000000006z"  horiz-adv-x="1024" />

    
    <glyph glyph-name="zuhe" unicode="&#58923;" d="M908.90057955 847.05067615H115.09942045c-36.53267911 0-66.15009659-29.61741748-66.1500966-66.1500966v-793.8011591c0-36.53267911 29.61741748-66.15009659 66.1500966-66.1500966h793.8011591c36.53267911 0 66.15009659 29.61741748 66.1500966 66.1500966V780.90057955c0 36.53267911-29.61741748 66.15009659-66.1500966 66.1500966z m0-826.8798483c0-18.26512592-14.80142697-33.07019378-33.07019377-33.07019377H149.2048403c-18.26512592 0-33.07019378 14.80142697-33.07019378 33.07019377V746.79637333c0 18.26512592 14.80142697 33.07019378 33.07019378 33.07019378h726.62554548c18.2639123 0 33.07019378-14.80142697 33.07019377-33.07019378v-726.62554548zM776.60524089 493.66478697H622.08106192V647.5736557c0 36.51932918-29.61499022 66.14160118-66.14402844 66.14160119H249.18607645c-36.52782459 0-66.14402845-29.61377659-66.14402845-66.14160119v-308.12842667c0-36.51932918 29.61499022-66.14160118 66.14402845-66.14160118h154.52417896v-153.90886874c0-36.51932918 29.61499022-66.14160118 66.14402844-66.14160119h306.75095704c36.52782459 0 66.14402845 29.61377659 66.14402844 66.14160119v308.12842667c0 36.51932918-29.61499022 66.14160118-66.14402844 66.14160119zM283.06090667 340.14306608000004c-18.26512592 0-33.07262103 14.81477689-33.07262104 33.0835437V613.1539057800001c0 18.27119408 14.80749511 33.0835437 33.07262104 33.0835437h238.9976557c18.26633955 0 33.07262103-14.81477689 33.07262104-33.0835437v-119.49154608h-85.27811319c-36.52782459 0-66.14402845-29.61377659-66.14402844-66.14160118v-87.37890607H283.06090667z m272.07027674 86.04269984v-52.96036977c0-18.27119408-14.80870875-33.0835437-33.07262104-33.0835437h-51.4008557V393.10222222c0 18.27119408 14.80870875 33.0835437 33.07262103 33.0835437h51.40085571z m220.66942104-273.00962607c0-18.27119408-14.80749511-33.0835437-33.07262104-33.0835437H503.7303277c-18.26512592 0-33.07262103 14.81477689-33.07262103 33.0835437v120.12627437h85.27811318c36.52782459 0 66.14402845 29.61377659 66.14402845 66.14160119v86.74296414h120.64813511c18.26512592 0 33.07262103-14.81477689 33.07262104-33.0835437v-239.92608237z"  horiz-adv-x="1024" />

    
    <glyph glyph-name="buju" unicode="&#58965;" d="M67.97337283 828.02662717v-888.05325434h888.05325434V828.02662717H67.97337283z m828.50449384-59.5487605v-189.00258765H127.52213333V768.47786667h768.95573334zM127.52213333 519.92651852h188.74368v-520.40438519H127.52213333V519.92651852z m248.2924405-520.40438519V519.92651852H896.47786667v-520.40438519H375.81457383z"  horiz-adv-x="1024" />

    
    <glyph glyph-name="cankaoxian" unicode="&#58911;" d="M56.888889 611.555556h910.222222v-113.777778H56.888889zM56.888889 270.222222h910.222222v-113.777778H56.888889zM739.555556 839.111111v-910.222222h-113.777778V839.111111zM398.222222 839.111111v-910.222222H284.444444V839.111111z"  horiz-adv-x="1024" />

    
    <glyph glyph-name="fangda" unicode="&#59009;" d="M899.008 187.96799999999996zM899.008 187.96799999999996zM512 832C264.32 832 64 631.6800000000001 64 384s200.32-448 448-448 448 200.32 448 448-200.32 448-448 448z m64-512v-256H448V320H192V448h256V704h128v-256h256v-128H576z"  horiz-adv-x="1024" />

    
    <glyph glyph-name="suoxiao" unicode="&#59010;" d="M899.008 187.96799999999996zM899.008 187.96799999999996zM512 832C264.32 832 64 631.6800000000001 64 384s200.32-448 448-448 448 200.32 448 448-200.32 448-448 448zM192 320V448h640v-128H192z"  horiz-adv-x="1024" />

    
    <glyph glyph-name="fangda1" unicode="&#58987;" d="M948.14 11.759999999999991l-156 156.06a407.88 407.88 0 0 1 89.88 255.84 410.04 410.04 0 1 1-409.98-409.98 407.58 407.58 0 0 1 256.56 90.48l155.94-155.94a45.48 45.48 0 0 1 64.5-0.84 45.6 45.6 0 0 1-0.9 64.38zM152.06 423.6a319.98 319.98 0 1 0 639.96 0A319.98 319.98 0 0 0 152 423.6zM620.3 463.08H511.52V571.74c0 22.38-17.7 40.62-39.48 40.62s-39.48-18.24-39.48-40.62v-108.72H323.84a40.14 40.14 0 0 1-40.62-39.54c0-21.84 18.24-39.42 40.62-39.42h108.72v-108.72c0-22.38 17.7-40.68 39.48-40.68s39.48 18.3 39.48 40.68V384.06h108.72a40.14 40.14 0 0 1 40.62 39.48 40.08 40.08 0 0 1-40.56 39.54z"  horiz-adv-x="1024" />

    
    <glyph glyph-name="suoxiao1" unicode="&#58994;" d="M948.14 11.759999999999991l-156 156.06a407.88 407.88 0 0 1 89.88 255.84 410.04 410.04 0 1 1-409.98-409.98 407.58 407.58 0 0 1 256.56 90.48l155.94-155.94a45.48 45.48 0 0 1 64.5-0.84 45.6 45.6 0 0 1-0.9 64.38zM152.06 423.6a319.98 319.98 0 1 0 639.96 0A319.98 319.98 0 0 0 152 423.6zM620.3 463.08H323.84a40.14 40.14 0 0 1-40.62-39.54c0-21.84 18.24-39.48 40.62-39.48h296.4a40.2 40.2 0 0 1 40.62 39.48 40.2 40.2 0 0 1-40.56 39.54z"  horiz-adv-x="1024" />

    
    <glyph glyph-name="biaochi" unicode="&#58982;" d="M877.47530987 840.85628053L591.88719573 840.85628053c-1.27490347 0.2041152-2.57927787 0.3099936-3.90875626 0.3099936-1.327296 0-2.629488-0.1069696-3.902208-0.3099936L145.4036928 840.85628053c-50.5409568 0-91.4884864-40.94643733-91.4884864-91.4884864l0-732.07161706c0-50.5409568 40.9475296-91.501584 91.4884864-91.501584l172.84869653 0c50.5409568 0 91.4906688 40.9606272 91.4906688 91.501584L409.74305813 271.41885333000005c-0.0764064 13.2293024-10.78755733 23.953552-24.06816213 23.953552-13.25659093 0-24.01685973-10.72424853-24.07798507-23.953552l0-0.074224c0-0.02401387 0-0.02401387 0-0.05021013 0 0 0-0.04911893 0-0.074224l0-249.11038613c0-26.63434133-21.57293227-48.18325973-48.1581536-48.18325974L150.22059947-26.073449600000004c-26.5863136 0-48.1581536 21.5478272-48.1581536 48.18325973l0 98.55393814 170.0063616 0c14.0512224 0 25.4325696 11.39444587 25.4325696 25.419472 0 14.0512224-11.38134827 25.41837973-25.4325696 25.41837973L102.0613536 171.50159893 102.0613536 298.60114133l119.16850987 0c14.04903893 0 25.4303872 11.39444587 25.4303872 25.419472 0 14.0512224-11.38134827 25.4205632-25.4303872 25.4205632L102.0613536 349.44117546999996 102.0613536 476.53962667l170.0063616 0c14.0512224 0 25.4325696 11.38134827 25.4325696 25.419472 0 14.04903893-11.38134827 25.4325696-25.4325696 25.4325696L102.0613536 527.3916682700001 102.0613536 744.55088747c0 26.59941227 21.57184 48.15924587 48.1581536 48.15924586L359.4094912 792.71013333c-0.13316587-1.0904352-0.20848107-2.19942613-0.20848107-3.3269728L359.20101013 664.1577695999999c0-14.55878187 11.38243947-26.36364267 25.4205632-26.36364267s25.4325696 11.80376853 25.4325696 26.36364267L410.05414293 789.38315947c0 1.12754667-0.0764064 2.2365376-0.20848106 3.3269728l152.7133056 0 0-103.13070934c0-14.55878187 11.39444587-26.36364267 25.4205632-26.36364266 14.05013013 0 25.419472 11.80376853 25.419472 26.36364266l0 103.13070934 127.30802346 0c-0.13316587-1.0904352-0.20848107-2.19942613-0.20848106-3.3269728L740.498544 664.1577695999999c0-14.55878187 11.39335467-26.36364267 25.41837973-26.36364267 14.0523136 0 25.4216544 11.80376853 25.4216544 26.36364267L791.33857813 789.38315947c0 1.12754667-0.0753152 2.2365376-0.20848106 3.3269728l81.53157973 0c26.5863136 0 48.1581536-21.5598336 48.1581536-48.15924587l0-180.1335456 0-11.60511147L456.36106773 552.8122314699999c-14.03812373 0-25.4303872-11.38243947-25.4303872-25.4325696 0-14.03812373 11.39226347-25.4205632 25.4303872-25.4205632l476.62055254 0c2.213616 0 4.3617408 0.28379733 6.41053546 0.81537066 1.76827307-0.41368853 3.60967893-0.63963413 5.50456854-0.63963413 13.30570987 0 24.08016853 10.79847253 24.08016853 24.08016853l0 38.20343147L968.97689387 749.36670293C968.97689387 799.90984213 928.01844907 840.85628053 877.47530987 840.85628053z"  horiz-adv-x="1024" />

    
    <glyph glyph-name="yulan" unicode="&#59006;" d="M652.08561778 108.37277332999997a84.25016889 83.69607111 0 1 1 168.50033776 0 84.25016889 83.69607111 0 1 1-168.50033777 0ZM736.33578667 279.09860445000004c-102.36586667 0-269.60554667-117.17859555-269.60554667-167.39214223 0-50.21696 167.23854222-167.39214222 269.60554667-167.39214222 102.36814222 0 269.60554667 117.17518222 269.60554666 167.39214222-0.00113778 50.21468445-167.23854222 167.39214222-269.60554666 167.39214223z m0-285.70510223c-65.14232889 0-117.95114667 52.46179555-117.95114667 117.17518223 0 64.71224889 52.80881778 117.17518222 117.95114667 117.17518222 65.14574222 0 117.95228445-52.46179555 117.95228444-117.17518222 0-64.71452445-52.80768-117.17518222-117.95228444-117.17518223zM474.59797332 42.47382221999999H133.68675554c-12.92060445 0-23.39384889 10.50510222-23.39384887 23.46325333V128.8084l193.71008 208.46819556 140.76472888-140.07182223L724.70200888 478.10617778l166.91882667-223.32757332c26.86862222-13.06396445 53.14787555-28.50133333 76.8978489-44.78179556V805.32537779c0 14.53397333-11.74755555 26.3168-26.23829335 26.3168H87.33368889c-14.49187555 0-26.23829333-11.78168889-26.23829335-26.3168v-785.87790224c0-14.53397333 11.74755555-26.3168 26.23829335-26.3168H533.13777777c-22.86364445 16.31459555-43.00231111 33.25952-58.53980445 49.34314668zM110.29404445 758.8346400099999c0 12.95815111 10.47324445 23.46325333 23.39384888 23.46325332h762.24056889c12.92060445 0 23.39384889-10.50510222 23.39384889-23.46325332V287.71044444999995L723.82478221 548.05675556 444.76885333 267.29302222l-141.08444445 140.17649778L110.29404445 199.26984000000004V758.8346400099999zM238.08810667 606.94585778a65.79086222 65.59630222 90 1 1 131.19260444 1e-8 65.79086222 65.59630222 90 1 1-131.19260444 0Z"  horiz-adv-x="1024" />

    
    <glyph glyph-name="baocun" unicode="&#58910;" d="M910.80616146 839.77827299h-104.44541901c-9.49742318 0-9.49742318-9.49742318-9.49742319-9.49742319v-256.37519225s0-18.98656132-18.9865613-18.98656133H246.1384313s-18.98656132 0-18.98656133 18.98656133V763.8196001599999s0 18.98656132 18.98656133 18.9865613h18.98656131c18.98656132 0 18.98656132-18.98656132 18.98656132-18.9865613v-142.43096923s0-9.49742318 9.48913812-9.49742318h436.79171168c9.49742318 0 9.49742318 9.49742318 9.49742318 9.49742318V830.2808497999999s0 9.49742318-9.49742318 9.49742319H217.64201923c-56.97211152 0-66.48886647-19.00589309-66.48886647-19.0058931l-75.94210275-75.95038778s-18.98656132-9.48913814-18.98656132-56.97211152v-702.65466121c0-28.48674617 28.48674617-56.97211152 56.97211152-56.97211152h797.61232294c28.48674617 0 56.97211152 28.48674617 56.97211152 56.97211152V782.80616146c0 28.4839845-28.48950786 56.97211152-56.97349237 56.97211153z m-56.97349235-835.59649231c0-18.98656132-18.98656132-18.98656132-18.9962272-18.9865613H189.15389221s-18.98656132 0-18.98656132 18.9865613V311.59561145c0 14.24613477 7.91221792 23.3458758 7.91221792 23.34587579l38.37632815 38.37632815S227.13806156 384 243.75648087 384h534.1175154c18.32099603 0 28.48674617-9.49742318 28.48674618-9.49742318l37.97588431-37.98416936s9.49742318-7.31983721 9.49742319-28.48674618v-303.8498806z m-66.4695347 94.95628088H236.63686559c-10.44744167 0-18.98656132-8.55016638-18.9865613-18.9865613v-18.98656133c0-10.44744167 8.54188133-18.98656132 18.9865613-18.98656132h550.7359347c10.44744167 0 18.99622721 8.55016638 18.99622722 18.98656132v18.98656133h-0.0096659c0 10.44744167-8.55016638 18.98656132-18.9962272 18.9865613z m0 113.94560388H236.63686559c-10.44744167 0-18.98656132-8.55016638-18.9865613-18.98656132v-18.9865613c0-10.44744167 8.54188133-18.98656132 18.9865613-18.98656133h550.7359347c10.44744167 0 18.99622721 8.55016638 18.99622722 18.98656133v18.9865613h-0.0096659c0 10.44744167-8.55016638 18.98656132-18.9962272 18.98656132z m0 113.94422304H236.63686559c-10.44744167 0-18.98656132-8.55016638-18.9865613-18.98656132v-18.9865613c0-10.44744167 8.54188133-18.98656132 18.9865613-18.98656133h550.7359347c10.44744167 0 18.99622721 8.55016638 18.99622722 18.98656133v18.9865613h-0.0096659c0 10.44744167-8.55016638 18.98656132-18.9962272 18.98656132z"  horiz-adv-x="1024" />

    
    <glyph glyph-name="dadianhua" unicode="&#58981;" d="M950.714811 483.909189c-17.435676-0.747243-32.214486 12.121946-33.017081 28.699676-3.210378 68.109838-34.124108 130.988973-87.012325 177.013621-52.888216 45.969297-121.440865 69.632-192.982486 66.532325-17.435676-0.747243-32.214486 12.09427-33.017081 28.699675-0.774919 16.605405 12.730811 30.664649 30.166486 31.411892 88.396108 3.791568 173.083676-25.40627 238.453622-82.252108 65.34227-56.818162 103.534703-134.503784 107.52-218.693189 0.691892-14.723459-9.852541-27.481946-24.409946-30.664649a34.207135 34.207135 0 0 0-5.701189-0.747243m-126.948325 5.867243c-17.435676-0.747243-32.214486 12.09427-32.989405 28.699676-3.238054 68.082162-64.013838 120.942703-135.500108 117.870703-17.435676-0.774919-32.214486 12.09427-32.989405 28.672-0.802595 16.605405 12.730811 30.664649 30.13881 31.411892 106.274595 4.566486 196.691027-74.032432 201.478919-175.270054 0.691892-14.723459-9.852541-27.45427-24.437621-30.636973a33.432216 33.432216 0 0 0-5.70119-0.747244m-103.534702-24.908108c-17.435676-0.747243-32.214486 12.066595-32.989406 28.672a43.229405 43.229405 0 0 1-15.138594 30.775352 47.712865 47.712865 0 0 1-33.570595 11.596108c-17.435676-0.774919-32.214486 12.066595-32.989405 28.672-0.802595 16.605405 12.675459 30.664649 30.111135 31.411892a112.44627 112.44627 0 0 0 79.069405-27.232865 101.984865 101.984865 0 0 0 35.646271-72.51027c0.691892-14.723459-9.852541-27.481946-24.437622-30.664649a33.98573 33.98573 0 0 0-5.701189-0.747243m-74.724325-236.903784a29.336216 29.336216 0 0 0-4.289729-7.859892c-2.103351-2.767568-21.531676-27.122162-52.500757-33.902703-19.539027-4.28973-39.133405-0.83027-56.956541 10.018595a32.491243 32.491243 0 0 0-5.424432 3.404108 1019.571892 1019.571892 0 0 0-196.026811 201.395892 29.668324 29.668324 0 0 0-2.767567 4.621838c-13.173622 27.371243-14.557405 51.642811-4.068325 72.067459 13.727135 26.81773 42.094703 33.930378 44.751568 34.511568 3.044324 0.747243 12.398703 3.016649 20.48 17.684756 17.297297 31.301189 14.252973 88.202378-7.693838 144.882163-33.183135 85.739243-97.833514 141.062919-134.060973 133.12a26.845405 26.845405 0 0 1-4.096-1.494487 34.013405 34.013405 0 0 0-7.444757-2.103351c-34.926703-5.618162-64.899459-18.930162-88.119351-39.29946-115.684324-101.680432-45.471135-362.329946 153.323243-569.177946 159.660973-166.08173 366.813405-261.092324 503.808-231.03654 29.917405 6.559135 55.48973 19.013189 75.96973 37.030054 22.583351 19.871135 40.849297 49.290378 50.535784 79.373838 0.83027 2.546162 1.909622 5.701189 3.321081 10.682811 9.160649 32.463568-39.576216 96.200649-124.346811 134.227027-48.626162 21.808432-98.248649 30.304865-132.870919 22.721729-11.845189-2.601514-26.983784-8.302703-31.494919-20.867459M254.422486 155.537297C25.184865 394.073946-40.544865 681.015351 104.807784 808.76627c31.384216 27.592649 70.84973 45.664865 116.514594 53.690811a84.410811 84.410811 0 0 0 10.046271 3.155027l2.103351 0.498162c73.672649 16.162595 162.373189-57.233297 206.294486-170.731243 28.672-74.004757 30.304865-146.23827 4.400433-193.231568-13.782486-24.935784-34.649946-41.458162-60.969514-47.878918 0 0-2.767568-1.383784-3.459459-2.739892-0.968649-1.881946-1.190054-7.887568 3.680865-18.791784a959.515676 959.515676 0 0 1 179.698162-184.790487l1.107027-0.691892c5.867243-4.012973 8.966919-3.321081 10.43373-2.988972 5.175351 1.134703 10.738162 5.618162 13.976216 8.800864 12.09427 26.900757 38.247784 45.913946 74.336865 53.82919 48.543135 10.655135 111.80973 0.83027 173.637189-26.873082 113.387243-50.923243 176.238703-139.042595 155.952432-207.844324-1.826595-6.171676-1.992649-6.808216-3.819243-12.813838-15.027892-39.022703-35.314162-74.530595-65.868108-101.376-28.616649-25.157189-63.709405-42.399135-104.392649-51.310702-160.463568-35.203459-387.127351 64.788757-564.057946 248.859675"  horiz-adv-x="1024" />

    
    <glyph glyph-name="caidan" unicode="&#58943;" d="M387.657143 896H131.657143C58.514286 896 0 837.485714 0 764.342857v-694.857143c0-36.571429 14.628571-65.828571 36.571429-95.085714 21.942857-21.942857 58.514286-36.571429 95.085714-36.571429h387.657143c14.628571 0 29.257143 14.628571 29.257143 29.257143s-14.628571 29.257143-29.257143 29.257143H131.657143c-36.571429 0-65.828571 29.257143-65.828572 65.828572V764.342857c0 36.571429 29.257143 65.828571 65.828572 65.828572h782.628571c36.571429 0 65.828571-29.257143 65.828572-65.828572V457.142857c0-14.628571 14.628571-29.257143 29.257143-29.257143s29.257143 14.628571 29.257142 29.257143V764.342857c0 73.142857-58.514286 131.657143-131.657142 131.657143H658.285714M585.142857 896H453.485714M402.285714 632.685714h431.542857c14.628571 0 29.257143 14.628571 29.257143 36.571429s-14.628571 29.257143-29.257143 29.257143H402.285714c-14.628571 0-21.942857-7.314286-29.257143-14.628572-7.314286-14.628571-7.314286-29.257143 0-36.571428 7.314286-7.314286 14.628571-14.628571 29.257143-14.628572zM241.371429 713.142857c29.257143 0 51.2-29.257143 51.2-58.514286s-21.942857-51.2-51.2-51.2c-36.571429 0-58.514286 21.942857-58.514286 51.2 0 29.257143 21.942857 58.514286 58.514286 58.514286z m358.4-270.628571c0 7.314286 0 14.628571-7.314286 21.942857-7.314286 7.314286-14.628571 14.628571-21.942857 14.628571H402.285714c-14.628571 0-21.942857-7.314286-29.257143-21.942857s-7.314286-21.942857 0-29.257143c7.314286-7.314286 14.628571-14.628571 29.257143-14.628571h168.228572c7.314286 0 14.628571 0 21.942857 7.314286 7.314286 7.314286 7.314286 14.628571 7.314286 21.942857z m-358.4 51.2c29.257143 0 51.2-21.942857 51.2-51.2 0-36.571429-21.942857-58.514286-51.2-58.514286-36.571429 0-58.514286 21.942857-58.514286 58.514286 0 29.257143 21.942857 51.2 58.514286 51.2z m160.914285-234.057143c-21.942857 0-36.571429-14.628571-36.571428-36.571429 0-14.628571 14.628571-29.257143 29.257143-29.257143h80.457142c14.628571 0 29.257143 14.628571 29.257143 29.257143s0 36.571429-21.942857 36.571429H402.285714z m-160.914285 14.628571c29.257143 0 51.2-21.942857 51.2-51.2 0-29.257143-21.942857-58.514286-51.2-58.514285-29.257143 0-51.2 21.942857-51.2 51.2-7.314286 36.571429 14.628571 58.514286 51.2 58.514285zM1133.714286 252.342857l7.314285-7.314286-51.2-65.828571c-7.314286-7.314286-7.314286-29.257143 0-36.571429l51.2-58.514285-7.314285-7.314286c-7.314286-29.257143-29.257143-58.514286-51.2-87.771429l-7.314286-7.314285-80.457143 14.628571c-14.628571 0-29.257143-7.314286-29.257143-21.942857l-29.257143-80.457143h-7.314285c-43.885714-7.314286-80.457143-7.314286-124.342857 0h-14.628572l-29.257143 73.142857c-7.314286 14.628571-21.942857 21.942857-29.257143 21.942857l-80.457142-14.628571-7.314286 7.314286c-7.314286 7.314286-21.942857 21.942857-29.257143 36.571428-7.314286 14.628571-14.628571 29.257143-21.942857 51.2l-7.314286 14.628572 51.2 58.514285c7.314286 7.314286 7.314286 29.257143 0 36.571429L585.142857 245.028571l7.314286 7.314286c7.314286 36.571429 29.257143 58.514286 51.2 87.771429l7.314286 7.314285 80.457142-14.628571c14.628571 0 29.257143 7.314286 36.571429 21.942857l29.257143 73.142857h7.314286c36.571429 7.314286 80.457143 7.314286 124.342857 0h14.628571l29.257143-73.142857c7.314286-14.628571 21.942857-21.942857 36.571429-21.942857l80.457142 7.314286 7.314286-7.314286c0-7.314286 7.314286-21.942857 14.628572-36.571429 7.314286-7.314286 14.628571-21.942857 21.942857-43.885714z m-80.457143 14.628572c-7.314286 7.314286-7.314286 14.628571-14.628572 21.942857l-51.2-7.314286c-29.257143-7.314286-65.828571 14.628571-73.142857 43.885714l-14.628571 43.885715c-21.942857 7.314286-43.885714 7.314286-73.142857 0l-14.628572-43.885715c-7.314286-29.257143-43.885714-51.2-73.142857-43.885714l-51.2 14.628571c-14.628571-14.628571-21.942857-36.571429-29.257143-51.2l36.571429-36.571428c21.942857-21.942857 21.942857-58.514286 0-87.771429l-36.571429-36.571428c7.314286-7.314286 7.314286-14.628571 14.628572-29.257143 7.314286-7.314286 7.314286-14.628571 14.628571-21.942857l51.2 7.314285c29.257143 7.314286 65.828571-14.628571 73.142857-43.885714l14.628572-43.885714c21.942857-7.314286 51.2-7.314286 73.142857 0l14.628571 51.2c7.314286 29.257143 43.885714 51.2 73.142857 43.885714l51.2-7.314286c7.314286 14.628571 21.942857 29.257143 21.942858 43.885715l-29.257143 36.571428c-21.942857 21.942857-21.942857 58.514286 0 87.771429l36.571428 36.571428c-7.314286 7.314286-14.628571 14.628571-14.628571 21.942858z m-190.171429-204.8c-51.2 0-95.085714 43.885714-95.085714 95.085714s43.885714 95.085714 95.085714 95.085714c51.2 0 95.085714-43.885714 95.085715-95.085714s-43.885714-95.085714-95.085715-95.085714z m0 43.885714c29.257143 0 51.2 21.942857 51.2 51.2s-21.942857 51.2-51.2 51.2c-29.257143 0-51.2-21.942857-51.2-51.2s21.942857-51.2 51.2-51.2z"  horiz-adv-x="1170" />

    
    <glyph glyph-name="jian" unicode="&#58959;" d="M123.84 434.4h776.32a41.92 41.92 0 0 0 0-83.84H123.84a41.92 41.92 0 1 0 0 83.84z"  horiz-adv-x="1024" />

    
    <glyph glyph-name="jia" unicode="&#58960;" d="M123.84 425.92h776.32a41.92 41.92 0 0 0 0-83.84H123.84a41.92 41.92 0 1 0 0 83.84zM470.08-4.159999999999968V772.16a41.92 41.92 0 0 0 83.84 0v-776.32a41.92 41.92 0 1 0-83.84 0z"  horiz-adv-x="1024" />

    
    <glyph glyph-name="yanjing" unicode="&#58920;" d="M945.724 384.069c0-83.503-178.842-261.637-433.701-261.637-248.372 0-433.701 175.202-433.701 261.637 0 86.422 186.128 261.356 433.701 261.356 256.862-0.001 433.762-174.935 433.701-261.357zM512.405 597.701c-115.427 0-208.998-95.714-208.998-213.774 0-118.061 93.57-213.774 208.998-213.774 115.462 0 209.036 95.714 209.036 213.774-0.001 118.06-93.574 213.774-209.036 213.774zM512.023 520.406c-73.507 0-133.097-60.94-133.097-136.122 0-75.173 59.59-136.125 133.097-136.125s133.073 60.952 133.073 136.125c0 75.182-59.566 136.122-133.073 136.122z"  horiz-adv-x="1024" />

    
    <glyph glyph-name="biyan" unicode="&#58921;" d="M729.7024 609.52576l-56.12032-80.54784c33.42336-38.68672 53.7344-89.39008 53.7344-144.9472 0-121.34912-96.6912-219.776-215.97184-219.776-28.55936 0-55.80288 5.69856-80.75776 15.95904l-36.56704-52.48c37.00224-8.00768 76.12928-12.59008 116.93056-12.57984 263.34208 0 448.09216 183.12192 448.09216 268.98944C959.0784 445.61408 871.53152 550.6304 729.7024 609.52576zM312.27904 151.99744l50.57024 72.58112c-41.4976 40.05888-67.42016 96.6656-67.42016 159.44704 0 121.34912 96.63488 219.71968 215.91552 219.71968 35.58912 0 69.13024-8.81152 98.73408-24.32512l39.40352 56.55552c-42.91584 10.65984-89.28768 16.8704-138.53184 16.8704-255.7696 0-448.09216-179.8656-448.09216-268.70784C62.85824 320.3072 161.59744 209.42848 312.27904 151.99744zM510.9504 244.40832c75.95008 0 137.4976 62.65856 137.4976 139.9552 0 28.22656-8.23296 54.47168-22.35904 76.44672l-147.95776-212.36736C488.64768 245.83168 499.6352 244.40832 510.9504 244.40832zM510.9504 524.26752c-75.95008 0-137.4976-62.66368-137.4976-139.9552 0-36.05504 13.39904-68.90496 35.39968-93.70112l155.24352 222.8224C547.74272 520.40192 529.79712 524.26752 510.9504 524.26752zM250.148983-41.341824l-29.574161 20.600281 540.951265 776.600084 29.574161-20.600281-540.951265-776.600084Z"  horiz-adv-x="1024" />

    
    <glyph glyph-name="zhijiaochi" unicode="&#58909;" d="M248.7 636.6c-10.8 0-19.5-8.7-19.5-19.5v-465.3c0-10.8 8.7-19.5 19.5-19.5h6.3c3.3 0 6.5 0.8 9.2 2.3l0.8 499.2c-2.9 1.8-6.4 2.8-10 2.8h-6.3zM915.7-35L759.3 120.9c-2.8 2.8-6.6 4.4-10.6 4.4l-454.5-0.5 0.9 533.6c0 4-1.6 7.8-4.4 10.6L134.1 825.4c-4.3 4.3-10.7 5.6-16.3 3.2-5.6-2.3-9.3-7.8-9.3-13.9v-860.5c0-8.3 6.7-15 15-15h781.6c6.1 0 11.5 3.7 13.9 9.3 2.3 5.7 1 12.2-3.3 16.5z m-175.5 4.3l0.2 51.3c0 2.8-2.2 5-5 5s-5-2.2-5-5l-0.2-51.3h-17.6l0.1 31.6c0 2.8-2.2 5-5 5s-5-2.2-5-5l-0.1-31.6H685l0.1 31.6c0 2.8-2.2 5-5 5s-5-2.2-5-5l-0.1-31.7h-17.6l0.1 31.7c0 2.8-2.2 5-5 5s-5-2.2-5-5l-0.1-31.7h-17.6l0.1 31.7c0 2.8-2.2 5-5 5s-5-2.2-5-5l-0.1-31.8h-17.6l0.2 51.5c0 2.8-2.2 5-5 5s-5-2.2-5-5l-0.2-51.6h-17.6l0.1 31.9c0 2.8-2.2 5-5 5s-5-2.2-5-5l-0.1-31.9H547l0.1 31.9c0 2.8-2.2 5-5 5s-5-2.2-5-5L537-31h-17.6l0.1 32c0 2.8-2.2 5-5 5s-5-2.2-5-5l-0.1-32h-17.6l0.1 32c0 2.8-2.2 5-5 5s-5-2.2-5-5l-0.1-32.1H464l0.2 51.8c0 2.8-2.2 5-5 5s-5-2.2-5-5l-0.2-51.9h-17.6l0.1 32.1c0 2.8-2.2 5-5 5s-5-2.2-5-5l-0.1-32.2h-17.6l0.1 32.2c0 2.8-2.2 5-5 5s-5-2.2-5-5l-0.1-32.2h-17.6l0.1 32.3c0 2.8-2.2 5-5 5s-5-2.2-5-5l-0.1-32.3h-17.6l0.1 32.3c0 2.8-2.2 5-5 5s-5-2.2-5-5l-0.1-32.4H326l0.2 52.1c0 2.8-2.2 5-5 5s-5-2.2-5-5l-0.2-52.1h-17.6l0.1 32.4c0 2.8-2.2 5-5 5s-5-2.2-5-5l-0.1-32.5h-17.6l0.1 32.5c0 2.8-2.2 5-5 5s-5-2.2-5-5l-0.1-32.5h-17.6l0.1 32.5c0 2.8-2.2 5-5 5s-5-2.2-5-5l-0.1-32.6h-17.6l0.1 32.6c0 2.8-2.2 5-5 5s-5-2.2-5-5l-0.1-32.6h-17.8l0.3 52.4c0 2.8-2.2 5-5 5-2.7 0-5-2.2-5-5l-0.3-52.4h-39.1V103.3l51.3-0.2c2.8 0 5 2.2 5 5s-2.2 5-5 5l-51.3 0.2v17.6l31.6-0.1c2.8 0 5 2.2 5 5s-2.2 5-5 5l-31.6 0.1v17.6l31.6-0.1c2.8 0 5 2.2 5 5s-2.2 5-5 5l-31.7 0.1v17.6l31.7-0.1c2.8 0 5 2.2 5 5s-2.2 5-5 5l-31.7 0.1v17.6l31.7-0.1c2.8 0 5 2.2 5 5s-2.2 5-5 5l-31.8 0.1v17.6l51.5-0.2c2.8 0 5 2.2 5 5s-2.2 5-5 5l-51.6 0.2v17.6l31.9-0.1c2.8 0 5 2.2 5 5s-2.2 5-5 5l-31.9 0.1v17.6l31.9-0.1c2.8 0 5 2.2 5 5s-2.2 5-5 5l-31.9 0.1v17.6l32-0.1c2.8 0 5 2.2 5 5s-2.2 5-5 5l-32 0.1v17.6l32-0.1c2.8 0 5 2.2 5 5s-2.2 5-5 5l-32.1 0.1v17.6l51.8-0.2c2.8 0 5 2.2 5 5s-2.2 5-5 5l-51.9 0.2v17.6l32.1-0.1c2.8 0 5 2.2 5 5s-2.2 5-5 5l-32.2 0.1v17.6l32.2-0.1c2.8 0 5 2.2 5 5s-2.2 5-5 5l-32.2 0.1v17.6l32.3-0.1c2.8 0 5 2.2 5 5s-2.2 5-5 5l-32.3 0.1v17.6l32.3-0.1c2.8 0 5 2.2 5 5s-2.2 5-5 5l-32.4 0.1v17.6l52.1-0.2c2.8 0 5 2.2 5 5s-2.2 5-5 5l-52.1 0.2v17.6l32.4-0.1c2.8 0 5 2.2 5 5s-2.2 5-5 5l-32.5 0.1V573l32.5-0.1c2.8 0 5 2.2 5 5s-2.2 5-5 5l-32.5 0.1v17.6l32.5-0.1c2.8 0 5 2.2 5 5s-2.2 5-5 5l-32.6 0.1v17.6l32.6-0.1c2.8 0 5 2.2 5 5s-2.2 5-5 5l-32.6 0.1V656l52.4-0.3c2.7 0 5 2.2 5 5s-2.2 5-5 5l-52.4 0.3V778.6L265 652.2v-18.4l-0.8-499.2v-24.8c0-4 1.6-7.8 4.4-10.6 2.8-2.8 6.6-4.4 10.6-4.4l463.3 0.5 126.3-125.9H740.2z"  horiz-adv-x="1024" />

    
    <glyph glyph-name="xialaliebiao" unicode="&#59195;" d="M266.24 764.586667H116.053333c-6.826667 0-11.946667-5.12-15.36-10.24s-3.413333-11.946667 1.706667-17.066667l75.093333-105.813333c3.413333-5.12 8.533333-6.826667 13.653334-6.826667s10.24 3.413333 13.653333 6.826667l75.093333 105.813333c3.413333 5.12 3.413333 11.946667 1.706667 17.066667s-10.24 10.24-15.36 10.24z m-75.093333-93.866667L148.48 730.453333h83.626667l-40.96-59.733333zM385.706667 636.586667h517.12c32.426667 0 58.026667 25.6 58.026666 58.026666s-25.6 58.026667-58.026666 58.026667H385.706667c-32.426667 0-58.026667-25.6-58.026667-58.026667s25.6-58.026667 58.026667-58.026666z m0 80.213333h517.12c11.946667 0 23.893333-10.24 23.893333-23.893333s-10.24-23.893333-23.893333-23.893334H385.706667c-11.946667 0-23.893333 10.24-23.893334 23.893334s10.24 23.893333 23.893334 23.893333zM266.24 471.04H116.053333c-6.826667 0-11.946667-3.413333-15.36-8.533333s-1.706667-11.946667 1.706667-17.066667l75.093333-105.813333c3.413333-5.12 8.533333-6.826667 13.653334-6.826667s10.24 3.413333 13.653333 6.826667l75.093333 105.813333c3.413333 5.12 3.413333 11.946667 1.706667 17.066667s-10.24 8.533333-15.36 8.533333z m-75.093333-92.16l-42.666667 58.026667h83.626667l-40.96-58.026667zM901.12 459.093333H385.706667c-32.426667 0-58.026667-25.6-58.026667-58.026666s25.6-58.026667 58.026667-58.026667h517.12c32.426667 0 58.026667 25.6 58.026666 58.026667s-27.306667 58.026667-59.733333 58.026666z m0-80.213333H385.706667c-11.946667 0-23.893333 10.24-23.893334 23.893333s10.24 23.893333 23.893334 23.893334h517.12c11.946667 0 23.893333-10.24 23.893333-23.893334-1.706667-13.653333-11.946667-23.893333-25.6-23.893333zM266.24 182.613333H116.053333c-6.826667 0-11.946667-3.413333-15.36-8.533333-3.413333-5.12-1.706667-11.946667 1.706667-17.066667l75.093333-105.813333c3.413333-5.12 8.533333-6.826667 13.653334-6.826667s10.24 3.413333 13.653333 6.826667l75.093333 105.813333c3.413333 5.12 3.413333 11.946667 1.706667 17.066667-3.413333 5.12-10.24 8.533333-15.36 8.533333z m-75.093333-93.866666l-42.666667 58.026666h83.626667l-40.96-58.026666zM901.12 170.666667H385.706667c-32.426667 0-58.026667-25.6-58.026667-58.026667s25.6-58.026667 58.026667-58.026667h517.12c32.426667 0 58.026667 25.6 58.026666 58.026667-1.706667 32.426667-27.306667 58.026667-59.733333 58.026667z m0-81.92H385.706667c-11.946667 0-23.893333 10.24-23.893334 23.893333s10.24 23.893333 23.893334 23.893333h517.12c11.946667 0 23.893333-10.24 23.893333-23.893333s-11.946667-23.893333-25.6-23.893333z"  horiz-adv-x="1024" />

    
    <glyph glyph-name="radio" unicode="&#59109;" d="M512 896c285.074286 0 512-226.925714 512-512s-226.925714-512-512-512S0 98.925714 0 384 226.925714 896 512 896z m0-73.142857C267.337143 822.857143 73.142857 628.662857 73.142857 384s194.194286-438.857143 438.857143-438.857143 438.857143 194.194286 438.857143 438.857143S756.662857 822.857143 512 822.857143zM763.282286 513.060571l-312.393143-312.429714a32.841143 32.841143 0 0 0-47.542857 0l-142.628572 149.394286c-13.604571 13.604571-17.408 39.68-3.803428 53.284571 13.531429 13.531429 37.741714 13.531429 51.346285 0l122.221715-118.491428 285.257143 286.354285c13.604571 13.604571 39.68 11.702857 53.284571-1.901714 13.531429-13.568 7.862857-42.642286-5.741714-56.210286z"  horiz-adv-x="1024" />

    
    <glyph glyph-name="checkbox2" unicode="&#58929;" d="M392.281043 3.6507830000000467l94.475131-94.475131 94.386087 94.475131L1473.580522 896l-72.080696-2.404174L436.802783 147.99026100000003h99.86226L99.862261 584.837565 0 529.4970430000001z"  horiz-adv-x="1513" />

    
    <glyph glyph-name="gonggao1" unicode="&#58907;" d="M586.540182 354.988246l165.188226 0 0-61.758576-165.188226 0 0 61.758576ZM901.452431 578.994066 123.661949 578.994066c-12.899798 0-23.356964-13.287631-23.356964-29.677926l0-308.119543c0-16.391319 10.457166-29.67895 23.356964-29.67895l777.790482 0c12.899798 0 23.356964 13.287631 23.356964 29.67895L924.809395 549.315116C924.809395 565.706435 914.352229 578.994066 901.452431 578.994066zM210.594881 407.153326c44.569078 36.373419 77.845972 79.244832 99.832729 128.613216l23.684422-9.893324c-26.981515-56.163137-61.758576-102.132098-104.329137-137.906883C224.5845 394.562567 218.187813 400.956184 210.594881 407.153326zM455.828165 253.057739c-5.598508 9.195429-11.541871 18.73776-17.838274 28.631084-65.955154-3.195785-119.570259-6.445806-160.841222-9.742898-7.596002-0.797156-16.788361-2.495844-27.581172-5.096065l-13.19144 25.482371c8.993838 3.597945 17.287735 9.093099 24.882714 16.488533 23.384593 26.981515 48.765657 66.855664 76.148307 119.619378l25.7822-11.692297c-24.784476-42.571584-51.265594-82.34545-79.446423-119.319549 41.270962 1.298576 87.990007 3.14769 140.155087 5.54632-11.392468 17.288758-23.935132 35.526121-37.624922 54.713113l19.48682 12.291954c28.780487-37.376259 53.063543-71.352071 72.850192-101.93153L455.828165 253.057739zM491.804541 392.463766c-55.162344 37.972846-92.438319 84.242659-111.823831 138.806369l22.185278 8.694009c19.385513-52.16508 55.462173-93.536326 108.22691-124.115785C504.994957 410.249851 498.796792 402.455327 491.804541 392.463766zM775.711636 256.355855l-23.984251 0 0 15.589047L586.540182 271.944901l0-15.589047L562.555931 256.355855 562.555931 376.57489l213.155704 0L775.711636 256.355855zM815.284933 408.65247l-292.900933 0 0 22.185278L664.487462 430.837748l0 49.466622-80.945567 0c-8.295943-15.888875-17.189498-30.481222-26.681686-43.769876-6.595208 4.595668-13.992689 9.293667-22.185278 14.090926 21.982664 28.780487 38.272675 59.959603 48.866964 93.536326l24.882714-7.194866c-4.497431-11.992125-9.195429-23.484877-14.090926-34.476209L664.487462 502.490671l0 47.067992 24.582885 0 0-47.067992L792.799826 502.490671l0-22.185278L689.070346 480.305393l0-49.466622 126.214587 0L815.284933 408.65247z"  horiz-adv-x="1024" />

    
    <glyph glyph-name="gonggao2" unicode="&#59041;" d="M624.629173-66.525903c-6.810103 0-13.520945 2.492774-18.794042 7.270591L332.303338 186.89383 174.123736 186.89383c-45.288462 0-112.63429 30.000268-112.63429 112.630197L61.489446 468.463694c0 45.288462 30.017664 112.63429 112.620987 112.63429l158.131507 0L605.770663 827.299315c8.261151 7.489578 20.156062 9.29162 30.284747 4.776793 10.247388-4.557806 16.72901-14.630209 16.72901-25.735128l0-844.702428c0-11.100826-6.481621-21.22951-16.663518-25.744337C632.453373-65.731818 628.508527-66.525903 624.629173-66.525903L624.629173-66.525903 624.629173-66.525903zM174.110433 524.770094c-53.609988 0-56.3064-46.905286-56.3064-56.31561l0-168.939667c0-53.54859 46.914496-56.314587 56.3064-56.314587l168.939667 0c6.987135 0 13.688767-2.581802 18.807345-7.271614l234.613412-211.054857L596.470857 743.113961 361.931123 532.040684c-5.185093-4.6673-11.876492-7.270591-18.871813-7.270591L174.110433 524.770094 174.110433 524.770094 174.110433 524.770094zM765.40643 552.933527c-7.139607 0-14.402011 2.765997-19.924795 8.226359-10.983145 10.974959-10.983145 28.835745 0 39.818891l112.630197 112.630197c10.973936 10.965749 28.817326 10.965749 39.817867 0 10.975982-10.984169 10.975982-28.844955 0-39.828101L785.307689 561.159886C779.828908 555.699524 772.685207 552.933527 765.40643 552.933527L765.40643 552.933527 765.40643 552.933527zM934.355307 355.842707 765.40643 355.842707c-15.47546 0-28.151154 12.600993-28.151154 28.151154 0 15.541975 12.675694 28.155247 28.151154 28.155247l168.948877 0c15.598256 0 28.155247-12.622482 28.155247-28.155247C962.510554 368.443699 949.953563 355.842707 934.355307 355.842707L934.355307 355.842707 934.355307 355.842707zM878.04072 46.10941c-7.15291 0-14.402011 2.756787-19.928888 8.226359L745.481635 166.964942c-10.983145 10.974959-10.983145 28.817326 0 39.818891 10.973936 10.965749 28.813233 10.965749 39.827077 0l112.620987-112.620987c10.975982-11.005658 10.975982-28.852118 0-39.827077C892.459105 48.866197 885.320521 46.10941 878.04072 46.10941L878.04072 46.10941 878.04072 46.10941zM878.04072 46.10941"  horiz-adv-x="1024" />

    
    <glyph glyph-name="gonggao3" unicode="&#59138;" d="M192 448.2v-320h640.1v320H192z m128-64.5h384v-64H320v64z m448.1-191.6h-512v64h512v-64zM910.3 576.4H770.7L580.6 764.5v1.8c0 36-29.7 65.1-66.3 65.1-35.5 0-64.5-27.5-66.2-62l-194.2-193H113.1c-27.6 0-50-22.4-50-50v-476c0-27.6 22.4-50 50-50h797.2c27.6 0 50 22.4 50 50v476c-0.1 27.7-22.4 50-50 50zM479.9 710.7c10-6 21.8-9.5 34.5-9.5 11.3 0 22 2.8 31.4 7.8l134-132.5h-335l135.1 134.2z m416.2-646.6h-768v448h768v-448z"  horiz-adv-x="1024" />

    
    <glyph glyph-name="gonggao4" unicode="&#58924;" d="M390.71232 590.99648c202.25536 62.86848 404.57216 125.74208 606.88896 188.61568l-32.40448 24.68352v-674.39104l32.40448 24.68352c-200.84736 53.10464-401.6896 106.20928-602.46528 159.31392-31.95904 8.448-45.50144-40.93952-13.60896-49.37216 200.77568-53.10464 401.62304-106.20928 602.46528-159.31392 16.0768-4.2496 32.40448 7.91552 32.40448 24.68352V804.29056c0 16.2304-16.41472 29.65504-32.40448 24.68352C781.6704 766.1056 579.35872 703.232 377.10336 640.3584c-31.42656-9.75872-18.01216-59.1872 13.60896-49.36192zM388.992 324.27008c-57.25696-55.21408-141.94688-71.05536-214.42048-36.93056-63.27296 29.78816-103.66464 93.74208-107.09504 162.92864-3.49696 70.4512 35.3536 135.5776 95.14496 171.02848 70.68672 41.9072 162.10944 28.10368 221.82912-26.17344 24.3712-22.14912 60.68736 13.95712 36.20352 36.20352C345.35936 699.7504 240.54784 715.0848 148.72576 671.8464 66.944 633.33888 17.6128 546.0736 16.14848 457.48224c-1.48992-90.01984 53.39648-173.94688 132.57728-214.3488 91.7248-46.80704 203.42272-25.4976 276.46976 44.93824 23.80288 22.94784-12.4416 59.11552-36.20352 36.1984zM413.9264 426.82368V621.89056c0 33.01888-51.2 33.01888-51.2 0v-195.06688c0-33.01376 51.2-33.01376 51.2 0zM386.86208 274.67264v-159.88736c0-11.52512 7.83872-21.4784 18.79552-24.68352 132.27008-38.69184 264.56064-77.38368 396.8768-116.07552 16.03072-4.68992 32.40448 8.23808 32.40448 24.68352v181.13536c0 33.01376-51.2 33.01376-51.2 0v-181.13536l32.40448 24.68352a3050427.7504 3050427.7504 0 0 0-396.8768 116.07552l18.79552-24.68352v159.88736c0 33.01888-51.2 33.01888-51.2 0z"  horiz-adv-x="1024" />

    
    <glyph glyph-name="gonggao5" unicode="&#58908;" d="M885.781974-22.181784a40.286123 40.286123 0 0 0-36.831283 23.109586 39.504816 39.504816 0 0 0 6.103958 42.727706h0.207535c81.097186 91.09547 156.358989 195.167954 156.358989 340.600858s-75.054268 249.529804-156.322365 340.429948a39.30949 39.30949 0 0 0 2.905484 55.521602l0.500524 0.451693v0.170911a40.957558 40.957558 0 0 0 57.072008-3.735623c87.457511-97.663329 176.465427-220.706915 176.465427-392.765283s-88.739342-295.30949-176.221269-392.862947a40.457034 40.457034 0 0 0-30.348879-13.648451h0.073248zM748.088889 112.679065a40.371578 40.371578 0 0 0-35.805818 21.705675 39.590272 39.590272 0 0 0 3.003147 41.409251L731.254173 197.292132c41.848736 55.839008 78.130663 104.145732 78.130662 186.878779 0 85.736195-31.948116 127.41402-72.563853 180.225465-7.20267 9.278016-14.258846 18.592656-21.363853 28.46886a39.358321 39.358321 0 0 0 8.545541 54.996662l0.41507 0.29299a40.945351 40.945351 0 0 0 56.583691-9.180353c6.555651-9.119313 13.428708-18.018884 20.204101-26.759752a336.413543 336.413543 0 0 0 88.971292-228.214783c0-108.955651-49.79609-175.342299-93.756795-234.184454l-15.46743-20.753457a42.17835 42.17835 0 0 0-32.961373-16.517311zM121.468765 543.508631a40.176252 40.176252 0 0 1-40.286123-39.810014V264.972818a40.005341 40.005341 0 0 1 40.103004-39.797806h121.517597a40.945351 40.945351 0 0 0 28.737434-11.634144l242.93753-238.933333c4.199523-4.199523 8.264759-7.605532 11.780639-10.645303V804.587124a133.981879 133.981879 0 0 1-11.988174-10.791797L271.443014 555.106152a40.957558 40.957558 0 0 0-28.810682-11.634144H121.468765zM544.27773-128a132.126276 132.126276 0 0 0-87.176729 46.390081L226.017358 145.579399H121.371102A120.492132 120.492132 0 0 0 0 264.972818V503.466667a120.455508 120.455508 0 0 0 121.371102 119.466666h104.646256l230.912733 227.067239A130.86886 130.86886 0 0 0 543.935908 896a64.445589 64.445589 0 0 0 63.664283-65.190272 65.922747 65.922747 0 0 0-0.720267-8.899571v-875.307582a64.494421 64.494421 0 0 0-53.568336-73.796853 65.922747 65.922747 0 0 0-9.033858-0.793514z"  horiz-adv-x="1092" />

    
    <glyph glyph-name="lunbotu1" unicode="&#58962;" d="M412.8 448c38.4 0 76.8 22.4 89.6 57.6 16 35.2 6.4 76.8-19.2 105.6s-70.4 35.2-105.6 19.2c-35.2-12.8-57.6-51.2-57.6-89.6 0-51.2 41.6-92.8 92.8-92.8z m-19.2 118.4c6.4 6.4 12.8 9.6 22.4 9.6 16 0 32-12.8 32-28.8s-12.8-32-28.8-35.2c-16 0-32 12.8-35.2 28.8 0 9.6 3.2 19.2 9.6 25.6zM896 672h-32V736c0 35.2-28.8 64-64 64H224c-35.2 0-64-28.8-64-64v-64H128c-35.2 0-64-28.8-64-64v-448c0-35.2 28.8-64 64-64h32v-64c0-35.2 28.8-64 64-64h576c35.2 0 64 28.8 64 64v64h32c35.2 0 64 28.8 64 64V608c0 35.2-28.8 64-64 64zM160 160c-19.2 0-32 12.8-32 32V576c0 19.2 12.8 32 32 32v-448z m640-96c0-19.2-12.8-32-32-32H256c-16 0-32 12.8-32 32V704c0 19.2 12.8 32 32 32h512c16 0 32-12.8 32-32v-640z m96 128c0-19.2-12.8-32-32-32V608c16 0 32-12.8 32-32v-384z m-211.2 240l-134.4-134.4-67.2 67.2c-6.4 6.4-12.8 9.6-22.4 9.6s-16-3.2-22.4-9.6l-160-160c-12.8-12.8-12.8-32 0-44.8s32-12.8 44.8 0l134.4 134.4 67.2-67.2c6.4-6.4 12.8-9.6 22.4-9.6s16 3.2 22.4 9.6l160 160c12.8 12.8 12.8 32 0 44.8-9.6 12.8-32 12.8-44.8 0z"  horiz-adv-x="1024" />

    
    <glyph glyph-name="gonggao" unicode="&#58906;" d="M321.243429 125.019429c0-18.249143-14.628571-33.042286-32.603429-33.042286A32.822857 32.822857 0 0 0 256 125.019429c0 18.230857 14.610286 33.024 32.64 33.024 17.993143 0 32.603429-14.793143 32.603429-33.024zM321.243429 247.131429c0-18.249143-14.628571-33.024-32.603429-33.024A32.822857 32.822857 0 0 0 256 247.131429c0 18.212571 14.610286 33.024 32.64 33.024 17.993143 0 32.603429-14.811429 32.603429-33.024zM321.243429 369.261714c0-18.249143-14.628571-33.024-32.603429-33.024A32.822857 32.822857 0 0 0 256 369.261714c0 18.249143 14.610286 33.024 32.64 33.024 17.993143 0 32.603429-14.774857 32.603429-33.024zM636.653714 95.670857h-245.577143A25.508571 25.508571 0 0 0 365.714286 121.307429c0 14.134857 11.392 25.636571 25.380571 25.636571h245.558857c13.970286 0 25.289143-11.501714 25.289143-25.636571 0-14.189714-11.318857-25.636571-25.289143-25.636572zM597.942857 365.531429c0-14.134857-11.318857-25.618286-25.289143-25.618286h-181.577143A25.545143 25.545143 0 0 0 365.714286 365.531429c0 14.189714 11.392 25.636571 25.380571 25.636571h181.577143c13.952 0 25.270857-11.446857 25.270857-25.636571zM779.282286 217.782857h-388.205715A25.545143 25.545143 0 0 0 365.714286 243.419429c0 14.189714 11.392 25.636571 25.380571 25.636571h388.187429c13.970286 0 25.289143-11.446857 25.289143-25.636571 0-14.134857-11.318857-25.636571-25.289143-25.636572zM882.432 557.348571H141.568v81.060572c0 40.283429 32.420571 73.033143 72.265143 73.033143h52.022857v-32.036572c0-14.025143 11.209143-25.344 25.051429-25.344a25.234286 25.234286 0 0 1 25.106285 25.344v32.036572h391.972572v-32.036572c0-14.025143 11.209143-25.344 25.051428-25.344a25.234286 25.234286 0 0 1 25.106286 25.344v32.036572h51.968c39.862857 0 72.32-32.731429 72.32-73.033143v-81.060572z m0-506.733714c0-40.283429-32.457143-73.033143-72.32-73.033143H213.833143c-39.862857 0-72.265143 32.731429-72.265143 73.033143V506.587429h740.864v-455.972572zM758.125714 762.148571V797.494857A25.234286 25.234286 0 0 1 733.037714 822.857143c-13.842286 0-25.051429-11.373714-25.051428-25.362286v-35.328H316.013714V797.494857A25.234286 25.234286 0 0 1 290.907429 822.857143c-13.842286 0-25.051429-11.373714-25.051429-25.362286v-35.328h-52.022857C146.340571 762.148571 91.428571 706.633143 91.428571 638.409143v-587.794286C91.428571-17.645714 146.340571-73.142857 213.833143-73.142857h596.297143C877.586286-73.142857 932.571429-17.645714 932.571429 50.614857V638.409143c0 68.205714-54.948571 123.757714-122.459429 123.757714h-51.968z"  horiz-adv-x="1024" />

    
    <glyph glyph-name="link" unicode="&#59012;" d="M149.674904 378.460844c0 76.599585 62.265112 138.864698 138.864698 138.864698l179.179892 0 0 85.110423L288.539602 602.435964c-123.633808 0-223.975121-100.340289-223.975121-223.975121s100.340289-223.975121 223.975121-223.975121l179.179892 0 0 85.110423L288.539602 239.596146C211.940017 239.596146 149.674904 301.861258 149.674904 378.460844zM333.333808 333.665615l358.359784 0 0 89.589434L333.333808 423.255049 333.333808 333.665615zM736.488821 602.434941 557.308929 602.434941l0-85.110423 179.179892 0c76.599585 0 138.864698-62.265112 138.864698-138.864698s-62.265112-138.864698-138.864698-138.864698L557.308929 239.595123l0-85.110423 179.179892 0c123.633808 0 223.974098 100.340289 223.974098 223.975121S860.122629 602.434941 736.488821 602.434941z"  horiz-adv-x="1024" />

    
    <glyph glyph-name="form" unicode="&#58936;" d="M304.7 325.6v-47.3h331.2v47.3H304.7z m0-189.2h378.5v47.3H304.7v-47.3z m520.5 236.5v-378.5H210.1v757h236.6V798.8h-284v-851.7h709.7V372.9h-47.2z m-520.5 47.3H494v47.3H304.7v-47.3z m304 76.4l238 238c6.6 6.6 4.5 19.4-4.8 28.7-9.2 9.2-22.1 11.4-28.7 4.8l-238-238c-6.6-6.6-4.5-19.4 4.8-28.7 9.2-9.2 22.1-11.3 28.7-4.8z"  horiz-adv-x="1024" />

    
    <glyph glyph-name="tianjiazujian" unicode="&#58922;" d="M394.712615 817.230769v-315.076923h-315.076923V817.230769h315.076923m0 78.769231h-315.076923a78.769231 78.769231 0 0 1-78.76923-78.769231v-315.076923a78.769231 78.769231 0 0 1 78.76923-78.769231h315.076923a78.769231 78.769231 0 0 1 78.769231 78.769231V817.230769a78.769231 78.769231 0 0 1-78.769231 78.769231zM394.712615 265.846154v-315.076923h-315.076923V265.846154h315.076923m0 78.769231h-315.076923a78.769231 78.769231 0 0 1-78.76923-78.769231v-315.076923a78.769231 78.769231 0 0 1 78.76923-78.769231h315.076923a78.769231 78.769231 0 0 1 78.769231 78.769231V265.846154a78.769231 78.769231 0 0 1-78.769231 78.769231zM944.443077 817.230769v-315.076923h-315.076923V817.230769h315.076923m0 78.769231h-315.076923a78.769231 78.769231 0 0 1-78.769231-78.769231v-315.076923a78.769231 78.769231 0 0 1 78.769231-78.769231h315.076923a78.769231 78.769231 0 0 1 78.769231 78.769231V817.230769a78.769231 78.769231 0 0 1-78.769231 78.769231zM983.827692 147.692308h-393.846154a39.384615 39.384615 0 0 1 0-78.769231h393.846154a39.384615 39.384615 0 0 1 0 78.769231zM786.904615 344.615385a39.384615 39.384615 0 0 1-39.384615-39.384616v-393.846154a39.384615 39.384615 0 0 1 78.769231 0v393.846154a39.384615 39.384615 0 0 1-39.384616 39.384616z"  horiz-adv-x="1024" />

    
    <glyph glyph-name="xiayi" unicode="&#59040;" d="M1005.01883259 384.81313185c0 66.59549867-13.05137303 131.21884918-38.79124384 192.07266607-24.85392118 58.76030578-60.42540563 111.52406755-105.73019972 156.827648-45.30358045 45.30358045-98.06855585 80.87627852-156.82886162 105.73019971-60.85260325 25.74108445-125.47595378 38.79124385-192.07145244 38.79124385s-131.21642192-13.05015941-192.07145245-38.79124385c-58.76151941-24.85392118-111.52406755-60.42540563-156.827648-105.73019971-45.30358045-45.30358045-80.87749215-98.06855585-105.73141334-156.827648-25.73987082-60.85381689-38.79003022-125.47595378-38.79003021-192.07266607 0-66.59549867 13.05015941-131.21642192 38.79003021-192.07145244 24.85392118-58.76151941 60.42540563-111.52406755 105.73141334-156.827648 45.30358045-45.30358045 98.06855585-80.87749215 156.827648-105.73141333 60.85381689-25.73987082 125.47595378-38.79003022 192.07145245-38.79003023s131.21884918 13.05015941 192.07145244 38.79003023c58.76151941 24.85392118 111.52406755 60.42540563 156.82886162 105.73141333 45.30358045 45.30358045 80.87627852 98.06855585 105.73019972 156.827648 25.73987082 60.85260325 38.79124385 125.47595378 38.79124384 192.07145244zM934.31883852 384.81313185c0-233.08849303-189.63205689-422.7193363-422.72054993-422.7193363s-422.72054992 189.63205689-422.72054992 422.7193363c0 233.08849303 189.63205689 422.72054992 422.72054992 422.72054993s422.72054992-189.63205689 422.72054993-422.72054993zM486.60237275 101.74979791999999l-216.63046164 216.63046163c-13.74799645 13.74799645-13.74799645 36.24262163 0 49.99304534 13.74678282 13.74678282 36.24262163 13.74678282 49.99304534 0l155.5339188-155.53513244v430.00111407c0 19.44234667 15.90704355 35.34939022 35.34939023 35.34939023s35.34939022-15.90704355 35.34939022-35.34939023v-431.50358755l157.03760593 157.03760592c13.74799645 13.74678282 36.24262163 13.74678282 49.99304534 0 13.74799645-13.74799645 13.74799645-36.24262163 0-49.99304534l-216.63046164-216.63167525c-13.74799645-13.74799645-36.24626252-13.74799645-49.99304533 0z"  horiz-adv-x="1024" />

    
    <glyph glyph-name="daohang" unicode="&#59261;" d="M371.42016 419.45088H157.94176A106.67008 106.67008 0 0 0 51.2 525.78816V738.4576A106.67008 106.67008 0 0 0 157.94176 844.8h213.4784C430.27456 844.8 481.28 795.90912 481.28 737.28v-209.92c0-58.67008-40.76544-107.0592-109.85984-107.90912zM143.31904 793.6a41.0368 41.0368 0 0 1-40.96-40.96v-225.34144c0-22.57408 6.87616-61.44 40.96-61.44h245.76c35.36896 0 40.96 38.87616 40.96 61.44V752.64a41.0368 41.0368 0 0 1-40.96 40.96h-245.76z m228.10112-870.4H157.94176A106.6752 106.6752 0 0 0 51.2 29.5424v212.67456a106.6752 106.6752 0 0 0 106.74176 106.3424h213.4784a106.6752 106.6752 0 0 0 106.74176-106.3424v-212.67456A106.6496 106.6496 0 0 0 371.42016-76.8z m-233.22112 378.95168a41.00608 41.00608 0 0 1-40.96-40.96V15.36a41.00608 41.00608 0 0 1 40.96-40.96h245.76a41.00608 41.00608 0 0 1 40.96 40.96v245.82656a41.00608 41.00608 0 0 1-40.96 40.96h-245.76z m727.86944 117.2992h-213.504a106.67008 106.67008 0 0 0-106.74176 106.33728V738.4576A106.66496 106.66496 0 0 0 652.57984 844.8h213.504A106.67008 106.67008 0 0 0 972.8 738.4576v-212.66944a106.64448 106.64448 0 0 0-106.73664-106.33728zM634.92608 798.72a41.00608 41.00608 0 0 1-40.96-40.96v-245.82144a41.00608 41.00608 0 0 1 40.96-40.96h245.76a41.00608 41.00608 0 0 1 40.96 40.96V757.76a41.00608 41.00608 0 0 1-40.96 40.96h-245.76z m231.13728-875.52h-213.504a106.6752 106.6752 0 0 0-106.74176 106.3424v212.67456a106.6752 106.6752 0 0 0 106.74176 106.3424h213.504A106.6752 106.6752 0 0 0 972.8 242.21696v-212.67456A106.6496 106.6496 0 0 0 866.06336-76.8z m-231.13728 378.95168a40.96 40.96 0 0 1-40.96-40.96V15.36a40.96 40.96 0 0 1 40.96-40.96h245.76a40.96 40.96 0 0 1 40.96 40.96v245.82656a40.96 40.96 0 0 1-40.96 40.96h-245.76z m0 0"  horiz-adv-x="1024" />

    
    <glyph glyph-name="shangyi" unicode="&#59454;" d="M18.98116741 383.18686815c0-66.59549867 13.05137302-131.21884918 38.79124384-192.07266607 24.85392118-58.76030578 60.42540563-111.52406755 105.73019972-156.827648 45.30358045-45.30358045 98.06855585-80.87627852 156.82886162-105.73019971 60.85260325-25.74108445 125.47595378-38.79124385 192.07145244-38.79124385s131.21642192 13.05015941 192.07145245 38.79124385c58.76151941 24.85392118 111.52406755 60.42540563 156.827648 105.73019971 45.30358045 45.30358045 80.87749215 98.06855584 105.73141334 156.827648 25.73987082 60.85381689 38.79003022 125.47595378 38.79003021 192.07266607 0 66.59549867-13.05015941 131.21642192-38.79003021 192.07145244-24.85392118 58.76151941-60.42540563 111.52406755-105.73141334 156.827648-45.30358045 45.30358045-98.06855584 80.87749215-156.827648 105.73141333-60.85381689 25.73987082-125.47595378 38.79003022-192.07145245 38.79003023s-131.21884918-13.05015941-192.07145244-38.79003023c-58.76151941-24.85392118-111.52406755-60.42540563-156.82886162-105.73141333-45.30358045-45.30358045-80.87627852-98.06855585-105.73019972-156.827648-25.73987082-60.85260325-38.79124385-125.47595378-38.79124384-192.07145244zM89.68116148 383.18686816c0 233.08849303 189.63205689 422.7193363 422.72054993 422.71933629s422.72054992-189.63205689 422.72054992-422.7193363c0-233.08849303-189.63205689-422.72054992-422.72054992-422.72054993s-422.72054992 189.63205689-422.72054993 422.72054994zM537.39762725 666.25020208l216.63046164-216.63046163c13.74799645-13.74799645 13.74799645-36.24262163 0-49.99304534-13.74678282-13.74678282-36.24262163-13.74678282-49.99304534 0l-155.5339188 155.53513244 0-430.00111407c0-19.44234667-15.90704355-35.34939022-35.34939023-35.34939023s-35.34939022 15.90704355-35.34939022 35.34939023l0 431.50358755-157.03760593-157.0376059c-13.74799645-13.74678282-36.24262163-13.74678282-49.99304534 0-13.74799645 13.74799645-13.74799645 36.24262163 0 49.99304533l216.63046164 216.63167524c13.74799645 13.74799645 36.24626252 13.74799645 49.99304533 0z"  horiz-adv-x="1024" />

    
    <glyph glyph-name="shanchudelete31" unicode="&#59147;" d="M982.07515643-18.20406829000001l45.24739208 0 0-113.11848022-113.11848022 0 0 45.24739208 67.87108814 0L982.07515643-18.20406829000001zM270.68057552-131.32254850999993l160.89972627 0 0 45.24739208L270.68057552-86.07515642999999 270.68057552-131.32254850999993zM592.44986314-131.32254850999993L753.31942448-131.32254850999993l0 45.24739208L592.44986314-86.07515642999999 592.44986314-131.32254850999993zM41.93992606-18.20406829000001l-45.24739211 0 0-113.11848022 113.11848024 0 0 45.24739208-67.87108813 0L41.93992606-18.20406829000001zM41.93992606 303.56521933l-45.24739211 0L-3.30746605 142.68057552000005l45.24739211 0L41.93992606 303.56521933zM41.93992606 625.31942448l-45.24739211 0 0-160.88464381 45.24739211 0L41.93992606 625.31942448zM-3.30746605 786.20406829l45.24739211 0 0 67.87108814 67.87108813 0 0 45.24739208-113.11848024 0L-3.30746605 786.20406829zM431.56521933 899.32254851L270.68057552 899.32254851l0-45.24739208 160.88464381 0L431.56521933 899.32254851zM753.31942448 899.32254851L592.44986314 899.32254851l0-45.24739208L753.31942448 854.07515643 753.31942448 899.32254851zM914.20406829 899.32254851l0-45.24739208 67.87108814 0 0-67.87108814 45.24739208 0 0 113.11848022L914.20406829 899.32254851zM982.07515643 142.68057552000005l45.24739208 0L1027.32254851 303.56521933l-45.24739208 0L982.07515643 142.68057552000005zM982.07515643 464.43478067l45.24739208 0L1027.32254851 625.31942448l-45.24739208 0L982.07515643 464.43478067zM807.67662485 667.11293231c-28.58126933 28.56618687-74.88443391 28.56618687-103.46570325 0L512 474.91709317 319.80416087 667.11293231c-28.59635181 28.56618687-74.89951637 28.56618687-103.46570325 0-28.59635181-28.58126933-28.59635181-74.91459884 0-103.49586817l192.1656742-192.18075667L216.32337515 179.25555081000005c-28.59635181-28.59635181-28.59635181-74.91459884 0-103.49586819 14.28309345-14.28309345 33.0004313-21.43218139 51.73285163-21.43218138 18.73242032 0 37.44975819 7.14908795 51.74793409 21.43218138L512 267.95552175l192.19583913-192.19583913c14.28309345-14.28309345 33.0004313-21.43218139 51.74793409-21.43218138 18.71733787 0 37.43467571 7.14908795 51.73285163 21.43218138 28.59635181 28.58126933 28.59635181 74.91459884 0 103.49586819L615.49586818 371.43630747l192.1656742 192.18075667C836.25789418 592.21341593 836.25789418 638.53166298 807.67662485 667.11293231z"  horiz-adv-x="1024" />

    
    <glyph glyph-name="tuodong" unicode="&#58914;" d="M153.6 658.944a32.256 32.256 0 0 0 0 64h716.8a32.256 32.256 0 0 0 0-64z m0-307.2a32.256 32.256 0 0 0 0 64h716.8a32.256 32.256 0 0 0 0-64z m0-307.2a32.256 32.256 0 0 0 0 64h716.8a32.256 32.256 0 0 0 0-64z"  horiz-adv-x="1024" />

    
    <glyph glyph-name="editor-bold" unicode="&#58882;" d="M576 234.667H426.667v128H576c35.413 0 64-28.587 64-64 0-35.414-28.587-64-64-64m-149.333 384h128c35.413 0 64-28.587 64-64 0-35.414-28.587-64-64-64h-128m238.933-55.04C706.987 464.64 736 512 736 554.667c0 96.426-74.667 170.666-170.667 170.666H298.667V128H599.04c89.6 0 158.293 72.533 158.293 161.707 0 64.853-36.693 120.32-91.733 145.92z"  horiz-adv-x="1024" />

    
    <glyph glyph-name="editor-clean" unicode="&#58883;" d="M777.933 311.91l214.835 207.872c40.96 39.63 40.96 99.021 0 138.65L777.933 866.304l-15.36 14.848C752.333 886.118 737.024 891.034 726.784 896h-40.909c-10.24 0-25.6-4.966-35.789-14.848l-15.36-14.848L31.232 277.248c-40.96-39.578-40.96-98.97 0-138.547l214.835-207.872c15.36-19.866 40.909-29.696 61.338-29.696h613.734v49.459H409.702l368.23 361.318zM312.525-49.408c-10.24 0-25.6 4.915-35.84 14.848L61.9 173.312c-5.12 9.933-10.24 19.814-10.24 34.662 0 14.848 5.12 24.73 15.36 34.663l332.441 321.74c0-19.814 10.24-34.662 25.6-49.51l214.784-207.872c15.36-14.848 30.72-19.814 46.08-24.78L353.434-39.527c-10.24-4.967-25.6-9.882-40.91-9.882z"  horiz-adv-x="1024" />

    
    <glyph glyph-name="editor-hr" unicode="&#58884;" d="M128 256v85.333h85.333V256H128m0 170.667V512h85.333v-85.333H128M298.667 256v85.333H384V256h-85.333m0 170.667V512H384v-85.333h-85.333M469.333 256v85.333h85.334V256h-85.334m0 170.667V512h85.334v-85.333h-85.334M640 256v85.333h85.333V256H640m0 170.667V512h85.333v-85.333H640M810.667 256v85.333H896V256h-85.333m0 170.667V512H896v-85.333h-85.333z"  horiz-adv-x="1024" />

    
    <glyph glyph-name="editor-html" unicode="&#58885;" d="M194.33 416.235H93.035v101.28H47v-267.03h46.035v119.7h101.28v-119.7h46.035v267.03h-46.035v-101.28z m82.875 64.455h73.665v-230.205h46.035V480.69h73.665v36.825H277.205v-36.825z m350.61-145.11L581.06 517.515h-73.665v-267.03h46.035V462.27l46.035-211.785h55.245l46.83 213.93-0.795-213.93h46.035v267.03h-73.665l-45.3-181.935z m220.275-48.27V517.515h-46.035v-267.03H977V287.31H848.09z"  horiz-adv-x="1024" />

    
    <glyph glyph-name="editor-fullscreen" unicode="&#58886;" d="M213.333 682.667h213.334v-85.334h-128v-128h-85.334V682.667m384 0h213.334v-213.334h-85.334v128h-128v85.334m128-384h85.334v-213.334H597.333v85.334h128v128m-298.666-128v-85.334H213.333V298.667h85.334v-128h128z"  horiz-adv-x="1024" />

    
    <glyph glyph-name="editor-image" unicode="&#58887;" d="M554.667 512h234.666L554.667 746.667V512M256 810.667h341.333l256-256v-512c0-46.934-38.4-85.334-85.333-85.334H256c-47.36 0-85.333 38.4-85.333 85.334V725.333A85.038 85.038 0 0 0 256 810.667m0-768h512V384L597.333 213.333 512 298.667l-256-256M341.333 512C294.4 512 256 473.6 256 426.667c0-46.934 38.4-85.334 85.333-85.334 46.934 0 85.334 38.4 85.334 85.334 0 46.933-38.4 85.333-85.334 85.333z"  horiz-adv-x="1024" />

    
    <glyph glyph-name="editor-align-justify" unicode="&#58888;" d="M128 768h768v-85.333H128V768m0-170.667h768V512H128v85.333m0-170.666h768v-85.334H128v85.334M128 256h768v-85.333H128V256m0-170.667h768V0H128v85.333z"  horiz-adv-x="1024" />

    
    <glyph glyph-name="editor-align-left" unicode="&#58889;" d="M128 768h768v-85.333H128V768m0-170.667h512V512H128v85.333m0-170.666h768v-85.334H128v85.334M128 256h512v-85.333H128V256m0-170.667h768V0H128v85.333z"  horiz-adv-x="1024" />

    
    <glyph glyph-name="editor-link" unicode="&#58890;" d="M879.2 764.4c-103 95.5-264.1 88-361.4-11.2L474.7 712c-13.1-13.1-3.7-35.6 13.1-37.5 26.2-1.9 52.4-7.5 78.7-15 7.5-1.9 16.9 0 22.5 5.6l9.4 9.4c54.3 54.3 142.3 59.9 198.5 11.2 63.7-54.3 65.5-151.7 7.5-209.7L662 333.70000000000005c-18.7-18.7-41.2-30-63.7-37.5-30-7.5-61.8-5.6-89.9 5.6-16.9 7.5-33.7 16.9-48.7 31.8-7.5 7.5-13.1 15-18.7 24.3-7.5 13.1-24.3 15-33.7 3.7l-52.4-52.4c-7.5-7.5-7.5-18.7-1.9-28.1 7.5-11.2 16.9-20.6 26.2-30 13.1-13.1 30-26.2 44.9-35.6 26.2-16.9 56.2-28.1 86.1-33.7 58.1-11.2 121.7-1.9 174.2 26.2 20.6 11.2 41.2 26.2 58.1 43.1l142.3 142.3c104.9 103.2 101.2 271.8-5.6 371zM534.7 92.10000000000002l-39.3 5.6s-26.2 5.6-39.3 11.2c-7.5 1.9-16.9 0-22.5-5.6l-9.4-9.4c-54.3-54.3-142.3-59.9-198.5-11.2-63.7 54.3-65.5 151.7-7.5 209.7l142.3 142.3c18.7 18.7 41.2 30 63.7 37.5 30 7.5 61.8 5.6 89.9-5.6 16.9-7.5 33.7-16.9 48.7-31.8 7.5-7.5 13.1-15 18.7-24.3 7.5-13.1 24.3-15 33.7-3.7l52.4 52.4c7.5 7.5 7.5 18.7 1.9 28.1-7.5 11.2-16.9 20.6-26.2 30-13.1 13.1-28.1 26.2-44.9 35.6-26.2 16.9-56.2 28.1-88 33.7-58.1 11.2-121.7 1.9-174.2-26.2-20.6-11.2-41.2-26.2-58.1-43.1L141.4 380.5c-99.3-99.3-106.7-260.3-11.2-361.4C229.5-89.5 398-91.39999999999998 501 11.600000000000023l46.8 46.8c13.1 9.4 3.7 31.9-13.1 33.7z"  horiz-adv-x="1024" />

    
    </font>
</defs>
</svg>
