<?xml version="1.0" encoding="utf-8"?>
<!-- Generator: Adobe Illustrator 23.0.2, SVG Export Plug-In . SVG Version: 6.00 Build 0)  -->
<svg version="1.1" id="图层_1" xmlns="http://www.w3.org/2000/svg" xmlns:xlink="http://www.w3.org/1999/xlink" x="0px" y="0px"
	 viewBox="0 0 768 500" style="enable-background:new 0 0 768 500;" xml:space="preserve">
<style type="text/css">
	.st0{fill:#D40300;}
	.st1{clip-path:url(#SVGID_2_);}
	.st2{clip-path:url(#SVGID_4_);enable-background:new    ;}
	.st3{clip-path:url(#SVGID_6_);}
	.st4{clip-path:url(#SVGID_8_);}
	.st5{clip-path:url(#SVGID_10_);fill:#FFFFFF;}
	.st6{clip-path:url(#SVGID_12_);}
	.st7{clip-path:url(#SVGID_14_);enable-background:new    ;}
	.st8{clip-path:url(#SVGID_16_);}
	.st9{clip-path:url(#SVGID_18_);}
	.st10{clip-path:url(#SVGID_20_);fill:#FFFFFF;}
	.st11{clip-path:url(#SVGID_22_);}
	.st12{clip-path:url(#SVGID_24_);fill:#FFFFFF;}
	.st13{clip-path:url(#SVGID_26_);}
	.st14{clip-path:url(#SVGID_28_);fill:#FFFFFF;}
	.st15{clip-path:url(#SVGID_30_);}
	.st16{clip-path:url(#SVGID_32_);fill:#FFFFFF;}
</style>
<g>
	<path class="st0" d="M244.81,330.68H128.87c-19.62,0-35.53-15.91-35.53-35.53V179.21c0-19.62,15.91-35.53,35.53-35.53h115.93
		c19.62,0,35.53,15.91,35.53,35.53v115.93C280.34,314.77,264.43,330.68,244.81,330.68z"/>
	<g>
		<g>
			<defs>
				<path id="SVGID_1_" d="M181.37,223.5l0.34,21.82c0.19,5.43-1.64,8.11-5.49,8.06c-3.85,0.17-5.93-2.35-6.22-7.56l-4.8,1.38
					c0.86,7.26,4.61,10.79,11.24,10.58c7.07,0,10.48-4.12,10.25-12.37l-0.34-21.98L181.37,223.5z"/>
			</defs>
			<use xlink:href="#SVGID_1_"  style="overflow:visible;fill-rule:evenodd;clip-rule:evenodd;fill:#FFFFFF;"/>
			<clipPath id="SVGID_2_">
				<use xlink:href="#SVGID_1_"  style="overflow:visible;"/>
			</clipPath>
			<g class="st1">
				<defs>
					<rect id="SVGID_3_" x="-2295.21" y="-438.84" width="3108.25" height="1699.18"/>
				</defs>
				<use xlink:href="#SVGID_3_"  style="overflow:visible;fill:#FFFFFF;"/>
				<clipPath id="SVGID_4_">
					<use xlink:href="#SVGID_3_"  style="overflow:visible;"/>
				</clipPath>
				<g class="st2">
					<g>
						<defs>
							<rect id="SVGID_5_" x="163.27" y="221.29" width="25.16" height="38.48"/>
						</defs>
						<use xlink:href="#SVGID_5_"  style="overflow:visible;fill:#FFFFFF;"/>
						<clipPath id="SVGID_6_">
							<use xlink:href="#SVGID_5_"  style="overflow:visible;"/>
						</clipPath>
						<g class="st3">
							<defs>
								
									<rect id="SVGID_7_" x="163.94" y="222.44" transform="matrix(0.9999 -0.0154 0.0154 0.9999 -3.6746 2.7284)" width="23.83" height="36.49"/>
							</defs>
							<use xlink:href="#SVGID_7_"  style="overflow:visible;fill-rule:evenodd;clip-rule:evenodd;fill:#FFFFFF;"/>
							<clipPath id="SVGID_8_">
								<use xlink:href="#SVGID_7_"  style="overflow:visible;"/>
							</clipPath>
							<g class="st4">
								<defs>
									<rect id="SVGID_9_" x="164.75" y="222.78" width="22.2" height="35.52"/>
								</defs>
								<use xlink:href="#SVGID_9_"  style="overflow:visible;fill:#FFFFFF;"/>
								<clipPath id="SVGID_10_">
									<use xlink:href="#SVGID_9_"  style="overflow:visible;"/>
								</clipPath>
								<rect x="156.26" y="214.86" class="st5" width="39.2" height="51.66"/>
							</g>
						</g>
					</g>
				</g>
			</g>
		</g>
		<g>
			<defs>
				<path id="SVGID_11_" d="M198.18,227.45l5.92-0.09c7.79,0.1,11.85,4.13,12.2,12.1c0.13,8.51-3.8,12.82-11.8,12.95l-5.92,0.09
					L198.18,227.45z M193.02,223.33l0.53,33.44l11.35-0.17c11.62,0.04,17.23-5.7,16.83-17.22c-0.39-10.77-6.23-16.17-17.53-16.22
					L193.02,223.33z"/>
			</defs>
			<use xlink:href="#SVGID_11_"  style="overflow:visible;fill-rule:evenodd;clip-rule:evenodd;fill:#FFFFFF;"/>
			<clipPath id="SVGID_12_">
				<use xlink:href="#SVGID_11_"  style="overflow:visible;"/>
			</clipPath>
			<g class="st6">
				<defs>
					<rect id="SVGID_13_" x="-2295.21" y="-438.84" width="3108.25" height="1699.18"/>
				</defs>
				<use xlink:href="#SVGID_13_"  style="overflow:visible;fill:#FFFFFF;"/>
				<clipPath id="SVGID_14_">
					<use xlink:href="#SVGID_13_"  style="overflow:visible;"/>
				</clipPath>
				<g class="st7">
					<g>
						<defs>
							<rect id="SVGID_15_" x="191.39" y="221.29" width="32.56" height="37"/>
						</defs>
						<use xlink:href="#SVGID_15_"  style="overflow:visible;fill:#FFFFFF;"/>
						<clipPath id="SVGID_16_">
							<use xlink:href="#SVGID_15_"  style="overflow:visible;"/>
						</clipPath>
						<g class="st8">
							<defs>
								
									<rect id="SVGID_17_" x="192.12" y="221.96" transform="matrix(0.9999 -0.0152 0.0152 0.9999 -3.6227 3.1829)" width="30.79" height="35.74"/>
							</defs>
							<use xlink:href="#SVGID_17_"  style="overflow:visible;fill-rule:evenodd;clip-rule:evenodd;fill:#FFFFFF;"/>
							<clipPath id="SVGID_18_">
								<use xlink:href="#SVGID_17_"  style="overflow:visible;"/>
							</clipPath>
							<g class="st9">
								<defs>
									<rect id="SVGID_19_" x="192.87" y="222.78" width="29.6" height="34.04"/>
								</defs>
								<use xlink:href="#SVGID_19_"  style="overflow:visible;fill:#FFFFFF;"/>
								<clipPath id="SVGID_20_">
									<use xlink:href="#SVGID_19_"  style="overflow:visible;"/>
								</clipPath>
								<rect x="184.44" y="214.33" class="st10" width="46.15" height="51.01"/>
							</g>
						</g>
					</g>
				</g>
			</g>
		</g>
		<g>
			<defs>
				<path id="SVGID_21_" d="M147.29,290.3l0.16-0.17c1.36-1.51,3.65-1.75,5.3-0.54c4.25,3.12,13.07,8.77,24.58,11.9
					c21.61,5.88,42.24,0.5,61.3-15.99c26.78-23.16,20.08-56.83,17.05-67.54c-0.55-1.95,0.5-4,2.41-4.72
					c2.17-0.82,4.59,0.38,5.22,2.6c1.37,4.8,3.32,13.43,3.35,23.77c0.06,20.93-7.83,38.84-22.83,51.82
					c-18.58,16.07-36.72,20.52-51.69,20.14c-6.39-0.16-12.2-1.2-17.22-2.59c-12.61-3.49-22.12-9.57-26.89-13.07
					c-1.87-1.38-2.13-4.06-0.57-5.78"/>
			</defs>
			<use xlink:href="#SVGID_21_"  style="overflow:visible;fill-rule:evenodd;clip-rule:evenodd;fill:#FFFFFF;"/>
			<clipPath id="SVGID_22_">
				<use xlink:href="#SVGID_21_"  style="overflow:visible;"/>
			</clipPath>
			<g class="st11">
				<defs>
					<rect id="SVGID_23_" x="-2295.21" y="-438.84" width="3108.25" height="1699.18"/>
				</defs>
				<use xlink:href="#SVGID_23_"  style="overflow:visible;fill:#FFFFFF;"/>
				<clipPath id="SVGID_24_">
					<use xlink:href="#SVGID_23_"  style="overflow:visible;"/>
				</clipPath>
				<rect x="139.03" y="205.57" class="st12" width="135.03" height="113.41"/>
			</g>
		</g>
		<g>
			<defs>
				<path id="SVGID_25_" d="M139.84,274.58c-11.59,6.75-18.02,9.22-21.47,10.07c-1.83,0.45-3.48-1.28-2.88-3.05
					c1.54-4.58,5.78-12.16,10.83-18.97l1.09-1.47l-0.43-1.77c-12.86-53.48,17.68-74.8,31.41-81.48c24.25-11.8,54.61-8.71,69.81,6.56
					c1.43,1.43,3.71,1.57,5.29,0.3l0,0c1.82-1.45,1.99-4.15,0.36-5.81c-17.68-17.84-51.32-21.56-78.94-8.11
					c-14.66,7.14-25.84,18.38-32.33,32.53c-7.29,15.89-8.54,34.75-3.71,56.07c-1.49,2.12-4.29,6.24-6.78,10.74
					c-3.58,6.47-7.76,15.62-2.79,20.46c1.52,1.47,3.55,2.22,6.2,2.22c5.51,0,13.72-3.24,25.62-9.97c6.92-3.91,15.1-9.04,24.49-15.34
					l-4.65-6.36C153.02,266.54,145.96,271.02,139.84,274.58"/>
			</defs>
			<use xlink:href="#SVGID_25_"  style="overflow:visible;fill-rule:evenodd;clip-rule:evenodd;fill:#FFFFFF;"/>
			<clipPath id="SVGID_26_">
				<use xlink:href="#SVGID_25_"  style="overflow:visible;"/>
			</clipPath>
			<g class="st13">
				<defs>
					<rect id="SVGID_27_" x="-2295.21" y="-438.84" width="3108.25" height="1699.18"/>
				</defs>
				<use xlink:href="#SVGID_27_"  style="overflow:visible;fill:#FFFFFF;"/>
				<clipPath id="SVGID_28_">
					<use xlink:href="#SVGID_27_"  style="overflow:visible;"/>
				</clipPath>
				<rect x="99.62" y="155.37" class="st14" width="142.76" height="144.92"/>
			</g>
		</g>
		<g>
			<defs>
				<path id="SVGID_29_" d="M246.38,206.02c20.76-19.5,21.33-26.45,19.16-30.67c-2.57-4.99-9.51-5.75-22.92-2.39
					c-2.17,0.54-3.46,2.75-2.85,4.89c0.59,2.05,2.71,3.25,4.79,2.73c5.72-1.43,9.21-1.81,11.28-1.81c1.41,0,2.3,1.49,1.64,2.72
					c-1.62,3.05-5.97,9.03-17.63,19.86c-5.48,5.09-11.06,9.83-15.03,13.12l5.32,5.83C234.44,216.72,240.46,211.58,246.38,206.02"/>
			</defs>
			<use xlink:href="#SVGID_29_"  style="overflow:visible;fill-rule:evenodd;clip-rule:evenodd;fill:#FFFFFF;"/>
			<clipPath id="SVGID_30_">
				<use xlink:href="#SVGID_29_"  style="overflow:visible;"/>
			</clipPath>
			<g class="st15">
				<defs>
					<rect id="SVGID_31_" x="-2295.21" y="-438.84" width="3108.25" height="1699.18"/>
				</defs>
				<use xlink:href="#SVGID_31_"  style="overflow:visible;fill:#FFFFFF;"/>
				<clipPath id="SVGID_32_">
					<use xlink:href="#SVGID_31_"  style="overflow:visible;"/>
				</clipPath>
				<rect x="217.42" y="163.51" class="st16" width="56.37" height="64.17"/>
			</g>
		</g>
	</g>
	<g>
		<path class="st0" d="M396.95,229.51c-2.22,5.97-5.12,11.57-8.72,16.8l2.3,2.06c3.38-1.8,6.26-4.2,8.64-7.21
			c2.38-3.27,4.22-6.81,5.55-10.62L396.95,229.51z"/>
		<path class="st0" d="M451.22,252.72c1.11,0,2.11-0.37,3.01-1.11c0.95-0.95,1.43-2.06,1.43-3.33v-33.67h7.29v-6.58h-23.37v-14.66
			c3.59,0.48,7.21,0.42,10.86-0.16c3.75-0.58,7.39-1.56,10.93-2.93l-2.93-6.58c-3.91,1.32-7.9,2.38-11.96,3.17
			c-5.18,1.06-10.41,1.82-15.69,2.3v24.48c0.05,5.34-0.21,10.62-0.79,15.85c-0.37,3.54-1.14,6.97-2.3,10.3
			c-2.54-3.54-5.02-7.13-7.45-10.78l-5.7,3.01v-4.6h13.31v-6.18h-13.31v-7.92h14.02v-6.18h-11.17c1.11-1.16,2.11-2.46,3.01-3.88
			c1.11-1.9,2.11-3.91,3.01-6.02l-7.76-1.03c-1.48,3.75-3.09,7.4-4.83,10.93h-4.2l1.51-0.95l-4.99-10.7l-7.21,1.58
			c0.69,2.17,1.69,4.15,3.01,5.94c1.48,1.69,3.22,3.06,5.23,4.12h-13.55v6.18h15.13v7.92h-14.18v6.18h14.18v14.26
			c0.05,1.22-0.19,2.38-0.71,3.49c-0.69,0.74-1.58,1.06-2.69,0.95l-3.09-0.4v3.33c0.9,0.95,1.9,1.8,3.01,2.54
			c0.79,0.42,1.66,0.66,2.61,0.71c1.64,0,3.27-0.16,4.91-0.48c1.11-0.21,2.11-0.66,3.01-1.35c0.53-0.58,0.92-1.22,1.19-1.9
			c0.37-1.27,0.55-2.56,0.55-3.88v-11.49c2.69,4.7,6.52,8.19,11.49,10.46c-1.48,2.75-3.2,5.39-5.15,7.92l3.09,2.14
			c2.48-1.96,4.81-4.09,6.97-6.42c2.38-2.59,4.25-5.52,5.63-8.79c1.21-3.38,2.03-6.87,2.46-10.46c0.37-4.49,0.55-8.98,0.55-13.47
			h7.21v38.11H451.22z"/>
		<path class="st0" d="M347.03,238.14h23.45c1.32,0.05,2.64-0.08,3.96-0.4c1-0.26,1.93-0.69,2.77-1.27c1.27-1.16,1.9-2.64,1.9-4.44
			v-17.04h-32.09V238.14z M355.43,221.11h14.98v10.93h-14.98V221.11z"/>
		<path class="st0" d="M315.5,218.49c0.05,5.76-0.34,11.49-1.19,17.19c-1.06,5.49-2.83,10.72-5.31,15.69l2.77,1.51
			c1.95-2.06,3.75-4.23,5.39-6.5c1.21-1.69,2.27-3.51,3.17-5.47c1.95,3.43,4.7,5.99,8.24,7.69c2.17,1,4.41,1.66,6.73,1.98
			c2.9,0.42,5.84,0.63,8.79,0.63h38.51l1.82-6.58h-39.3c-3.22,0.11-6.37-0.18-9.43-0.87v-12.6h8.16v-6.26h-8.16v-10.78h7.53v-6.26
			h-9.27v-10.06h9.19v-6.26h-9.19v-9.27h-8.87v9.27h-10.46v6.26h10.46v10.06h-13.07v6.26h14.97v24.8c-2.01-2.32-3.33-4.99-3.96-8
			c0.42-4.12,0.63-8.27,0.63-12.44H315.5z"/>
		<path class="st0" d="M427.29,189.41h-11.89l-3.8-8.87l-8.32,1.51c0.53,1.69,1.24,3.28,2.14,4.75c0.69,1,1.51,1.88,2.46,2.61
			h-15.13v6.1h10.38h24.17V189.41z"/>
		<path class="st0" d="M661.35,197.42l2.06-2.85c-3.75-3.64-7.45-7.34-11.09-11.09l-5.15,3.8
			C650.97,191.92,655.7,195.31,661.35,197.42z"/>
		<path class="st0" d="M679.97,233.94c0.74-0.9,1.11-1.93,1.11-3.09V189.1h-8.87v46.19h4.44
			C677.91,235.34,679.02,234.89,679.97,233.94z"/>
		<path class="st0" d="M592.97,253.12h4.83c1.16,0,2.19-0.4,3.09-1.19c0.95-1.06,1.43-2.27,1.43-3.64l0.08-32.96h18.94v-7.21h-18.86
			l0.08-26.15h-9.59v26.15h-18.54v7.21h18.54V253.12z"/>
		<path class="st0" d="M627.91,246.62c5.49-2.17,10.7-4.91,15.61-8.24c0.79,2.17,1.82,4.17,3.09,6.02c1.37,2.27,3.09,4.28,5.15,6.02
			c1.8,1.32,3.8,1.98,6.02,1.98c0.9-0.05,1.77-0.24,2.61-0.55c1.16-0.58,2.19-1.37,3.09-2.38c1.21-1.37,2.27-2.8,3.17-4.28
			c1.27-2.17,2.46-4.38,3.57-6.66h-4.2c-1.11,1.74-2.43,3.28-3.96,4.6c-0.95,0.85-2.03,1.27-3.25,1.27
			c-0.85-0.05-1.61-0.34-2.3-0.87c-0.9-0.69-1.64-1.56-2.22-2.61c-1.64-2.48-2.88-5.18-3.72-8.08c2.9-2.69,5.57-5.6,8-8.72
			c2.85-3.75,5.47-7.66,7.84-11.73l-7.53-3.49c-2.85,5.55-6.29,10.64-10.3,15.29c-0.95-5.44-1.58-10.93-1.9-16.48l22.34-3.72
			l-1.27-6.58l-21.55,3.57c-0.05-0.9-0.08-1.82-0.08-2.77c-0.27-5.33-0.45-10.72-0.55-16.16h-9.27c0.1,5.23,0.34,10.41,0.71,15.53
			l0.24,4.83l-9.51,1.58l1.27,6.66l8.8-1.43c0.53,7.55,1.69,15,3.49,22.34c-4.7,4.17-9.75,7.79-15.13,10.86L627.91,246.62z"/>
		<path class="st0" d="M343.55,210.97l2.14,3.25c2.17-1.37,4.25-2.93,6.26-4.67c1.53-1.43,2.96-2.96,4.28-4.6
			c2.8-3.86,4.52-8.16,5.15-12.91h9.27c-0.16,2.33-0.24,4.65-0.24,6.97c-0.05,0.95-0.19,1.88-0.4,2.77
			c-0.21,0.63-0.55,1.16-1.03,1.58c-0.42,0.32-0.87,0.55-1.35,0.71c-0.9,0.21-1.8,0.29-2.69,0.24l-4.2-0.4v3.17
			c1.27,1.11,2.69,1.95,4.28,2.54c1.21,0.48,2.48,0.69,3.8,0.63c1.64,0.05,3.27-0.08,4.91-0.4c1.16-0.26,2.19-0.79,3.09-1.58
			c0.58-0.63,1.03-1.37,1.35-2.22c0.47-1.53,0.77-3.12,0.87-4.75c0.42-5.18,0.79-10.38,1.11-15.61h-35.1v6.34h8.4
			c-0.53,3.59-1.58,7-3.17,10.22C348.59,205.63,346.34,208.54,343.55,210.97z"/>
		<path class="st0" d="M676.64,248.84c1.58,1.06,3.3,1.93,5.15,2.61c1.43,0.48,2.93,0.71,4.52,0.71c1.9,0,3.78-0.21,5.63-0.63
			c0.95-0.21,1.82-0.61,2.61-1.19c0.95-0.79,1.58-1.77,1.9-2.93c0.37-1.48,0.55-2.96,0.55-4.44v-60.85h-8.87v58.39
			c0,0.95-0.08,1.88-0.24,2.77c-0.05,0.58-0.27,1.11-0.63,1.58c-0.32,0.26-0.69,0.48-1.11,0.63c-0.74,0.21-1.51,0.32-2.3,0.32
			l-7.21-0.4V248.84z"/>
		<path class="st0" d="M559.61,193.3c1,1.11,2.09,2.17,3.25,3.17c2.59,2.17,5.49,3.86,8.72,5.07l2.77-3.25
			c-2.17-2.59-4.25-5.23-6.26-7.92c-2.11-2.85-4.25-5.65-6.42-8.4l-7.61,4.36c0.26,0.42,0.55,0.85,0.87,1.27
			C556.47,189.55,558.03,191.45,559.61,193.3z"/>
		<path class="st0" d="M484.5,225.7h16.8v5.86h-20.44v5.86h20.44v6.89h-29.95v5.94h68.14v-5.94H511.2v-6.89h22.82v-5.86H511.2v-5.86
			h25.67v-6.1H511.2v-5.15h-9.9v5.15h-12.44c1.11-1.8,2.19-3.67,3.25-5.63l-8.64-1.43h40.65c1.43,0.05,2.85-0.08,4.28-0.4
			c1.11-0.21,2.11-0.61,3.01-1.19c1.43-1,2.14-2.38,2.14-4.12V184.9h-56.1v27.65h5.47c-1.9,3.86-4.04,7.53-6.42,11.01
			c-2.17,3.17-4.57,6.13-7.21,8.87l2.3,3.17C476.6,233.34,480.91,230.04,484.5,225.7z M486.88,190.52h37.24v5.31h-37.24V190.52z
			 M486.88,201.54h37.24v5.31h-37.24V201.54z"/>
		<path class="st0" d="M579.9,228.71l-11.49,8.56v-30.98h-19.49v7.05h9.59v27.73c0,1-0.11,1.95-0.32,2.85
			c-0.32,0.85-0.82,1.53-1.51,2.06l6.1,5.15c6.39-5.97,12.86-11.88,19.41-17.75L579.9,228.71z"/>
		<path class="st0" d="M324.32,295.47c-1.53-0.61-3.02-1.07-4.47-1.38c-3.52-0.76-5.16-1.91-4.93-3.44c0.23-1.83,1.6-2.79,4.13-2.87
			c2.9,0,4.59,1.34,5.04,4.01l4.47-0.92c-0.84-4.51-4.09-6.72-9.74-6.65c-5.35,0.23-8.22,2.37-8.6,6.42
			c-0.23,3.44,2.06,5.69,6.88,6.76c1.15,0.23,2.37,0.57,3.67,1.03c2.6,0.76,3.82,1.95,3.67,3.55c-0.15,2.14-1.68,3.25-4.59,3.32
			c-3.52,0.08-5.54-1.68-6.08-5.27l-4.47,0.92c1.15,5.43,4.7,8.1,10.66,8.02c5.96-0.15,9.06-2.56,9.29-7.22
			C329.25,298.95,327.6,296.85,324.32,295.47z"/>
		<path class="st0" d="M348.95,298.22c0,4.59-1.91,6.88-5.73,6.88c-3.9,0-5.85-2.25-5.85-6.76v-13.76h-4.59v13.64
			c0,7.18,3.4,10.78,10.2,10.78c7.03,0,10.55-3.63,10.55-10.89v-13.53h-4.59V298.22z"/>
		<path class="st0" d="M585.71,291.57c-0.23-4.51-3.13-6.84-8.71-6.99h-11v23.96h4.47v-9.74h4.24l6.65,9.74h5.73l-7.57-9.97
			C583.65,297.96,585.71,295.63,585.71,291.57z M570.46,295.36v-7.22h5.62c3.36,0,5,1.19,4.93,3.55c0.08,2.52-1.57,3.75-4.93,3.67
			H570.46z"/>
		<path class="st0" d="M553.75,284.58h-9.97v23.96h4.59v-8.83h5.04c6.11,0,9.17-2.6,9.17-7.79
			C562.27,287.18,559.33,284.74,553.75,284.58z M552.95,296.27h-4.59v-8.14h4.59c3.13,0.08,4.78,1.38,4.93,3.9
			C557.88,294.78,556.23,296.2,552.95,296.27z"/>
		<path class="st0" d="M600.02,284.24c-7.49,0.38-11.43,4.51-11.81,12.38c0.38,7.79,4.28,11.92,11.69,12.38
			c7.49-0.38,11.42-4.51,11.81-12.38C611.17,288.82,607.28,284.7,600.02,284.24z M599.79,305.1c-4.36-0.3-6.65-3.13-6.88-8.48
			c0.23-5.35,2.56-8.18,6.99-8.48c4.43,0.23,6.72,3.06,6.88,8.48C606.63,302.12,604.3,304.95,599.79,305.1z"/>
		<rect x="523.27" y="295.13" class="st0" width="16.62" height="2.98"/>
		<path class="st0" d="M667.48,305.1c-4.2-0.3-6.38-3.17-6.53-8.6c0.3-5.27,2.48-8.06,6.53-8.37c2.9,0.15,4.81,1.6,5.73,4.36
			l4.36-1.15c-1.6-4.59-4.97-6.95-10.09-7.11c-7.11,0.38-10.85,4.47-11.23,12.27c0.3,7.95,4.05,12.11,11.23,12.49
			c5.73-0.08,9.21-2.83,10.43-8.25l-4.47-1.38C672.83,303.19,670.84,305.1,667.48,305.1z"/>
		<path class="st0" d="M625.91,299.48c0.08,3.9-1.22,5.77-3.9,5.62c-2.52,0.08-3.86-1.68-4.01-5.27l-4.36,1.15
			c0.69,5.43,3.55,8.1,8.6,8.02c5.5,0.08,8.21-3.06,8.14-9.4v-15.02h-4.47V299.48z"/>
		<polygon class="st0" points="639.41,298.11 652.14,298.11 652.14,294.33 639.41,294.33 639.41,288.25 652.94,288.25 
			652.94,284.58 634.83,284.58 634.83,308.54 653.4,308.54 653.4,304.87 639.41,304.87 		"/>
		<path class="st0" d="M442.2,299.25c0,0.23,0.04,0.8,0.11,1.72c0,0.99,0,1.6,0,1.83h-0.11c0-0.08-0.27-0.61-0.8-1.6
			c-0.23-0.46-0.38-0.73-0.46-0.8c-0.23-0.38-3.52-5.65-9.86-15.82h-5.16v23.96h4.36V294.1c0-2.22-0.04-3.59-0.11-4.13h0.11
			c0.08,0.23,0.38,0.8,0.92,1.72c0.15,0.38,0.27,0.61,0.34,0.69c0.3,0.46,3.71,5.85,10.2,16.16h4.81v-23.96h-4.36V299.25z"/>
		<path class="st0" d="M507.24,284.58l-9.29,23.96h4.93l2.06-5.96h9.74l2.18,5.96h4.93l-9.29-23.96H507.24z M506.1,299.14
			c1.99-5.65,3.02-8.56,3.1-8.71c0.08-0.23,0.19-0.65,0.34-1.26c0.15-0.46,0.23-0.76,0.23-0.92h0.11c0.15,0.61,0.38,1.3,0.69,2.06
			c0.08,0.15,1.15,3.1,3.21,8.83H506.1z"/>
		<path class="st0" d="M422.16,291.57c-0.23-4.51-3.13-6.84-8.71-6.99h-11v23.96h4.47v-9.74h4.24l6.65,9.74h5.73l-7.57-9.97
			C420.09,297.96,422.16,295.63,422.16,291.57z M406.91,295.36v-7.22h5.62c3.36,0,5,1.19,4.93,3.55c0.08,2.52-1.57,3.75-4.93,3.67
			H406.91z"/>
		<polygon class="st0" points="384.69,298.11 397.41,298.11 397.41,294.33 384.69,294.33 384.69,288.25 398.22,288.25 
			398.22,284.58 380.1,284.58 380.1,308.54 398.68,308.54 398.68,304.87 384.69,304.87 		"/>
		<path class="st0" d="M367.97,284.58H358v23.96h4.59v-8.83h5.04c6.11,0,9.17-2.6,9.17-7.79
			C376.5,287.18,373.55,284.74,367.97,284.58z M367.17,296.27h-4.59v-8.14h4.59c3.13,0.08,4.78,1.38,4.93,3.9
			C372.1,294.78,370.46,296.2,367.17,296.27z"/>
		<path class="st0" d="M462,284.24c-7.49,0.38-11.43,4.51-11.81,12.38c0.38,7.79,4.28,11.92,11.69,12.38
			c7.49-0.38,11.42-4.51,11.81-12.38C473.16,288.82,469.26,284.7,462,284.24z M461.77,305.1c-4.36-0.3-6.65-3.13-6.88-8.48
			c0.23-5.35,2.56-8.18,6.99-8.48c4.43,0.23,6.72,3.06,6.88,8.48C468.61,302.12,466.28,304.95,461.77,305.1z"/>
		<path class="st0" d="M493.51,284.58l-5.96,17.42c-0.46,1.38-0.73,2.22-0.8,2.52h-0.11c0-0.38-0.27-1.18-0.8-2.41l-6.19-17.54
			h-4.93l9.29,23.96h5.16l9.29-23.96H493.51z"/>
		<polygon class="st0" points="679.34,284.58 679.34,288.25 687.36,288.25 687.36,308.54 691.95,308.54 691.95,288.25 
			699.86,288.25 699.86,284.58 		"/>
	</g>
</g>
</svg>
