<svg id="图层_1" data-name="图层 1" xmlns="http://www.w3.org/2000/svg" xmlns:xlink="http://www.w3.org/1999/xlink" viewBox="0 0 150 47"><defs><style>.cls-1{fill:none;}.cls-2{fill:#d40300;}.cls-3,.cls-5{fill:#fff;}.cls-3{fill-rule:evenodd;}.cls-4{clip-path:url(#clip-path);}.cls-6{clip-path:url(#clip-path-2);}.cls-7{isolation:isolate;}.cls-8{clip-path:url(#clip-path-3);}.cls-9{clip-path:url(#clip-path-4);}.cls-10{clip-path:url(#clip-path-5);}.cls-11{clip-path:url(#clip-path-6);}.cls-12{clip-path:url(#clip-path-8);}.cls-13{clip-path:url(#clip-path-9);}.cls-14{clip-path:url(#clip-path-10);}.cls-15{clip-path:url(#clip-path-11);}.cls-16{clip-path:url(#clip-path-13);}.cls-17{clip-path:url(#clip-path-15);}</style><clipPath id="clip-path"><path class="cls-1" d="M21.77,20.12l.09,5.39c0,1.35-.41,2-1.36,2S19,26.93,19,25.64L17.77,26c.21,1.79,1.14,2.67,2.78,2.61s2.59-1,2.54-3.05L23,20.1Z"/></clipPath><clipPath id="clip-path-2"><rect class="cls-1" x="-590.72" y="-143.69" width="768.71" height="420.23"/></clipPath><clipPath id="clip-path-3"><rect class="cls-1" x="17.29" y="19.57" width="6.22" height="9.52"/></clipPath><clipPath id="clip-path-4"><rect class="cls-1" x="17.46" y="19.85" width="5.89" height="9.02" transform="translate(-0.37 0.32) rotate(-0.88)"/></clipPath><clipPath id="clip-path-5"><rect class="cls-1" x="17.66" y="19.94" width="5.49" height="8.78"/></clipPath><clipPath id="clip-path-6"><path class="cls-1" d="M25.93,21.09l1.46,0a2.75,2.75,0,0,1,3,3c0,2.11-.94,3.17-2.92,3.21l-1.46,0Zm-1.28-1,.13,8.27,2.81,0q4.31,0,4.16-4.26c-.09-2.66-1.54-4-4.33-4Z"/></clipPath><clipPath id="clip-path-8"><rect class="cls-1" x="24.25" y="19.57" width="8.05" height="9.15"/></clipPath><clipPath id="clip-path-9"><rect class="cls-1" x="24.43" y="19.74" width="7.61" height="8.84" transform="translate(-0.36 0.43) rotate(-0.87)"/></clipPath><clipPath id="clip-path-10"><rect class="cls-1" x="24.62" y="19.94" width="7.32" height="8.42"/></clipPath><clipPath id="clip-path-11"><path class="cls-1" d="M13.34,36.64l0,0a1,1,0,0,1,1.31-.14,19,19,0,0,0,6.08,2.94c5.35,1.46,10.45.13,15.16-3.95,6.63-5.73,5-14.05,4.22-16.7a1,1,0,0,1,.59-1.17,1,1,0,0,1,1.3.64,22.24,22.24,0,0,1,.82,5.88,16.33,16.33,0,0,1-5.64,12.82c-4.6,4-9.08,5.07-12.79,5a17.75,17.75,0,0,1-4.25-.64A21,21,0,0,1,13.53,38a1,1,0,0,1-.15-1.42"/></clipPath><clipPath id="clip-path-13"><path class="cls-1" d="M11.5,32.75a22.38,22.38,0,0,1-5.31,2.49.59.59,0,0,1-.71-.75,20,20,0,0,1,2.68-4.7l.27-.36L8.32,29c-3.18-13.22,4.37-18.5,7.77-20.15,6-2.92,13.5-2.15,17.26,1.62a1,1,0,0,0,1.31.08h0a1,1,0,0,0,.09-1.44c-4.37-4.41-12.69-5.33-19.52-2a16.62,16.62,0,0,0-8,8C5.43,19.07,5.12,23.73,6.31,29a31,31,0,0,0-1.67,2.65c-.89,1.6-1.92,3.87-.69,5.06a2.07,2.07,0,0,0,1.53.55c1.36,0,3.39-.8,6.34-2.46q2.56-1.45,6.05-3.8l-1.15-1.57c-2,1.32-3.71,2.43-5.22,3.31"/></clipPath><clipPath id="clip-path-15"><path class="cls-1" d="M37.85,15.79C43,11,43.12,9.25,42.59,8.21,42,7,40.24,6.79,36.92,7.62a1,1,0,0,0-.71,1.21,1,1,0,0,0,1.19.67,12.38,12.38,0,0,1,2.79-.45.46.46,0,0,1,.4.68c-.4.75-1.47,2.23-4.36,4.91-1.35,1.26-2.73,2.43-3.71,3.24l1.31,1.45c1.07-.89,2.55-2.16,4-3.54"/></clipPath></defs><title>logo</title><path class="cls-2" d="M37.46,46.62H8.79A8.78,8.78,0,0,1,0,37.84V9.16A8.78,8.78,0,0,1,8.79.38H37.46a8.78,8.78,0,0,1,8.78,8.78V37.83A8.77,8.77,0,0,1,37.46,46.62Z"/><path id="SVGID" class="cls-3" d="M21.77,20.12l.09,5.39c0,1.35-.41,2-1.36,2S19,26.93,19,25.64L17.77,26c.21,1.79,1.14,2.67,2.78,2.61s2.59-1,2.54-3.05L23,20.1Z"/><g class="cls-4"><rect id="SVGID-2" data-name="SVGID" class="cls-5" x="-590.72" y="-143.69" width="768.71" height="420.23"/><g class="cls-6"><g class="cls-7"><rect id="SVGID-3" data-name="SVGID" class="cls-5" x="17.29" y="19.57" width="6.22" height="9.52"/><g class="cls-8"><rect id="SVGID-4" data-name="SVGID" class="cls-5" x="17.46" y="19.85" width="5.89" height="9.02" transform="translate(-0.37 0.32) rotate(-0.88)"/><g class="cls-9"><rect id="SVGID-5" data-name="SVGID" class="cls-5" x="17.66" y="19.94" width="5.49" height="8.78"/><g class="cls-10"><rect class="cls-5" x="15.56" y="17.98" width="9.69" height="12.78"/></g></g></g></g></g></g><path id="SVGID-6" data-name="SVGID" class="cls-3" d="M25.93,21.09l1.46,0a2.75,2.75,0,0,1,3,3c0,2.11-.94,3.17-2.92,3.21l-1.46,0Zm-1.28-1,.13,8.27,2.81,0q4.31,0,4.16-4.26c-.09-2.66-1.54-4-4.33-4Z"/><g class="cls-11"><rect id="SVGID-7" data-name="SVGID" class="cls-5" x="-590.72" y="-143.69" width="768.71" height="420.23"/><g class="cls-6"><g class="cls-7"><rect id="SVGID-8" data-name="SVGID" class="cls-5" x="24.25" y="19.57" width="8.05" height="9.15"/><g class="cls-12"><rect id="SVGID-9" data-name="SVGID" class="cls-5" x="24.43" y="19.74" width="7.61" height="8.84" transform="translate(-0.36 0.43) rotate(-0.87)"/><g class="cls-13"><rect id="SVGID-10" data-name="SVGID" class="cls-5" x="24.62" y="19.94" width="7.32" height="8.42"/><g class="cls-14"><rect class="cls-5" x="22.53" y="17.85" width="11.41" height="12.62"/></g></g></g></g></g></g><path id="SVGID-11" data-name="SVGID" class="cls-3" d="M13.34,36.64l0,0a1,1,0,0,1,1.31-.14,19,19,0,0,0,6.08,2.94c5.35,1.46,10.45.13,15.16-3.95,6.63-5.73,5-14.05,4.22-16.7a1,1,0,0,1,.59-1.17,1,1,0,0,1,1.3.64,22.24,22.24,0,0,1,.82,5.88,16.33,16.33,0,0,1-5.64,12.82c-4.6,4-9.08,5.07-12.79,5a17.75,17.75,0,0,1-4.25-.64A21,21,0,0,1,13.53,38a1,1,0,0,1-.15-1.42"/><g class="cls-15"><rect id="SVGID-12" data-name="SVGID" class="cls-5" x="-590.72" y="-143.69" width="768.71" height="420.23"/><g class="cls-6"><rect class="cls-5" x="11.3" y="15.68" width="33.39" height="28.05"/></g></g><path id="SVGID-13" data-name="SVGID" class="cls-3" d="M11.5,32.75a22.38,22.38,0,0,1-5.31,2.49.59.59,0,0,1-.71-.75,20,20,0,0,1,2.68-4.7l.27-.36L8.32,29c-3.18-13.22,4.37-18.5,7.77-20.15,6-2.92,13.5-2.15,17.26,1.62a1,1,0,0,0,1.31.08h0a1,1,0,0,0,.09-1.44c-4.37-4.41-12.69-5.33-19.52-2a16.62,16.62,0,0,0-8,8C5.43,19.07,5.12,23.73,6.31,29a31,31,0,0,0-1.67,2.65c-.89,1.6-1.92,3.87-.69,5.06a2.07,2.07,0,0,0,1.53.55c1.36,0,3.39-.8,6.34-2.46q2.56-1.45,6.05-3.8l-1.15-1.57c-2,1.32-3.71,2.43-5.22,3.31"/><g class="cls-16"><rect id="SVGID-14" data-name="SVGID" class="cls-5" x="-590.72" y="-143.69" width="768.71" height="420.23"/><g class="cls-6"><rect class="cls-5" x="1.55" y="3.27" width="35.31" height="35.84"/></g></g><path id="SVGID-15" data-name="SVGID" class="cls-3" d="M37.85,15.79C43,11,43.12,9.25,42.59,8.21,42,7,40.24,6.79,36.92,7.62a1,1,0,0,0-.71,1.21,1,1,0,0,0,1.19.67,12.38,12.38,0,0,1,2.79-.45.46.46,0,0,1,.4.68c-.4.75-1.47,2.23-4.36,4.91-1.35,1.26-2.73,2.43-3.71,3.24l1.31,1.45c1.07-.89,2.55-2.16,4-3.54"/><g class="cls-17"><rect id="SVGID-16" data-name="SVGID" class="cls-5" x="-590.72" y="-143.69" width="768.71" height="420.23"/><g class="cls-6"><rect class="cls-5" x="30.69" y="5.28" width="13.94" height="15.87"/></g></g><path class="cls-2" d="M75.09,21.6a19.11,19.11,0,0,1-2.16,4.16l.57.51a6.83,6.83,0,0,0,2.14-1.79A10.23,10.23,0,0,0,77,21.86Z"/><path class="cls-2" d="M88.51,27.34a1.15,1.15,0,0,0,.74-.27,1.12,1.12,0,0,0,.36-.82V17.92h1.8V16.29H85.63V12.67a9.71,9.71,0,0,0,2.69,0A13.49,13.49,0,0,0,91,11.9l-.73-1.63a22.9,22.9,0,0,1-3,.79,36.65,36.65,0,0,1-3.88.57v6a34,34,0,0,1-.2,3.92,11.08,11.08,0,0,1-.57,2.55c-.63-.88-1.24-1.77-1.84-2.67l-1.41.75V21.09h3.29V19.56H79.44v-2h3.47V16.07H80.14a5.49,5.49,0,0,0,.75-1,12.92,12.92,0,0,0,.74-1.49l-1.92-.25c-.36.93-.76,1.83-1.19,2.7h-1l.37-.23-1.23-2.65-1.78.39a4.84,4.84,0,0,0,.74,1.47,4.55,4.55,0,0,0,1.29,1H73.52V17.6h3.75v2H73.76v1.53h3.51v3.52a1.89,1.89,0,0,1-.18.87.76.76,0,0,1-.67.23l-.76-.1v.83a4.42,4.42,0,0,0,.74.62,1.47,1.47,0,0,0,.65.18,6.13,6.13,0,0,0,1.21-.12,1.7,1.7,0,0,0,.75-.33,1.46,1.46,0,0,0,.29-.47,3.54,3.54,0,0,0,.14-1V22.52a6.09,6.09,0,0,0,2.84,2.58,14.58,14.58,0,0,1-1.27,2l.76.53A15.23,15.23,0,0,0,83.5,26a7.59,7.59,0,0,0,1.39-2.17,12.05,12.05,0,0,0,.61-2.59c.09-1.11.13-2.22.13-3.33h1.79v9.43Z"/><path class="cls-2" d="M62.74,23.74h5.8a3.63,3.63,0,0,0,1-.1,2,2,0,0,0,.68-.32,1.38,1.38,0,0,0,.47-1.09V18H62.74v5.73Zm2.08-4.21h3.7v2.7h-3.7Z"/><path class="cls-2" d="M54.94,18.88a26.33,26.33,0,0,1-.29,4.25A15,15,0,0,1,53.34,27l.68.37a15.45,15.45,0,0,0,1.33-1.6,8.63,8.63,0,0,0,.79-1.36,4.52,4.52,0,0,0,2,1.9,5.76,5.76,0,0,0,1.66.49A14.31,14.31,0,0,0,62,27h9.53L72,25.34H62.27a9,9,0,0,1-2.33-.21V22h2V20.46h-2V17.8H61.8V16.25H59.51V13.76h2.27V12.21H59.51V9.92h-2.2v2.29H54.73v1.55h2.58v2.49H54.08V17.8h3.7v6.13a4.4,4.4,0,0,1-1-2A28.56,28.56,0,0,0,57,18.88Z"/><path class="cls-2" d="M82.59,11.69H79.65l-.94-2.2-2.06.38A5.38,5.38,0,0,0,77.18,11a2.7,2.7,0,0,0,.61.65H74.05v1.5h8.54v-1.5Z"/><path class="cls-2" d="M140.48,13.67,141,13c-.93-.9-1.85-1.81-2.75-2.74l-1.27.94A8.1,8.1,0,0,0,140.48,13.67Z"/><path class="cls-2" d="M145.08,22.7a1.2,1.2,0,0,0,.28-.77V11.61h-2.2V23h1.1A1.08,1.08,0,0,0,145.08,22.7Z"/><path class="cls-2" d="M123.56,27.44h1.2a1.13,1.13,0,0,0,.76-.29,1.29,1.29,0,0,0,.36-.9l0-8.15h4.68V16.31h-4.66l0-6.46h-2.38v6.46H119V18.1h4.58v9.34Z"/><path class="cls-2" d="M132.21,25.83a20,20,0,0,0,3.86-2,6.75,6.75,0,0,0,.76,1.49,6,6,0,0,0,1.27,1.48,2.44,2.44,0,0,0,1.49.49,2.35,2.35,0,0,0,.65-.13,2.55,2.55,0,0,0,.76-.59,7.88,7.88,0,0,0,.79-1.06c.31-.54.61-1.08.88-1.65h-1a4.89,4.89,0,0,1-1,1.14,1.16,1.16,0,0,1-.8.32,1.09,1.09,0,0,1-.57-.22,2,2,0,0,1-.55-.65,7.21,7.21,0,0,1-.92-2,18.37,18.37,0,0,0,2-2.16,29.88,29.88,0,0,0,1.94-2.9l-1.86-.86a19.58,19.58,0,0,1-2.55,3.78,34.9,34.9,0,0,1-.47-4.08l5.52-.92-.31-1.63-5.33.89c0-.23,0-.45,0-.69-.07-1.32-.11-2.65-.14-4h-2.29c0,1.29.08,2.57.18,3.84l.06,1.19-2.36.39.32,1.65,2.17-.35a33.37,33.37,0,0,0,.87,5.52,22.27,22.27,0,0,1-3.74,2.69Z"/><path class="cls-2" d="M61.88,17l.53.8A12.94,12.94,0,0,0,64,16.67,12.66,12.66,0,0,0,65,15.53a7,7,0,0,0,1.27-3.19h2.29c0,.57-.06,1.15-.06,1.72a3.1,3.1,0,0,1-.1.69.9.9,0,0,1-.25.39,1.15,1.15,0,0,1-.33.17,2.57,2.57,0,0,1-.67.06l-1-.1v.79a3.43,3.43,0,0,0,1.06.62,2.3,2.3,0,0,0,.94.16,5.45,5.45,0,0,0,1.21-.1,1.62,1.62,0,0,0,.77-.39,1.79,1.79,0,0,0,.33-.55,5.14,5.14,0,0,0,.22-1.17c.1-1.28.19-2.57.27-3.86H62.25v1.56h2.08a8.2,8.2,0,0,1-.79,2.53A6.79,6.79,0,0,1,61.88,17Z"/><path class="cls-2" d="M144.26,26.38a5.63,5.63,0,0,0,1.27.65,3.45,3.45,0,0,0,1.12.17,6.5,6.5,0,0,0,1.39-.15,1.61,1.61,0,0,0,.65-.3,1.4,1.4,0,0,0,.47-.72,4.59,4.59,0,0,0,.13-1.1v-15H147.1V24.32A3.85,3.85,0,0,1,147,25a.74.74,0,0,1-.16.39,1.2,1.2,0,0,1-.27.16,2.12,2.12,0,0,1-.57.07l-1.78-.09v.84Z"/><path class="cls-2" d="M115.31,12.65a10,10,0,0,0,.81.78,7.37,7.37,0,0,0,2.15,1.26l.69-.81c-.54-.64-1-1.29-1.55-2s-1-1.39-1.59-2.07l-1.88,1.07.22.32C114.54,11.72,114.92,12.19,115.31,12.65Z"/><path class="cls-2" d="M96.74,20.66h4.15v1.45h-5v1.45h5v1.7h-7.4v1.47h16.85V25.26h-7v-1.7H109V22.11h-5.65V20.66h6.35V19.15h-6.35V17.88h-2.45v1.27H97.82c.27-.44.54-.91.8-1.39l-2.14-.35h10.06a4.28,4.28,0,0,0,1.06-.1,1.93,1.93,0,0,0,.74-.3,1.18,1.18,0,0,0,.53-1V10.57H95v6.84h1.35a22.23,22.23,0,0,1-1.59,2.72A17.28,17.28,0,0,1,93,22.33l.57.78A8.85,8.85,0,0,0,96.74,20.66Zm.59-8.7h9.21v1.31H97.33Zm0,2.73h9.21V16H97.33Z"/><path class="cls-2" d="M120.33,21.41l-2.84,2.11V15.86h-4.82V17.6H115v6.86a2.76,2.76,0,0,1-.08.71,1.13,1.13,0,0,1-.37.51L116.1,27q2.37-2.22,4.8-4.39Z"/><path class="cls-2" d="M57.12,37.92a6.08,6.08,0,0,0-1.1-.35c-.87-.18-1.28-.47-1.22-.85s.4-.69,1-.71a1.12,1.12,0,0,1,1.25,1l1.1-.23c-.2-1.12-1-1.66-2.41-1.65s-2,.59-2.12,1.59.51,1.41,1.7,1.67a6.78,6.78,0,0,1,.91.26c.64.19.94.48.9.88s-.41.8-1.13.82A1.35,1.35,0,0,1,54.52,39l-1.11.23a2.35,2.35,0,0,0,2.64,2c1.47,0,2.24-.63,2.29-1.78A1.66,1.66,0,0,0,57.12,37.92Z"/><path class="cls-2" d="M63.22,38.6c0,1.13-.48,1.7-1.42,1.7s-1.45-.56-1.45-1.67V35.22H59.22V38.6c0,1.77.84,2.66,2.52,2.66s2.61-.9,2.61-2.69V35.22H63.21V38.6Z"/><path class="cls-2" d="M121.77,37c-.06-1.11-.77-1.69-2.15-1.73h-2.73v5.93H118V38.74h1l1.64,2.41h1.42l-1.87-2.47A1.58,1.58,0,0,0,121.77,37Zm-3.77.94V36.1h1.39c.83,0,1.23.3,1.22.88s-.39.93-1.22.91Z"/><path class="cls-2" d="M113.87,35.22H111.4v5.93h1.13V39h1.25c1.51,0,2.27-.64,2.27-1.92S115.25,35.26,113.87,35.22Zm-.2,2.89h-1.14v-2h1.14c.77,0,1.18.34,1.22,1S114.48,38.1,113.67,38.11Z"/><path class="cls-2" d="M125.31,35.14c-1.85.09-2.83,1.11-2.92,3.06a2.82,2.82,0,0,0,2.89,3.06c1.85-.09,2.82-1.11,2.92-3.06C128.07,36.27,127.1,35.25,125.31,35.14Zm-.06,5.16c-1.08-.08-1.64-.78-1.7-2.1s.63-2,1.73-2.1,1.66.76,1.7,2.1S126.37,40.26,125.25,40.3Z"/><rect class="cls-2" x="106.33" y="37.83" width="4.11" height="0.74"/><path class="cls-2" d="M142,40.3c-1-.08-1.58-.79-1.61-2.13s.61-2,1.61-2.07a1.47,1.47,0,0,1,1.42,1.08l1.08-.29a2.49,2.49,0,0,0-2.5-1.75c-1.76.09-2.68,1.1-2.78,3,.08,2,1,3,2.78,3.09a2.41,2.41,0,0,0,2.58-2l-1.1-.34C143.32,39.83,142.82,40.3,142,40.3Z"/><path class="cls-2" d="M131.71,38.91c0,1-.3,1.42-1,1.39s-1-.42-1-1.31l-1.07.29a1.94,1.94,0,0,0,2.12,2c1.36,0,2-.75,2-2.32V35.22h-1.11Z"/><polygon class="cls-2" points="135.05 38.57 138.2 38.57 138.2 37.63 135.05 37.63 135.05 36.13 138.4 36.13 138.4 35.22 133.92 35.22 133.92 41.15 138.51 41.15 138.51 40.24 135.05 40.24 135.05 38.57"/><path class="cls-2" d="M86.28,38.85c0,.06,0,.2,0,.43v.45h0a4,4,0,0,0-.2-.4.9.9,0,0,0-.11-.19l-2.44-3.92H82.25v5.93h1.08V37.58a9.72,9.72,0,0,0,0-1h0a3.61,3.61,0,0,0,.23.42.53.53,0,0,0,.08.17q.12.18,2.52,4h1.19V35.22H86.27v3.63Z"/><path class="cls-2" d="M102.36,35.22l-2.29,5.93h1.21l.51-1.48h2.41l.54,1.48H106l-2.3-5.93Zm-.28,3.6c.49-1.39.75-2.11.77-2.15s0-.16.08-.31a.94.94,0,0,0,.06-.23h0a2.76,2.76,0,0,0,.17.51s.28.77.79,2.18Z"/><path class="cls-2" d="M81.32,37c-.06-1.11-.77-1.69-2.15-1.73H76.45v5.93h1.1V38.74h1l1.65,2.41h1.41l-1.87-2.47A1.58,1.58,0,0,0,81.32,37Zm-3.77.94V36.1h1.39c.83,0,1.24.3,1.22.88s-.39.93-1.22.91Z"/><polygon class="cls-2" points="72.06 38.57 75.2 38.57 75.2 37.63 72.06 37.63 72.06 36.13 75.4 36.13 75.4 35.22 70.92 35.22 70.92 41.15 75.51 41.15 75.51 40.24 72.06 40.24 72.06 38.57"/><path class="cls-2" d="M67.92,35.22H65.45v5.93h1.14V39h1.25c1.51,0,2.26-.64,2.26-1.92S69.3,35.26,67.92,35.22Zm-.2,2.89H66.59v-2h1.13c.78,0,1.18.34,1.22,1S68.54,38.1,67.72,38.11Z"/><path class="cls-2" d="M91.17,35.14c-1.85.09-2.82,1.11-2.92,3.06.1,1.93,1.06,2.95,2.89,3.06C93,41.17,94,40.15,94.07,38.2,93.93,36.27,93,35.25,91.17,35.14Zm0,5.16c-1.08-.08-1.65-.78-1.7-2.1s.63-2,1.72-2.1,1.67.76,1.71,2.1S92.23,40.26,91.12,40.3Z"/><path class="cls-2" d="M99,35.22l-1.48,4.31c-.11.34-.18.55-.19.62h0a2.14,2.14,0,0,0-.2-.59l-1.53-4.34H94.32l2.3,5.93h1.27l2.3-5.93Z"/><polygon class="cls-2" points="144.93 35.22 144.93 36.13 146.91 36.13 146.91 41.15 148.04 41.15 148.04 36.13 150 36.13 150 35.22 144.93 35.22"/></svg>