<?xml version="1.0" encoding="utf-8"?>
<!-- Generator: Adobe Illustrator 23.0.2, SVG Export Plug-In . SVG Version: 6.00 Build 0)  -->
<svg version="1.1" id="图层_1" xmlns="http://www.w3.org/2000/svg" xmlns:xlink="http://www.w3.org/1999/xlink" x="0px" y="0px"
	 viewBox="0 0 477.5 632.7" style="enable-background:new 0 0 477.5 632.7;" xml:space="preserve">
<style type="text/css">
	.st0{fill:#D40300;}
	.st1{fill-rule:evenodd;clip-rule:evenodd;fill:#FFFFFF;}
	.st2{clip-path:url(#SVGID_2_);}
	.st3{fill:#FFFFFF;}
	.st4{clip-path:url(#SVGID_4_);}
	.st5{clip-path:url(#SVGID_6_);}
	.st6{clip-path:url(#SVGID_8_);}
	.st7{clip-path:url(#SVGID_10_);}
	.st8{clip-path:url(#SVGID_12_);}
	.st9{clip-path:url(#SVGID_14_);}
	.st10{clip-path:url(#SVGID_16_);}
	.st11{clip-path:url(#SVGID_18_);}
	.st12{clip-path:url(#SVGID_20_);}
	.st13{clip-path:url(#SVGID_22_);}
	.st14{clip-path:url(#SVGID_24_);}
	.st15{clip-path:url(#SVGID_26_);}
	.st16{clip-path:url(#SVGID_28_);}
	.st17{clip-path:url(#SVGID_30_);}
	.st18{clip-path:url(#SVGID_32_);}
</style>
<title>logo-shuban</title>
<path class="st0" d="M137.5,127.5H326c19.6,0,35.5,15.9,35.5,35.5v188.5c0,19.6-15.9,35.5-35.5,35.5H137.5
	c-19.6,0-35.5-15.9-35.5-35.5V163C101.9,143.4,117.8,127.5,137.5,127.5z"/>
<path class="st1" d="M221.3,236l0.5,30.3c0.3,7.5-2.3,11.3-7.6,11.2c-5.3,0.2-8.2-3.3-8.6-10.5l-6.6,1.9c1.2,10.1,6.4,15,15.6,14.7
	c9.8,0,14.5-5.7,14.2-17.2l-0.5-30.5L221.3,236z"/>
<g>
	<defs>
		<path id="SVGID_1_" d="M221.3,236l0.5,30.3c0.3,7.5-2.3,11.3-7.6,11.2c-5.3,0.2-8.2-3.3-8.6-10.5l-6.6,1.9
			c1.2,10.1,6.4,15,15.6,14.7c9.8,0,14.5-5.7,14.2-17.2l-0.5-30.5L221.3,236z"/>
	</defs>
	<clipPath id="SVGID_2_">
		<use xlink:href="#SVGID_1_"  style="overflow:visible;"/>
	</clipPath>
	<g class="st2">
		<rect x="-3214.5" y="-682.9" class="st3" width="4312.1" height="2357.3"/>
		<g>
			<defs>
				<rect id="SVGID_3_" x="-3214.5" y="-682.9" width="4312.1" height="2357.3"/>
			</defs>
			<clipPath id="SVGID_4_">
				<use xlink:href="#SVGID_3_"  style="overflow:visible;"/>
			</clipPath>
			<g class="st4">
				<g>
					<rect x="196.2" y="232.9" class="st3" width="34.9" height="53.4"/>
					<g>
						<defs>
							<rect id="SVGID_5_" x="196.2" y="232.9" width="34.9" height="53.4"/>
						</defs>
						<clipPath id="SVGID_6_">
							<use xlink:href="#SVGID_5_"  style="overflow:visible;"/>
						</clipPath>
						<g class="st5">
							
								<rect x="197.1" y="234.5" transform="matrix(0.9999 -1.535829e-02 1.535829e-02 0.9999 -3.9653 3.3119)" class="st3" width="33.1" height="50.6"/>
							<g>
								<defs>
									
										<rect id="SVGID_7_" x="197.1" y="234.5" transform="matrix(0.9999 -1.535829e-02 1.535829e-02 0.9999 -3.9653 3.3119)" width="33.1" height="50.6"/>
								</defs>
								<clipPath id="SVGID_8_">
									<use xlink:href="#SVGID_7_"  style="overflow:visible;"/>
								</clipPath>
								<g class="st6">
									<rect x="198.2" y="235" class="st3" width="30.8" height="49.3"/>
									<g>
										<defs>
											<rect id="SVGID_9_" x="198.2" y="235" width="30.8" height="49.3"/>
										</defs>
										<clipPath id="SVGID_10_">
											<use xlink:href="#SVGID_9_"  style="overflow:visible;"/>
										</clipPath>
										<g class="st7">
											<rect x="186.5" y="224" class="st3" width="54.4" height="71.7"/>
										</g>
									</g>
								</g>
							</g>
						</g>
					</g>
				</g>
			</g>
		</g>
	</g>
</g>
<path class="st1" d="M244.6,241.5l8.2-0.1c10.8,0.1,16.4,5.7,16.9,16.8c0.2,11.8-5.3,17.8-16.4,18l-8.2,0.1L244.6,241.5z
	 M237.5,235.8l0.7,46.4l15.7-0.2c16.1,0.1,23.9-7.9,23.4-23.9c-0.6-14.9-8.7-22.4-24.3-22.5L237.5,235.8z"/>
<g>
	<defs>
		<path id="SVGID_11_" d="M244.6,241.5l8.2-0.1c10.8,0.1,16.4,5.7,16.9,16.8c0.2,11.8-5.3,17.8-16.4,18l-8.2,0.1L244.6,241.5z
			 M237.5,235.8l0.7,46.4l15.7-0.2c16.1,0.1,23.9-7.9,23.4-23.9c-0.6-14.9-8.7-22.4-24.3-22.5L237.5,235.8z"/>
	</defs>
	<clipPath id="SVGID_12_">
		<use xlink:href="#SVGID_11_"  style="overflow:visible;"/>
	</clipPath>
	<g class="st8">
		<rect x="-3214.5" y="-682.9" class="st3" width="4312.1" height="2357.3"/>
		<g>
			<defs>
				<rect id="SVGID_13_" x="-3214.5" y="-682.9" width="4312.1" height="2357.3"/>
			</defs>
			<clipPath id="SVGID_14_">
				<use xlink:href="#SVGID_13_"  style="overflow:visible;"/>
			</clipPath>
			<g class="st9">
				<g>
					<rect x="235.2" y="232.9" class="st3" width="45.2" height="51.3"/>
					<g>
						<defs>
							<rect id="SVGID_15_" x="235.2" y="232.9" width="45.2" height="51.3"/>
						</defs>
						<clipPath id="SVGID_16_">
							<use xlink:href="#SVGID_15_"  style="overflow:visible;"/>
						</clipPath>
						<g class="st10">
							
								<rect x="236.2" y="233.9" transform="matrix(0.9999 -1.518378e-02 1.518378e-02 0.9999 -3.8976 3.9406)" class="st3" width="42.7" height="49.6"/>
							<g>
								<defs>
									
										<rect id="SVGID_17_" x="236.2" y="233.9" transform="matrix(0.9999 -1.518378e-02 1.518378e-02 0.9999 -3.8976 3.9406)" width="42.7" height="49.6"/>
								</defs>
								<clipPath id="SVGID_18_">
									<use xlink:href="#SVGID_17_"  style="overflow:visible;"/>
								</clipPath>
								<g class="st11">
									<rect x="237.2" y="235" class="st3" width="41.1" height="47.2"/>
									<g>
										<defs>
											<rect id="SVGID_19_" x="237.3" y="235" width="41.1" height="47.2"/>
										</defs>
										<clipPath id="SVGID_20_">
											<use xlink:href="#SVGID_19_"  style="overflow:visible;"/>
										</clipPath>
										<g class="st12">
											<rect x="225.6" y="223.3" class="st3" width="64" height="70.8"/>
										</g>
									</g>
								</g>
							</g>
						</g>
					</g>
				</g>
			</g>
		</g>
	</g>
</g>
<path class="st1" d="M174.1,328.7l0.2-0.2c1.9-2.1,5.1-2.4,7.4-0.8c10.3,7.5,21.8,13.1,34.1,16.5c30,8.1,58.6,0.7,85-22.2
	c37.1-32.1,27.9-78.9,23.7-93.7c-0.8-2.7,0.7-5.6,3.3-6.5c2.8-1.1,6,0.3,7.1,3.2c0.1,0.1,0.1,0.3,0.1,0.4c3,10.7,4.6,21.8,4.6,33
	c0.1,29-10.9,53.9-31.7,71.9c-25.8,22.3-50.9,28.5-71.7,28c-8.1-0.2-16.1-1.4-23.9-3.6c-13.4-3.8-26-9.9-37.3-18.2
	c-2.4-1.8-2.9-5.2-1.1-7.6c0.1-0.1,0.2-0.3,0.3-0.4"/>
<g>
	<defs>
		<path id="SVGID_21_" d="M174.1,328.7l0.2-0.2c1.9-2.1,5.1-2.4,7.4-0.8c10.3,7.5,21.8,13.1,34.1,16.5c30,8.1,58.6,0.7,85-22.2
			c37.1-32.1,27.9-78.9,23.7-93.7c-0.8-2.7,0.7-5.6,3.3-6.5c2.8-1.1,6,0.3,7.1,3.2c0.1,0.1,0.1,0.3,0.1,0.4c3,10.7,4.6,21.8,4.6,33
			c0.1,29-10.9,53.9-31.7,71.9c-25.8,22.3-50.9,28.5-71.7,28c-8.1-0.2-16.1-1.4-23.9-3.6c-13.4-3.8-26-9.9-37.3-18.2
			c-2.4-1.8-2.9-5.2-1.1-7.6c0.1-0.1,0.2-0.3,0.3-0.4"/>
	</defs>
	<clipPath id="SVGID_22_">
		<use xlink:href="#SVGID_21_"  style="overflow:visible;"/>
	</clipPath>
	<g class="st13">
		<rect x="-3214.5" y="-682.9" class="st3" width="4312.1" height="2357.3"/>
		<g>
			<defs>
				<rect id="SVGID_23_" x="-3214.5" y="-682.9" width="4312.1" height="2357.3"/>
			</defs>
			<clipPath id="SVGID_24_">
				<use xlink:href="#SVGID_23_"  style="overflow:visible;"/>
			</clipPath>
			<g class="st14">
				<rect x="162.6" y="211.1" class="st3" width="187.3" height="157.3"/>
			</g>
		</g>
	</g>
</g>
<path class="st1" d="M163.7,306.8c-16.1,9.4-25,12.8-29.8,14c-1.8,0.5-3.6-0.6-4.1-2.4c-0.2-0.6-0.1-1.3,0.1-1.9
	c2.1-6.4,8-16.9,15-26.3l1.5-2l-0.6-2.5c-17.8-74.2,24.5-103.8,43.6-113c33.7-16.4,75.8-12.1,96.8,9.1c2,2,5.1,2.2,7.3,0.4l0,0
	c2.3-1.9,2.7-5.3,0.8-7.6c-0.1-0.1-0.2-0.3-0.3-0.4c-24.5-24.8-71.2-29.9-109.5-11.3c-20.3,9.9-35.8,25.5-44.9,45.1
	c-10.1,22-11.8,48.2-5.1,77.8c-3.4,4.8-6.5,9.8-9.4,14.9c-5,9-10.8,21.7-3.9,28.4c2.1,2,4.9,3.1,8.6,3.1c7.6,0,19-4.5,35.5-13.8
	c9.6-5.4,20.9-12.5,34-21.3l-6.4-8.8c-11,7.4-20.8,13.6-29.3,18.5"/>
<g>
	<defs>
		<path id="SVGID_25_" d="M163.7,306.8c-16.1,9.4-25,12.8-29.8,14c-1.8,0.5-3.6-0.6-4.1-2.4c-0.2-0.6-0.1-1.3,0.1-1.9
			c2.1-6.4,8-16.9,15-26.3l1.5-2l-0.6-2.5c-17.8-74.2,24.5-103.8,43.6-113c33.7-16.4,75.8-12.1,96.8,9.1c2,2,5.1,2.2,7.3,0.4l0,0
			c2.3-1.9,2.7-5.3,0.8-7.6c-0.1-0.1-0.2-0.3-0.3-0.4c-24.5-24.8-71.2-29.9-109.5-11.3c-20.3,9.9-35.8,25.5-44.9,45.1
			c-10.1,22-11.8,48.2-5.1,77.8c-3.4,4.8-6.5,9.8-9.4,14.9c-5,9-10.8,21.7-3.9,28.4c2.1,2,4.9,3.1,8.6,3.1c7.6,0,19-4.5,35.5-13.8
			c9.6-5.4,20.9-12.5,34-21.3l-6.4-8.8c-11,7.4-20.8,13.6-29.3,18.5"/>
	</defs>
	<clipPath id="SVGID_26_">
		<use xlink:href="#SVGID_25_"  style="overflow:visible;"/>
	</clipPath>
	<g class="st15">
		<rect x="-3214.5" y="-682.9" class="st3" width="4312.1" height="2357.3"/>
		<g>
			<defs>
				<rect id="SVGID_27_" x="-3214.5" y="-682.9" width="4312.1" height="2357.3"/>
			</defs>
			<clipPath id="SVGID_28_">
				<use xlink:href="#SVGID_27_"  style="overflow:visible;"/>
			</clipPath>
			<g class="st16">
				<rect x="107.9" y="141.5" class="st3" width="198.1" height="201.1"/>
			</g>
		</g>
	</g>
</g>
<path class="st1" d="M311.5,211.7c28.8-27.1,29.6-36.7,26.6-42.6c-3.6-6.9-13.2-8-31.8-3.3c-2.9,0.7-4.7,3.7-3.9,6.6
	s3.7,4.7,6.6,3.9c7.9-2,12.8-2.5,15.7-2.5c1.4,0,2.6,1.1,2.6,2.6c0,0.4-0.1,0.8-0.3,1.2c-2.2,4.2-8.3,12.5-24.5,27.5
	c-7.6,7.1-15.3,13.6-20.9,18.2l7.4,8.1C295,226.6,303.3,219.4,311.5,211.7"/>
<g>
	<defs>
		<path id="SVGID_29_" d="M311.5,211.7c28.8-27.1,29.6-36.7,26.6-42.6c-3.6-6.9-13.2-8-31.8-3.3c-2.9,0.7-4.7,3.7-3.9,6.6
			s3.7,4.7,6.6,3.9c7.9-2,12.8-2.5,15.7-2.5c1.4,0,2.6,1.1,2.6,2.6c0,0.4-0.1,0.8-0.3,1.2c-2.2,4.2-8.3,12.5-24.5,27.5
			c-7.6,7.1-15.3,13.6-20.9,18.2l7.4,8.1C295,226.6,303.3,219.4,311.5,211.7"/>
	</defs>
	<clipPath id="SVGID_30_">
		<use xlink:href="#SVGID_29_"  style="overflow:visible;"/>
	</clipPath>
	<g class="st17">
		<rect x="-3214.5" y="-682.9" class="st3" width="4312.1" height="2357.3"/>
		<g>
			<defs>
				<rect id="SVGID_31_" x="-3214.5" y="-682.9" width="4312.1" height="2357.3"/>
			</defs>
			<clipPath id="SVGID_32_">
				<use xlink:href="#SVGID_31_"  style="overflow:visible;"/>
			</clipPath>
			<g class="st18">
				<rect x="271.3" y="152.8" class="st3" width="78.2" height="89"/>
			</g>
		</g>
	</g>
</g>
<path class="st0" d="M147.4,459c-1.7,4.5-3.9,8.9-6.7,12.8l1.8,1.6c2.6-1.4,4.8-3.2,6.6-5.5c1.8-2.5,3.2-5.2,4.2-8.1L147.4,459z"/>
<path class="st0" d="M188.9,476.8c1.8,0.1,3.3-1.4,3.4-3.2c0-0.1,0-0.1,0-0.2v-25.8h5.6v-5H180v-11.2c2.8,0.4,5.6,0.3,8.3-0.1
	c2.9-0.4,5.7-1.2,8.4-2.2l-2.2-5c-3,1-6,1.8-9.1,2.4c-4,0.8-8,1.4-12,1.8v18.7c0,4-0.2,8.1-0.6,12.1c-0.3,2.7-0.9,5.3-1.8,7.9
	c-1.9-2.7-3.8-5.5-5.7-8.2l-4.4,2.3v-3.5h10.2v-4.7h-10.2v-6.1h10.7V442h-8.5c0.9-0.9,1.6-1.9,2.3-3c0.9-1.5,1.6-3,2.3-4.6l-5.9-0.8
	c-1.1,2.9-2.4,5.7-3.7,8.4h-3.2l1.1-0.7l-3.8-8.2l-5.5,1.2c0.5,1.6,1.3,3.2,2.3,4.5c1.1,1.3,2.5,2.4,4,3.1h-10.4v4.7h11.6v6.1h-10.9
	v4.7h10.9v10.9c0,0.9-0.1,1.8-0.5,2.7c-0.5,0.6-1.3,0.8-2.1,0.7l-2.4-0.3v2.5c0.7,0.7,1.5,1.4,2.3,1.9c0.6,0.3,1.3,0.5,2,0.5
	c1.3,0,2.5-0.1,3.8-0.4c0.8-0.1,1.6-0.5,2.3-1c0.4-0.4,0.7-0.9,0.9-1.5c0.3-1,0.4-2,0.4-3v-8.8c2,3.5,5.1,6.3,8.8,8
	c-1.1,2.1-2.5,4.2-3.9,6.1l2.4,1.6c1.9-1.5,3.7-3.1,5.3-4.9c1.8-2,3.3-4.2,4.3-6.7c0.9-2.6,1.6-5.3,1.9-8c0.3-3.4,0.4-6.9,0.4-10.3
	h5.5v29.1H188.9z"/>
<path class="st0" d="M109.2,465.6h17.9c1,0,2-0.1,3-0.3c0.8-0.2,1.5-0.5,2.1-1c1-0.9,1.5-2.1,1.4-3.4v-13h-24.5V465.6z M115.6,452.6
	h11.5v8.4h-11.5V452.6z"/>
<path class="st0" d="M85.1,450.6c0,4.4-0.3,8.8-0.9,13.1c-0.8,4.2-2.2,8.2-4.1,12l2.1,1.2c1.5-1.6,2.9-3.2,4.1-5
	c0.9-1.3,1.7-2.7,2.4-4.2c1.4,2.6,3.6,4.6,6.3,5.9c1.6,0.8,3.4,1.3,5.2,1.5c2.2,0.3,4.5,0.5,6.7,0.5h29.4l1.4-5h-30.1
	c-2.4,0.1-4.8-0.1-7.2-0.7v-9.6h6.2v-4.8h-6.2v-8.2h5.8v-4.8h-7.1v-7.7h7V430h-7v-7.1h-6.8v7.1h-8v4.8h8v7.7h-10v4.8h11.4v19
	c-1.5-1.7-2.5-3.9-3-6.1c0.3-3.2,0.5-6.3,0.5-9.5L85.1,450.6z"/>
<path class="st0" d="M170.6,428.4h-9.1l-2.9-6.8l-6.4,1.1c0.4,1.3,0.9,2.5,1.6,3.6c0.5,0.8,1.2,1.4,1.9,2h-11.6v4.7h26.4V428.4z"/>
<path class="st0" d="M349.6,434.5l1.6-2.2c-2.9-2.8-5.7-5.6-8.5-8.5l-3.9,2.9C341.6,430.3,345.4,432.9,349.6,434.5z"/>
<path class="st0" d="M363.8,462.4c0.6-0.7,0.9-1.5,0.9-2.4v-31.9h-6.8v35.3h3.4C362.3,463.5,363.2,463.1,363.8,462.4z"/>
<path class="st0" d="M297.3,477.1h3.7c0.9,0,1.7-0.3,2.4-0.9c0.7-0.8,1.1-1.8,1.1-2.8l0.1-25.2h14.5v-5.5h-14.5l0.1-20h-7.3v20
	h-14.2v5.5h14.2L297.3,477.1z"/>
<path class="st0" d="M324.1,472.1c4.2-1.7,8.2-3.8,11.9-6.3c0.6,1.6,1.4,3.2,2.4,4.6c1.1,1.7,2.4,3.3,3.9,4.6c1.3,1,2.9,1.5,4.6,1.5
	c0.7,0,1.4-0.2,2-0.4c0.9-0.5,1.7-1.1,2.4-1.8c0.9-1,1.7-2.1,2.4-3.3c1-1.7,1.9-3.4,2.7-5.1h-3.2c-0.8,1.3-1.8,2.5-3,3.5
	c-0.7,0.6-1.6,1-2.5,1c-0.6,0-1.3-0.3-1.8-0.7c-0.7-0.5-1.3-1.2-1.7-2c-1.3-1.9-2.2-4-2.9-6.2c2.2-2.1,4.3-4.3,6.1-6.7
	c2.2-2.9,4.2-5.9,6-9l-5.8-2.7c-2.2,4.2-4.8,8.1-7.9,11.7c-0.7-4.2-1.2-8.4-1.5-12.6l17-2.8l-1-5l-16.4,2.7c0-0.7-0.1-1.4-0.1-2.1
	c-0.2-4.1-0.3-8.2-0.4-12.4h-7.1c0.1,4,0.3,8,0.5,11.9l0.2,3.7l-7.3,1.2l1,5.1l6.7-1.1c0.4,5.8,1.3,11.5,2.7,17.1
	c-3.6,3.2-7.4,5.9-11.6,8.3L324.1,472.1z"/>
<path class="st0" d="M106.6,444.8l1.6,2.5c1.7-1.1,3.3-2.3,4.8-3.6c1.2-1.1,2.3-2.3,3.3-3.5c2.1-2.9,3.5-6.3,3.9-9.9h7.1
	c-0.1,1.8-0.2,3.5-0.2,5.3c0,0.7-0.1,1.4-0.3,2.1c-0.1,0.5-0.4,0.9-0.8,1.2c-0.3,0.2-0.6,0.4-1,0.5c-0.7,0.2-1.4,0.2-2.1,0.2
	l-3.2-0.3v2.4c1,0.8,2.1,1.5,3.3,1.9c0.9,0.4,1.9,0.5,2.9,0.5c1.3,0,2.5-0.1,3.8-0.3c0.9-0.2,1.7-0.6,2.4-1.2c0.4-0.5,0.8-1.1,1-1.7
	c0.4-1.2,0.6-2.4,0.7-3.6c0.3-4,0.6-7.9,0.9-11.9h-26.8v4.9h6.4c-0.4,2.7-1.2,5.4-2.4,7.8C110.4,440.7,108.7,443,106.6,444.8z"/>
<path class="st0" d="M361.3,473.8c1.2,0.8,2.6,1.5,3.9,2c1.1,0.4,2.3,0.6,3.5,0.5c1.4,0,2.9-0.2,4.3-0.5c0.7-0.2,1.4-0.5,2-0.9
	c0.7-0.6,1.2-1.4,1.5-2.2c0.3-1.1,0.4-2.2,0.4-3.4v-46.5h-6.8v44.7c0,0.7-0.1,1.4-0.2,2.1c0,0.4-0.2,0.9-0.5,1.2
	c-0.3,0.2-0.5,0.4-0.8,0.5c-0.6,0.2-1.2,0.2-1.8,0.2l-5.5-0.3L361.3,473.8z"/>
<path class="st0" d="M271.8,431.3c0.8,0.9,1.6,1.7,2.5,2.4c2,1.7,4.2,3,6.7,3.9l2.1-2.5c-1.7-2-3.3-4-4.8-6.1
	c-1.6-2.2-3.2-4.3-4.9-6.4l-5.8,3.3c0.2,0.3,0.4,0.6,0.7,1C269.4,428.5,270.6,429.9,271.8,431.3z"/>
<path class="st0" d="M214.4,456.1h12.9v4.5h-15.6v4.5h15.6v5.3h-22.9v4.6h52.1v-4.5h-21.6v-5.3h17.5v-4.5h-17.5v-4.5h19.6v-4.7
	h-19.6v-3.9h-7.6v3.9h-9.5c0.9-1.4,1.7-2.8,2.5-4.3l-6.6-1.1h31.1c1.1,0,2.2-0.1,3.3-0.3c0.8-0.1,1.6-0.5,2.3-0.9
	c1.1-0.7,1.7-1.9,1.6-3.1v-16.8H209V446h4.2c-1.4,2.9-3.1,5.7-4.9,8.4c-1.6,2.4-3.5,4.7-5.5,6.8l1.8,2.4
	C208.3,461.9,211.7,459.4,214.4,456.1z M216.2,429.2h28.5v4.1h-28.5L216.2,429.2z M216.2,437.6h28.5v4.1h-28.5L216.2,437.6z"/>
<path class="st0" d="M287.3,458.4l-8.8,6.5v-23.7h-14.9v5.4h7.3v21.2c0,0.7-0.1,1.5-0.2,2.2c-0.2,0.6-0.6,1.2-1.1,1.6l4.7,3.9
	c4.9-4.6,9.8-9.1,14.8-13.6L287.3,458.4z"/>
<path class="st0" d="M91.9,509.5c-1.1-0.5-2.3-0.8-3.4-1c-2.7-0.6-3.9-1.5-3.8-2.6c0.2-1.4,1.2-2.1,3.2-2.2c2.2,0,3.5,1,3.8,3.1
	l3.4-0.7c-0.7-3.5-3.1-5.1-7.4-5.1c-4.1,0.2-6.3,1.8-6.6,4.9c-0.2,2.6,1.6,4.3,5.3,5.2c1,0.2,1.9,0.5,2.8,0.8c2,0.6,2.9,1.5,2.8,2.7
	c-0.1,1.6-1.3,2.5-3.5,2.5c-2.7,0.1-4.2-1.3-4.7-4l-3.4,0.7c0.9,4.2,3.6,6.2,8.2,6.1c4.6-0.1,6.9-1.9,7.1-5.5
	C95.6,512.1,94.4,510.5,91.9,509.5z"/>
<path class="st0" d="M110.7,511.6c0,3.5-1.5,5.3-4.4,5.3c-2.9,0-4.4-1.7-4.5-5.2v-10.5h-3.5v10.4c0,5.5,2.6,8.2,7.8,8.2
	c5.4,0,8.1-2.8,8.1-8.3v-10.3h-3.5V511.6z"/>
<path class="st0" d="M291.8,506.5c-0.2-3.5-2.4-5.2-6.7-5.3h-8.4v18.3h3.4V512h3.2l5.1,7.5h4.4l-5.7-7.6
	C290.2,511.4,291.8,509.6,291.8,506.5z M280.1,509.4v-5.5h4.3c2.6,0,3.8,0.9,3.8,2.7c0.1,1.9-1.2,2.9-3.8,2.8H280.1z"/>
<path class="st0" d="M267.3,501.1h-7.6v18.4h3.5v-6.8h3.9c4.7,0,7-2,7-6C273.8,503.1,271.6,501.3,267.3,501.1z M266.7,510.1h-3.5
	v-6.2h3.5c2.4,0.1,3.6,1.1,3.8,3C270.5,508.9,269.2,510,266.7,510.1L266.7,510.1z"/>
<path class="st0" d="M302.7,500.9c-5.7,0.3-8.7,3.4-9,9.5c0.3,6,3.3,9.2,8.9,9.5c5.7-0.3,8.7-3.4,9-9.5
	C311.2,504.4,308.3,501.2,302.7,500.9z M302.5,516.9c-3.3-0.2-5.1-2.4-5.3-6.5c0.2-4.1,2-6.3,5.4-6.5c3.4,0.2,5.1,2.3,5.3,6.5
	C307.8,514.5,306,516.7,302.5,516.9L302.5,516.9z"/>
<rect x="244" y="509.2" class="st0" width="12.7" height="2.3"/>
<path class="st0" d="M354.3,516.8c-3.2-0.2-4.9-2.4-5-6.6c0.2-4,1.9-6.2,5-6.4c2,0,3.9,1.4,4.4,3.3l3.3-0.9
	c-1.2-3.5-3.8-5.3-7.7-5.4c-5.4,0.3-8.3,3.4-8.6,9.4c0.2,6.1,3.1,9.3,8.6,9.5c4.4-0.1,7-2.2,8-6.3l-3.4-1
	C358.4,515.4,356.9,516.8,354.3,516.8z"/>
<path class="st0" d="M322.5,512.5c0.1,3-0.9,4.4-3,4.3c-1.9,0.1-3-1.3-3.1-4l-3.3,0.9c0.5,4.2,2.7,6.2,6.6,6.1
	c4.2,0.1,6.3-2.3,6.2-7.2v-11.5h-3.4L322.5,512.5z"/>
<polygon class="st0" points="332.8,511.5 342.6,511.5 342.6,508.6 332.8,508.6 332.8,503.9 343.2,503.9 343.2,501.1 329.3,501.1 
	329.3,519.5 343.5,519.5 343.5,516.6 332.8,516.6 "/>
<path class="st0" d="M182.1,512.4c0,0.2,0,0.6,0.1,1.3v1.4h-0.1c-0.2-0.4-0.4-0.8-0.6-1.2c-0.1-0.2-0.2-0.4-0.4-0.6
	c-0.2-0.3-2.7-4.3-7.5-12.1h-4v18.4h3.3v-11c0-1.1,0-2.1-0.1-3.2h0.1c0.2,0.5,0.4,0.9,0.7,1.3c0.1,0.2,0.2,0.4,0.3,0.5
	c0.2,0.3,2.8,4.5,7.8,12.4h3.7v-18.4h-3.3V512.4z"/>
<path class="st0" d="M231.7,501.1l-7.1,18.4h3.8l1.6-4.6h7.5l1.7,4.6h3.8l-7.1-18.3L231.7,501.1z M230.9,512.3
	c1.5-4.3,2.3-6.5,2.4-6.7s0.1-0.5,0.3-1c0.1-0.2,0.1-0.5,0.2-0.7h0.1c0.1,0.5,0.3,1.1,0.5,1.6c0.1,0.1,0.9,2.4,2.5,6.8L230.9,512.3z
	"/>
<path class="st0" d="M166.7,506.5c-0.2-3.5-2.4-5.2-6.7-5.3h-8.4v18.3h3.5V512h3.2l5.1,7.5h4.4l-5.8-7.6
	C165.1,511.4,166.7,509.6,166.7,506.5z M155.1,509.4v-5.5h4.3c2.6,0,3.8,0.9,3.8,2.7c0.1,1.9-1.2,2.9-3.8,2.8H155.1z"/>
<polygon class="st0" points="138,511.5 147.8,511.5 147.8,508.6 138,508.6 138,503.9 148.4,503.9 148.4,501.1 134.5,501.1 
	134.5,519.5 148.7,519.5 148.7,516.6 138,516.6 "/>
<path class="st0" d="M125.2,501.1h-7.6v18.4h3.5v-6.8h3.9c4.7,0,7-2,7-6C131.7,503.1,129.5,501.3,125.2,501.1z M124.6,510.1h-3.5
	v-6.2h3.5c2.4,0.1,3.6,1,3.8,3C128.4,508.9,127.1,510,124.6,510.1z"/>
<path class="st0" d="M197.2,500.9c-5.7,0.3-8.7,3.4-9,9.5c0.3,6,3.3,9.2,8.9,9.5c5.7-0.3,8.7-3.4,9-9.5
	C205.7,504.4,202.7,501.2,197.2,500.9z M197,516.9c-3.3-0.2-5.1-2.4-5.3-6.5c0.2-4.1,2-6.3,5.4-6.5c3.4,0.2,5.1,2.3,5.3,6.5
	C202.2,514.5,200.4,516.7,197,516.9L197,516.9z"/>
<path class="st0" d="M221.2,501.1l-4.6,13.4c-0.4,1.1-0.6,1.7-0.6,1.9H216c-0.1-0.6-0.3-1.3-0.6-1.8l-4.7-13.4h-3.8l7.1,18.3h4
	l7.1-18.3L221.2,501.1z"/>
<polygon class="st0" points="363.4,501.1 363.4,503.9 369.5,503.9 369.5,519.5 373,519.5 373,503.9 379.1,503.9 379.1,501.1 "/>
</svg>
