<svg width="85" height="16" viewBox="0 0 85 16" fill="none" xmlns="http://www.w3.org/2000/svg">
<path d="M51.5672 7.98412C51.5672 6.30165 51.0635 5.01713 50.061 4.13559C49.1996 3.39007 48.1166 3.01227 46.812 3.01227C45.1799 3.01227 43.9054 3.4757 42.9886 4.40257C42.1373 5.26395 41.7142 6.36209 41.7142 7.69699C41.7142 9.03188 42.1373 10.1351 42.9886 10.9914C43.9054 11.9183 45.1799 12.3817 46.812 12.3817C47.759 12.3817 48.6254 12.155 49.4112 11.6966C50.3028 11.1728 50.9476 10.4121 51.3405 9.41976H49.5623C49.0838 10.4575 48.1368 10.9763 46.7314 10.9763C45.9254 10.9763 45.2151 10.7345 44.6006 10.256C43.9306 9.74215 43.5629 9.05707 43.4923 8.19569H51.5722V7.97908L51.5672 7.98412ZM44.6459 5.07254C45.2252 4.63933 45.9203 4.41769 46.7263 4.41769C47.5323 4.41769 48.2123 4.63429 48.7715 5.07254C49.3306 5.50575 49.6732 6.11527 49.7941 6.89605H43.5427C43.6636 6.13542 44.0364 5.53093 44.6509 5.07254H44.6459Z" fill="#B3B3B3"/>
<path fill-rule="evenodd" clip-rule="evenodd" d="M57.7631 5.44535L59.7276 3.10299H61.7375L58.7655 6.64424L57.758 5.45039L57.7631 5.44535ZM51.1944 0.0201416H49.1845L55.7532 7.84312L49.2097 15.6057H51.2196L57.7631 7.84312L51.1944 0.0201416ZM61.6418 12.4976H59.6319L57.7631 10.251L58.7705 9.05712L61.6468 12.5027L61.6418 12.4976Z" fill="#B3B3B3"/>
<path fill-rule="evenodd" clip-rule="evenodd" d="M71.3032 8.40229L70.3764 6.88101H69.3639L70.2101 8.40229H71.3083H71.3032ZM68.1348 6.88101H67.1223L66.1954 8.35695H67.2079L68.1348 6.88101ZM76.9551 5.53101L75.857 3.20879H74.8495L75.8217 5.53101H76.9551ZM82.6876 9.24352H83.1964L84.1686 7.17318H83.1158L82.34 8.62897L81.6801 7.13288H80.577L83.4029 12.7092H84.4809L82.6876 9.24352ZM76.7889 8.10509L75.7764 5.90881H74.7689L75.7411 8.10509H76.7889ZM69.107 3.08286H67.9685L68.2657 3.8838H64.0898V4.68473H66.1148L66.6639 5.73754C66.6639 5.73754 65.8327 5.72242 65.3088 5.72242C64.7849 5.72242 64.3568 6.14556 64.3568 6.67448C64.3568 7.2034 64.3819 12.7042 64.3819 12.7042H65.3491C65.3491 12.7042 65.3491 6.91123 65.3491 6.78026C65.3491 6.64929 65.4549 6.54351 65.5859 6.54351H71.9581C72.0891 6.54351 72.1949 6.64929 72.1949 6.78026C72.1949 6.91123 72.1949 11.4448 72.1949 11.5758C72.1949 11.7068 72.0891 11.8126 71.9581 11.8126C71.8271 11.8126 70.5879 11.8126 70.5879 11.8126L70.8398 12.6135C70.8398 12.6135 71.6458 12.6135 72.1697 12.6135C72.6935 12.6135 73.1217 12.1904 73.1217 11.6614C73.1217 11.1325 73.1116 7.2034 73.1116 6.67448C73.1116 6.14556 72.6885 5.72242 72.1596 5.72242C71.6307 5.72242 70.8801 5.72242 70.8801 5.72242L71.4292 4.66962H73.4542V3.86868H69.4445L69.107 3.06775V3.08286ZM69.7417 5.74257H67.8426L67.2079 4.68977H70.2907L69.7417 5.74257ZM74.6329 12.7042H75.7311L76.8393 8.65415H75.7865L74.6329 12.7042ZM83.7102 3.25413C83.7102 3.25413 78.9046 3.89891 78.3807 3.96439C77.8619 4.02484 77.4891 4.49835 77.5495 5.02223C77.5495 5.32447 77.5495 6.49817 77.5495 7.43512C77.5495 7.7021 77.3984 9.68177 77.3581 9.95379C77.1818 11.1325 76.9451 12.7142 76.9451 12.7142H77.9576C77.9576 12.7142 78.1792 11.1325 78.3404 9.95379C78.3757 9.68681 78.5167 7.69202 78.5167 7.42504C78.5167 6.47802 78.5318 5.31944 78.5318 5.19854C78.4915 5.04238 78.5822 4.88119 78.7383 4.84089C78.8945 4.80059 83.9218 4.12055 83.9218 4.12055L83.7052 3.2642L83.7102 3.25413ZM70.9657 10.6086C70.9657 10.0848 70.9657 9.99912 70.9657 9.47524C70.9657 8.95136 70.5426 8.52318 70.0137 8.52318C69.4848 8.52318 67.9685 8.52822 67.4446 8.52822C66.9208 8.52822 66.4926 8.95136 66.4926 9.48028C66.4926 10.0092 66.4926 10.0898 66.4926 10.6137C66.4926 11.1376 66.9157 11.5657 67.4446 11.5657C67.9736 11.5657 69.4898 11.5607 70.0137 11.5607C70.5376 11.5607 70.9657 11.1376 70.9657 10.6086ZM70.0892 10.5633C70.0892 10.6943 69.9835 10.8001 69.8525 10.8001C69.7215 10.8001 67.7872 10.8051 67.6512 10.8051C67.5152 10.8051 67.4144 10.6993 67.4144 10.5683C67.4144 10.4374 67.4144 9.70696 67.4144 9.57599C67.4144 9.44502 67.5202 9.33923 67.6512 9.33923C67.7821 9.33923 69.7165 9.33419 69.8525 9.33419C69.9885 9.33419 70.0892 9.43998 70.0892 9.57095C70.0892 9.70192 70.0892 10.4323 70.0892 10.5633ZM80.1589 11.5859C80.1589 11.4549 80.1589 6.96161 80.1589 6.79538C80.1337 6.6644 80.3503 6.51832 80.3503 6.51832L83.9671 5.95414L83.7102 5.10787C83.7102 5.10787 80.4611 5.63175 79.9423 5.71235C79.4234 5.79295 79.0708 6.28157 79.1514 6.80041C79.1514 7.38474 79.1514 11.2282 79.1514 11.7521C79.1514 12.276 79.5796 12.7042 80.1035 12.7042C80.6273 12.7042 81.4283 12.7042 81.4283 12.7042L81.6399 11.8176C81.6399 11.8176 80.5417 11.8176 80.4107 11.8176C80.2798 11.8176 80.174 11.7118 80.174 11.5808L80.1589 11.5859Z" fill="#B3B3B3"/>
<path d="M11.445 0H9.86324V12.14H11.445L11.4601 6.83567C11.4601 5.04237 13.0166 4.50338 14.3767 4.50338C16.1448 4.50338 16.9961 5.54611 16.9961 6.84574V12.1349H18.5778V6.73492C18.5778 4.33211 16.9306 3.05262 14.3868 3.05262C12.6438 3.05262 11.7623 3.54125 11.3694 3.84349C11.3694 3.17352 11.4399 0 11.4399 0H11.445Z" fill="#B3B3B3"/>
<path d="M4.4933 12.3868C5.87857 12.3868 6.96159 12.1349 7.73734 11.6362C8.51309 11.1325 8.90096 10.3869 8.90096 9.39457C8.90096 8.11005 7.87839 7.3343 5.83323 7.06732L3.45057 6.74997C2.88135 6.67441 2.49348 6.54848 2.29199 6.38224C2.09049 6.21601 1.98975 5.97422 1.98975 5.6619C1.98975 4.7703 2.76046 4.32198 4.30188 4.32198C5.128 4.32198 5.77782 4.48317 6.24629 4.80556C6.68454 5.1078 6.91122 5.49064 6.93137 5.95911H8.6088C8.42746 3.99455 7.00189 3.01227 4.31699 3.01227C3.07781 3.01227 2.10057 3.26413 1.38527 3.76283C0.669965 4.26656 0.312315 4.95668 0.312315 5.83821C0.312315 6.48299 0.554106 7.02199 1.03265 7.44512C1.46586 7.83804 2.01997 8.07479 2.68994 8.16546L5.45543 8.53319C6.09013 8.62386 6.53846 8.75987 6.79536 8.95129C7.00693 9.11752 7.11271 9.36939 7.11271 9.70185C7.11271 10.6186 6.2211 11.072 4.43285 11.072C3.46065 11.072 2.73527 10.8756 2.25169 10.4877C1.85878 10.1754 1.66736 9.78748 1.66736 9.31397H0C0.146083 11.3541 1.64217 12.3767 4.4933 12.3767V12.3868Z" fill="#B3B3B3"/>
<path d="M21.0307 10.9965C21.9474 11.9233 22.8894 12.3868 24.5215 12.3868C26.1536 12.3868 27.1006 11.9233 28.0275 10.9965C28.8637 10.1401 29.2868 9.03695 29.2868 7.70206C29.2868 6.36716 28.8687 5.26399 28.0275 4.40764C27.1006 3.48077 26.1486 3.01733 24.5215 3.01733C22.8945 3.01733 21.9474 3.48077 21.0307 4.40764C20.1793 5.26902 19.7562 6.36716 19.7562 7.70206C19.7562 9.03695 20.1793 10.1401 21.0307 10.9965ZM27.0906 9.94367C26.5113 10.6338 25.6549 10.9814 24.5266 10.9814C23.3982 10.9814 22.5419 10.6338 21.9626 9.94367C21.4588 9.3543 21.207 8.60374 21.207 7.70206C21.207 6.80038 21.4588 6.04981 21.9626 5.46045C22.5419 4.77033 23.3982 4.42275 24.5266 4.42275C25.6549 4.42275 26.5113 4.77033 27.0906 5.46045C27.5943 6.04981 27.8462 6.80038 27.8462 7.70206C27.8462 8.60374 27.5943 9.3543 27.0906 9.94367Z" fill="#B3B3B3"/>
<path fill-rule="evenodd" clip-rule="evenodd" d="M39.3919 4.5235C38.5506 3.51603 37.3064 3.01733 35.6693 3.01733C33.9062 3.01733 32.5814 3.86864 32.0978 4.35223V3.02237H30.5262V15.4898H32.0978L32.0777 11.0015C32.0777 11.0015 33.3017 12.3767 35.6693 12.3767C37.2208 12.3767 38.4197 11.9082 39.276 10.9713C40.0518 10.1351 40.4396 9.06214 40.4396 7.75243C40.4396 6.51325 40.0921 5.3597 39.3969 4.5235H39.3919ZM38.1628 9.94367C37.5835 10.6338 36.7271 10.9814 35.5988 10.9814C34.4704 10.9814 33.6141 10.6338 33.0348 9.94367C32.531 9.3543 32.2792 8.60374 32.2792 7.70206C32.2792 6.80038 32.531 6.04981 33.0348 5.46045C33.6141 4.77033 34.4704 4.42275 35.5988 4.42275C36.7271 4.42275 37.5835 4.77033 38.1628 5.46045C38.6665 6.04981 38.9184 6.80038 38.9184 7.70206C38.9184 8.60374 38.6665 9.3543 38.1628 9.94367Z" fill="#B3B3B3"/>
</svg>
