<svg id="图层_1" data-name="图层 1" xmlns="http://www.w3.org/2000/svg" viewBox="0 0 286.6 77.7"><defs><style>.cls-1{fill:#fff;}</style></defs><title>logo_ico</title><path class="cls-1" d="M121.1,12.8V25h34.8c-.4,2.4-.7,4.6-1.1,6.9H121.1v5.4h32.7c-.4,2.4-.8,4.5-1.1,6.8H121v5.8h30.7l-1.1,6.8H114.1V19.9l-3.5-.3V12.8Z"/><path class="cls-1" d="M232.7,50.2a15.37,15.37,0,0,1-15.1,11h-9.2V74.9H199v-39h9.3V54.4c3.4-.2,6.5,0,9.5-.5a7.23,7.23,0,0,0,5.9-6.5,38.71,38.71,0,0,0,.1-9c-.5-4.5-3.9-7.3-8.5-7.4-4.9-.1-9.8,0-14.6,0h-2.2V24.1h19.1a15.15,15.15,0,0,1,14.8,10.5c.2.5.8,1.4.8,8S232.8,49.9,232.7,50.2Z"/><path class="cls-1" d="M.8,35.8c2.1-6.2,6.4-10.1,12.9-10.6s12.8-.1,19.4-.1V32H19.2c-1.1,0-2.1.1-3.2.2a8.06,8.06,0,0,0-6.4,8.1H33v7H9.6A8,8,0,0,0,17,55.9h.1c4.5.2,9,.1,13.5.1H33v7H16.2C8.4,63,2.9,59,.5,51.6c-.1-.4-.5-1-.5-8.1C0,37.2.6,36.3.8,35.8Z"/><path class="cls-1" d="M73.6,62.8V56.1c.7,0,1.3-.1,2-.1H97.3c2.8,0,3.5-.8,3.5-3.6.1-5.5.1-5.5-5.6-5.5-4.4,0-8.8-.1-13.3-.2a7.68,7.68,0,0,1-6-3.3c-3.2-3.9-3.1-8.4-1.4-12.8,1.5-4,4.9-5.7,9.3-5.6,8.1.1,16.1,0,24.2,0h2.1v6.9H86.4c-2.7,0-3.4.7-3.5,3.4v1.5c0,2.5.7,3.2,3.3,3.2h14.1c5.3,0,9.3,3.4,9.8,8.8a28.19,28.19,0,0,1-.3,7.1,8.76,8.76,0,0,1-8.4,7c-9.1.1-18.2,0-27.4,0C73.9,62.9,73.7,62.8,73.6,62.8Z"/><path class="cls-1" d="M176.4,25.1A19,19,0,1,1,157.3,44v-.9A18.74,18.74,0,0,1,176.4,25.1Zm8.8,19.1c-.2-4.2-1.1-8-4.4-10.7a7,7,0,0,0-9.7.3c-5.3,5-5.3,15.3-.1,20.4a7,7,0,0,0,9.9.4,6.47,6.47,0,0,0,.8-.9A15.86,15.86,0,0,0,185.2,44.2Z"/><path class="cls-1" d="M70,56v6.9c-.6,0-1.2.1-1.8.1H52.4A15.35,15.35,0,0,1,36.9,48v-.4c0-3.6-.2-7.2.5-10.6a14.72,14.72,0,0,1,14-12c5.9-.2,11.9-.1,17.8,0a1.85,1.85,0,0,1,.7.2v6.7c-.8,0-1.4.1-2.1.1H54.9a8.54,8.54,0,0,0-8.7,8.2v.5c0,2.4,0,4.8.1,7.1a8.26,8.26,0,0,0,8.2,8.3h.2C59.8,56.1,64.8,56,70,56Z"/><path class="cls-1" d="M122.4,58.8c-.2,2.6-1.8,4.2-4.1,4.2s-4-1.5-4.2-4.2Z"/><path class="cls-1" d="M141.9,58.8h8.2a3.93,3.93,0,0,1-3.5,4.3h-.5a4,4,0,0,1-4.2-3.8Z"/><polygon class="cls-1" points="286.6 15.1 275.2 15.1 265.8 26.5 271.4 33.5 286.6 15.1"/><polygon class="cls-1" points="267 38.9 267 38.9 261.4 31.8 261.4 31.9 236 0 224.6 0 255.6 38.9 223.6 77.7 235 77.7 261.2 45.9 261.2 45.9 267 38.9"/><polygon class="cls-1" points="265.5 51.3 274.2 62.2 285.6 62.2 271.3 44.3 265.5 51.3"/></svg>