<?xml version="1.0" encoding="utf-8"?>
<!-- Generator: Adobe Illustrator 22.0.0, SVG Export Plug-In . SVG Version: 6.00 Build 0)  -->
<svg version="1.1" id="图层_1" xmlns="http://www.w3.org/2000/svg" xmlns:xlink="http://www.w3.org/1999/xlink" x="0px" y="0px"
	 viewBox="0 0 286.6 105.6" style="enable-background:new 0 0 286.6 105.6;" xml:space="preserve">
<style type="text/css">
	.st0{fill:#C90E21;}
	.st1{fill:#666666;}
</style>
<title>logo</title>
<path d="M121.1,12.8V25h34.8c-0.4,2.4-0.7,4.6-1.1,6.9h-33.7v5.4h32.7c-0.4,2.4-0.8,4.5-1.1,6.8H121v5.8h30.7l-1.1,6.8h-36.5V19.9
	l-3.5-0.3v-6.8H121.1z"/>
<path d="M232.7,50.2c-2,6.7-8.2,11.2-15.1,11h-9.2v13.7H199v-39h9.3v18.5c3.4-0.2,6.5,0,9.5-0.5c3.2-0.6,5.6-3.3,5.9-6.5
	c0.4-3,0.4-6,0.1-9c-0.5-4.5-3.9-7.3-8.5-7.4c-4.9-0.1-9.8,0-14.6,0h-2.2v-6.9h19.1c6.7-0.2,12.7,4.1,14.8,10.5
	c0.2,0.5,0.8,1.4,0.8,8S232.8,49.9,232.7,50.2z"/>
<path class="st0" d="M0.8,35.8c2.1-6.2,6.4-10.1,12.9-10.6s12.8-0.1,19.4-0.1V32H19.2c-1.1,0-2.1,0.1-3.2,0.2
	c-3.8,0.8-6.5,4.2-6.4,8.1H33v7H9.6c-0.3,4.4,3,8.3,7.4,8.6c0,0,0,0,0,0h0.1c4.5,0.2,9,0.1,13.5,0.1H33v7H16.2
	C8.4,63,2.9,59,0.5,51.6c-0.1-0.4-0.5-1-0.5-8.1C0,37.2,0.6,36.3,0.8,35.8z"/>
<path d="M73.6,62.8v-6.7c0.7,0,1.3-0.1,2-0.1h21.7c2.8,0,3.5-0.8,3.5-3.6c0.1-5.5,0.1-5.5-5.6-5.5c-4.4,0-8.8-0.1-13.3-0.2
	c-2.4-0.1-4.6-1.3-6-3.3c-3.2-3.9-3.1-8.4-1.4-12.8c1.5-4,4.9-5.7,9.3-5.6c8.1,0.1,16.1,0,24.2,0h2.1v6.9H86.4
	c-2.7,0-3.4,0.7-3.5,3.4v1.5c0,2.5,0.7,3.2,3.3,3.2h14.1c5.3,0,9.3,3.4,9.8,8.8c0.2,2.4,0.1,4.8-0.3,7.1c-0.8,4-4.3,6.9-8.4,7
	c-9.1,0.1-18.2,0-27.4,0C73.9,62.9,73.7,62.8,73.6,62.8z"/>
<path d="M176.4,25.1c10.5,0.1,19,8.6,18.9,19.1c-0.1,10.5-8.6,19-19.1,18.9c-10.5-0.1-19-8.6-18.9-19.1v-0.9
	C157.7,32.9,166.2,24.9,176.4,25.1z M185.2,44.2c-0.2-4.2-1.1-8-4.4-10.7c-2.8-2.5-7.1-2.4-9.7,0.3c-5.3,5-5.3,15.3-0.1,20.4
	c2.6,2.8,7,3,9.9,0.4l0,0c0.3-0.3,0.6-0.6,0.8-0.9C183.9,51,185.1,47.7,185.2,44.2z"/>
<path class="st0" d="M70,56v6.9c-0.6,0-1.2,0.1-1.8,0.1H52.4c-8.4,0.1-15.3-6.6-15.5-15v-0.4c0-3.6-0.2-7.2,0.5-10.6
	c1.3-6.8,7.1-11.8,14-12c5.9-0.2,11.9-0.1,17.8,0c0.2,0,0.5,0.1,0.7,0.2v6.7c-0.8,0-1.4,0.1-2.1,0.1H54.9c-4.7-0.1-8.5,3.6-8.7,8.2
	v0.5c0,2.4,0,4.8,0.1,7.1c0,4.6,3.6,8.3,8.2,8.3h0.2C59.8,56.1,64.8,56,70,56z"/>
<path d="M122.4,58.8c-0.2,2.6-1.8,4.2-4.1,4.2s-4-1.5-4.2-4.2H122.4z"/>
<path d="M141.9,58.8h8.2c0.2,2.2-1.3,4.1-3.5,4.3h-0.5c-2.2,0.1-4.1-1.6-4.2-3.8c0,0,0,0,0,0l0,0V58.8z"/>
<polygon class="st0" points="286.6,15.1 275.2,15.1 265.8,26.5 271.4,33.5 "/>
<polygon class="st0" points="267,38.9 267,38.9 261.4,31.8 261.4,31.9 236,0 224.6,0 255.6,38.9 223.6,77.7 235,77.7 261.2,45.9 
	261.2,45.9 "/>
<polygon class="st0" points="265.5,51.3 274.2,62.2 285.6,62.2 271.3,44.3 "/>
<g>
	<path class="st1" d="M65.6,99c0.2,0,0.3,0.2,0.3,0.3c0,0.2-0.1,0.3-0.3,0.4c-0.2,0.1-0.3,0.2-0.4,0.4c-0.2,0.3-0.5,0.6-0.6,0.9
		l-0.4,0.7c-0.1,0.2-0.2,0.4-0.3,0.5l-0.3,0.5l-0.3,0.5c-0.2-0.2-0.3-0.4-0.5-0.5c-0.2-0.1-0.4-0.2-0.5-0.2c0.2-0.3,0.5-0.6,0.7-0.9
		s0.5-0.7,0.7-1s0.4-0.7,0.6-1.1c0.2-0.3,0.3-0.7,0.5-1c0.1,0.1,0.3,0.3,0.5,0.4C65.3,98.9,65.4,99,65.6,99z M68,93.4
		c0.4-0.6,0.7-1.2,1-1.8c0.3-0.6,0.5-1.2,0.7-1.8l0.6,0.3c0.2,0.1,0.4,0.1,0.6,0.2s0.4,0.2,0.4,0.3c0,0.1-0.1,0.3-0.3,0.3
		c-0.3,0.2-0.6,0.4-0.8,0.7c-0.4,0.5-0.8,1.1-1.1,1.7c0.8,0,1.5,0,2.1,0c0.6,0,1.2-0.1,1.6-0.1v1.2c-0.5,0-1.2-0.1-1.9-0.1
		s-1.6,0-2.6,0v2.5c0.9,0,1.7,0,2.4-0.1s1.3-0.1,1.8-0.2V98c-0.5-0.1-1.1-0.1-1.8-0.2s-1.5,0-2.4-0.1v5.6c0,0.2,0,0.5-0.1,0.7
		c-0.1,0.2-0.3,0.3-0.5,0.4c-0.3,0.1-0.6,0.2-0.9,0.2c-0.4,0-0.9,0.1-1.6,0.1c0.1-0.3,0-0.5-0.1-0.8c-0.1-0.3-0.3-0.5-0.5-0.7
		c0.5,0.1,0.9,0.2,1.2,0.2c0.3,0,0.5,0,0.8,0c0.2,0,0.3-0.1,0.4-0.2c0.1-0.1,0.1-0.2,0.1-0.4v-5.2c-0.9,0-1.7,0-2.4,0
		c-0.7,0-1.3,0.1-1.8,0.2v-1.3c0.6,0.1,1.2,0.1,1.8,0.2c0.7,0,1.5,0,2.4,0v-2.4h-1.6h-1.3c-0.4,0-0.7,0-1.1,0l-0.9,0.1v-1.1l1,0.1
		c0.3,0,0.7,0,1.1,0h1.5L68,93.4z M72.5,89.7c-0.6-0.1-1.3-0.1-2.1-0.2s-1.8,0-2.8,0c-1,0-2,0-2.8,0c-0.9,0-1.6,0.1-2.1,0.2v-1.3
		c0.7,0.1,1.4,0.1,2.1,0.2c0.8,0,1.8,0,2.8,0h1.8c0.5,0,0.9,0,1.3,0s0.7,0,1-0.1l0.8-0.1L72.5,89.7z M66.1,93.3
		c-0.2-0.3-0.3-0.5-0.5-0.7c-0.1-0.2-0.3-0.4-0.5-0.5c-0.2-0.2-0.3-0.3-0.6-0.5c-0.2-0.2-0.4-0.4-0.7-0.6l0.8-0.7l0.6,0.5
		c0.2,0.1,0.4,0.3,0.5,0.5c0.2,0.2,0.3,0.3,0.5,0.5s0.3,0.4,0.5,0.7L66.1,93.3z M67.7,88.5l-0.6-0.5c-0.2-0.2-0.4-0.3-0.6-0.4
		L66,87.1l-0.8-0.4l0.6-0.9c0.5,0.2,1,0.5,1.4,0.8c0.4,0.3,0.8,0.6,1.2,0.9L67.7,88.5z M71,102.1c-0.3-0.5-0.5-0.9-0.8-1.4
		c-0.3-0.4-0.7-0.9-1.1-1.2l0.9-0.7c0.4,0.4,0.8,0.9,1.1,1.3c0.3,0.4,0.6,0.8,0.9,1.3L71,102.1z M77.6,93.1h1.4h1c0.3,0,0.5,0,0.8,0
		l0.6-0.1v1.2c-0.4-0.1-0.9-0.1-1.3-0.1c-0.5,0-1,0-1.6,0v7.7c0,0.6,0,1.2,0,1.7s0.1,1,0.1,1.7h-1.4c0-0.3,0-0.6,0.1-0.8
		c0.1-0.2,0-0.5,0-0.7s0-0.5,0-0.8v-8.8h-2.5c0,1.5,0,2.8-0.2,3.9c-0.1,1-0.3,1.9-0.5,2.8c-0.2,0.8-0.6,1.5-1,2.2
		c-0.5,0.8-1,1.5-1.6,2.1c-0.2-0.1-0.5-0.2-0.7-0.3c-0.3-0.1-0.6-0.2-0.9-0.2c0.6-0.5,1.1-1,1.6-1.6c0.5-0.6,0.9-1.4,1.2-2.1
		c0.3-0.9,0.6-1.9,0.7-2.8c0.2-1.2,0.2-2.5,0.2-3.7c0-0.7,0-1.3,0-2s-0.1-1.3-0.1-1.8s-0.1-1.1-0.1-1.6s-0.1-0.8-0.1-1.1
		c1.1,0,2.3-0.1,3.4-0.4c1.1-0.3,2.1-0.8,3-1.4c0.1,0.2,0.2,0.4,0.3,0.6c0.1,0.2,0.2,0.3,0.3,0.4c0.2,0.2,0.2,0.3,0.1,0.4
		s-0.2,0.1-0.3,0h-0.2l-0.3,0.1c-0.2,0-0.4,0.1-0.5,0.1L78.2,88c-0.2,0.1-0.5,0.2-0.8,0.2l-0.9,0.2l-0.9,0.2l-0.9,0.2v4.2L77.6,93.1
		z"/>
	<path class="st1" d="M107.5,94.7c-0.5,0.5-1.1,0.9-1.7,1.3c-0.6,0.4-1.2,0.7-1.9,1.1s-1.4,0.7-2.3,1.1s-1.8,0.7-2.8,1.1
		c-0.1-0.2-0.3-0.5-0.5-0.7c-0.2-0.2-0.5-0.4-0.7-0.6c0.9-0.2,1.8-0.4,2.7-0.7c0.9-0.3,1.8-0.6,2.7-1c0.9-0.4,1.7-0.9,2.5-1.4
		c0.8-0.5,1.5-1.1,2.2-1.8c0.1,0.1,0.3,0.2,0.4,0.3c0.2,0.1,0.3,0.2,0.5,0.2c0.2,0.1,0.3,0.2,0.3,0.3s-0.1,0.2-0.2,0.2l-0.4,0.1
		c0.8,0.5,1.6,1,2.5,1.4c0.8,0.4,1.6,0.7,2.4,1c0.7,0.3,1.5,0.5,2.2,0.6c0.7,0.1,1.3,0.3,2,0.3c-0.2,0.2-0.4,0.4-0.6,0.7
		c-0.1,0.2-0.2,0.5-0.2,0.7c-1.1-0.3-2-0.6-2.9-1c-0.9-0.3-1.7-0.7-2.4-1c-0.7-0.3-1.4-0.7-2.1-1.1
		C108.7,95.6,108.1,95.2,107.5,94.7z M107.1,88.1c-1.4,0-2.7,0-3.8,0c-1.1,0-2.1,0.1-2.9,0.1V87l3,0.1c1.2,0,2.5,0,4,0s2.9,0,4.1,0
		l3.1-0.1v1.2c-0.7,0-1.7-0.1-2.7-0.1c-1.1,0-2.3,0-3.6,0v1.3h2.9h2.1h1.5h1.1V93h-1.2v-2.8h-6.4v1.6c0,0.2,0,0.3,0,0.4s0,0.3,0,0.4
		s0,0.3,0,0.4H107c0-0.2,0-0.3,0-0.4v-0.4c0-0.1,0-0.3,0-0.4v-1.6h-6.5v2.9h-1.2v-3.8h1.2h1.6h2.1h2.9V88.1z M111.6,100.1h-5
		c-1.1,0-2.2,0-3.1,0s-1.8,0.1-2.6,0.2v-1.3c0.8,0.1,1.8,0.1,2.9,0.2s2.3,0,3.7,0h1.7c0.6,0,1.2,0,1.8,0s1.2,0,1.7-0.1
		s0.9-0.1,1.3-0.1v1.1c-0.2,0-0.4,0.1-0.5,0.1c-0.3,0.1-0.6,0.3-0.8,0.4c-0.4,0.2-0.9,0.6-1.5,1c-0.6,0.4-1.5,1-2.5,1.8l1.3,0.6
		l1.3,0.6l-0.8,1.1c-0.4-0.2-0.9-0.5-1.4-0.8c-0.5-0.3-1.1-0.6-1.7-0.8s-1.2-0.5-1.8-0.8s-1.2-0.5-1.8-0.7l0.5-1l1.6,0.7l1.6,0.7
		L111.6,100.1z M101.5,92.1v-0.9c0.2,0,0.5,0,0.9,0h2.5h0.6h0.4V92h-0.4h-0.6h-2.5C101.9,92,101.7,92,101.5,92.1L101.5,92.1z
		 M101.5,93.8v-0.9h0.9h2.5h0.6h0.4v0.9h-0.4h-0.6h-2.5H101.5z M108.9,98.7c-0.4-0.3-0.9-0.6-1.4-0.9c-0.5-0.3-1-0.6-1.6-0.8
		l0.6-0.8l0.7,0.4l0.7,0.4l0.7,0.4l0.9,0.5L108.9,98.7z M109.3,92v-0.9c0.2,0,0.5,0,1,0h2.3c0.3,0,0.6,0,0.8,0V92h-0.8h-2.4
		C109.8,92,109.5,92,109.3,92z M109.3,93.8v-0.9h1h2.3h0.8v0.9c-0.2,0-0.5,0-0.8,0h-2.4C109.8,93.8,109.5,93.8,109.3,93.8
		L109.3,93.8z"/>
	<path class="st1" d="M145.7,89.1h2.6c0.8,0,1.4,0,2,0l1.5-0.1c0.4,0,0.7,0,1-0.1v1.2c-0.3,0-0.6-0.1-1-0.1h-1.4h-1.9h-2.5v1.6h2.4
		h1.6h1.1c0.3,0,0.6-0.1,0.8-0.1v1.2l-0.8-0.1l-1.1-0.1h-1.6h-2.4v1.6h2.4h1.6c0.4,0,0.8,0,1.1-0.1l0.8-0.1v1.2l-0.8-0.1
		c-0.3,0-0.6,0-1.1-0.1h-1.6h-2.4V97h2.6h1.9h1.4c0.4,0,0.7,0,0.9-0.1v1.2c-0.2,0-0.6,0-0.9-0.1c-0.4-0.1-0.9,0-1.4-0.1h-2h-9.5v1
		h-1.5c0.1-0.6,0.2-1.1,0.2-1.7c0-0.5,0-1.1,0-1.6v-4.5c-0.3,0.5-0.7,1-1.1,1.6c-0.4,0.6-0.9,1.1-1.3,1.6c-0.2-0.2-0.4-0.5-0.6-0.6
		c-0.2-0.1-0.5-0.2-0.8-0.3c0.6-0.4,1.1-0.9,1.6-1.4c0.6-0.6,1.1-1.3,1.6-1.9c0.5-0.7,0.9-1.5,1.3-2.3c0.4-0.8,0.7-1.5,0.9-2.3
		c0.2,0.2,0.5,0.3,0.7,0.4l0.7,0.4c0.2,0.1,0.3,0.2,0.3,0.3c0,0.1-0.1,0.2-0.4,0.4c-0.1,0-0.1,0.1-0.2,0.2c-0.1,0.1-0.2,0.2-0.3,0.3
		c-0.1,0.2-0.3,0.4-0.4,0.6s-0.4,0.6-0.6,1L145.7,89.1z M139.4,105.1h-1.5c0-0.3,0.1-0.7,0.1-0.9c0-0.3,0-0.6,0-0.9v-2.8
		c0-0.3,0-0.5,0-0.6c0-0.2,0-0.3-0.1-0.5h1h1.3h8.8h1.3h1c0,0.1,0,0.3,0,0.4v3.2c0,0.4,0,0.7,0,1s0,0.6,0.1,0.9h-1.6V104h-10.5
		V105.1z M138.9,90v1.7h5.7V90H138.9z M138.9,92.6v1.6h5.7v-1.6H138.9z M144.6,95.1h-5.7v1.7h5.7V95.1z M149.9,100.4h-10.5v2.6h10.5
		L149.9,100.4z M145.9,88.9l-0.6-0.6c-0.2-0.2-0.4-0.4-0.7-0.7c-0.3-0.2-0.5-0.4-0.8-0.6s-0.5-0.4-0.7-0.5l0.8-0.9
		c0.6,0.3,1.1,0.7,1.6,1.1c0.5,0.3,0.9,0.7,1.3,1.1L145.9,88.9z"/>
	<path class="st1" d="M178.4,88.2c-0.2-0.3-0.4-0.6-0.6-0.9c-0.2-0.3-0.5-0.6-0.8-0.9l1.1-0.8c0.3,0.4,0.6,0.9,0.9,1.3
		c0.3,0.4,0.5,0.9,0.8,1.3h2.6c0.8,0,1.5,0,2.1,0l1.8-0.1c0.5,0,1,0,1.6-0.1v1.4l-1.6-0.1l-1.8-0.1c-0.7,0-1.4,0-2.3,0h-3
		c-2,0-3.7,0-5.1,0.1s-2.6,0.1-3.7,0.2V88c1,0.1,2.2,0.1,3.5,0.2S176.6,88.2,178.4,88.2z M180.7,92.5c0.4-0.5,0.9-1,1.2-1.6
		c0.3-0.4,0.5-0.9,0.7-1.5c0.3,0.2,0.5,0.4,0.7,0.5c0.2,0.1,0.4,0.2,0.6,0.3c0.2,0.1,0.3,0.2,0.3,0.3s-0.1,0.2-0.4,0.2
		c-0.1,0-0.2,0-0.2,0.1c-0.1,0.1-0.2,0.2-0.3,0.2c-0.2,0.2-0.3,0.3-0.5,0.5c-0.2,0.2-0.4,0.5-0.7,0.9h1.9h1.3h0.9
		c0.2,0,0.4,0,0.6-0.1c0,0.2,0,0.4,0,0.6s0,0.4,0,0.7s0,0.6,0,0.9v8.7c0,0.3,0,0.6-0.1,0.9c-0.1,0.2-0.2,0.4-0.4,0.6
		c-0.3,0.2-0.6,0.3-1,0.4c-0.6,0.1-1.2,0.2-1.9,0.2c0-0.2,0-0.5-0.1-0.7c-0.1-0.3-0.2-0.5-0.4-0.7c0.5,0.1,0.9,0.1,1.4,0.1
		c0.3,0,0.5-0.1,0.8-0.2c0.2-0.1,0.3-0.2,0.4-0.4c0.1-0.2,0.1-0.5,0.1-0.7v-9.2h-12.6v11.7h-1.6c0.1-0.8,0.2-1.6,0.2-2.3
		s0.1-1.4,0.1-2.1v-5c0-0.3,0-0.7,0-1s0-0.7,0-1s0-0.6,0-0.8c0-0.2,0-0.4,0-0.6l0.6,0.1c0.2,0,0.5,0,0.9,0h1.3h1.9
		c-0.2-0.3-0.5-0.6-0.7-0.9c-0.4-0.4-0.8-0.7-1.2-1.1l1-0.8c0.2,0.2,0.4,0.4,0.6,0.6l0.5,0.6c0.2,0.2,0.4,0.4,0.6,0.7l0.6,0.9
		L180.7,92.5z M177,93.7c0.2,0.2,0.3,0.4,0.5,0.5c0.1,0.1,0.3,0.2,0.5,0.3c0.2,0.1,0.3,0.2,0.3,0.2s-0.1,0.2-0.2,0.2
		c-0.5,0.3-1,0.6-1.4,1c-0.9,0.8-1.8,1.6-2.6,2.5c-0.1-0.2-0.2-0.4-0.4-0.6c-0.2-0.2-0.4-0.3-0.6-0.4c0.4-0.2,0.8-0.5,1.2-0.7
		c0.4-0.3,0.8-0.6,1.2-1c0.4-0.3,0.7-0.7,1.1-1.1C176.6,94.3,176.8,94,177,93.7L177,93.7z M179.1,97.4c0.8,0,1.5,0,2.2,0
		s1.2,0,1.6-0.1c0,0.6-0.1,1.4-0.1,2.3c0,0.5,0,0.9,0,1.4s0,0.9,0.1,1.2c-0.4,0-0.9,0-1.6-0.1h-4.4h-1.7c0-0.3,0-0.7,0.1-1.2
		c0-0.5,0-0.9,0-1.4s0-0.9,0-1.3s0-0.8-0.1-1.1c0.4,0,1,0.1,1.7,0.1S178.3,97.4,179.1,97.4L179.1,97.4z M176.5,101.2h5.2v-2.8h-5.2
		L176.5,101.2z M184.2,98c-0.6-0.6-1.3-1.2-2-1.8c-0.7-0.6-1.4-1.1-2.1-1.5l0.8-0.9c0.3,0.2,0.7,0.5,1,0.8l1.1,0.8l1.1,0.9
		c0.4,0.3,0.7,0.6,1,0.8L184.2,98z"/>
	<path class="st1" d="M209.3,99.5c0.4-0.2,0.8-0.3,1.2-0.5l1.4-0.7c0,0.3,0,0.5,0,0.8c0,0.2,0,0.4,0.1,0.6c-0.8,0.3-1.5,0.6-2.1,0.8
		l-1.7,0.7c-0.5,0.2-0.9,0.4-1.4,0.6s-0.7,0.4-1,0.6c0-0.3-0.1-0.6-0.2-0.8c-0.1-0.3-0.2-0.5-0.3-0.8c0.5-0.1,1-0.2,1.4-0.3
		s0.9-0.3,1.4-0.4v-6.9c-0.5,0-0.9,0-1.3,0.1s-0.8,0.1-1.2,0.2v-1.4l0.6,0.1c0.2,0,0.4,0,0.6,0.1h0.6h0.7v-1.7c0-0.9,0-1.8-0.1-2.5
		s-0.1-1.2-0.1-1.5c0.3,0.1,0.5,0.1,0.8,0.1c0.2,0,0.5,0,0.8,0s0.3,0.1,0.3,0.2s-0.1,0.2-0.2,0.3c-0.2,0.1-0.3,0.3-0.3,0.5v4.6
		c0.5,0,0.9,0,1.2-0.1s0.7-0.1,1.1-0.2v1.4c-0.4-0.1-0.8-0.1-1.1-0.2c-0.3,0-0.7,0-1.2,0L209.3,99.5z M213.5,95.1
		c0,1.3,0,2.5-0.1,3.4c0,0.8-0.1,1.7-0.3,2.5c-0.1,0.7-0.3,1.3-0.5,1.9c-0.2,0.6-0.5,1.2-0.9,1.8c-0.2-0.2-0.4-0.3-0.6-0.4
		c-0.3-0.1-0.6-0.2-0.9-0.3c0.3-0.4,0.6-0.8,0.9-1.3c0.3-0.4,0.5-0.9,0.6-1.4c0.2-0.6,0.3-1.1,0.4-1.7c0.1-0.6,0.1-1.4,0.1-2.3
		s0-2,0-3.2s-0.1-2.7-0.1-4.4l0.6,0.1c0.2,0,0.5,0,0.9,0.1h1.6h2.6c0-0.9-0.1-1.7-0.2-2.4c0-0.5-0.1-1-0.2-1.5
		c0.3,0.1,0.6,0.1,0.8,0.2c0.3,0,0.5,0,0.8,0c0.2,0,0.3,0,0.3,0.1s-0.1,0.2-0.3,0.4c-0.1,0.1-0.1,0.1-0.1,0.2c0,0.2-0.1,0.3-0.1,0.5
		c0,0.3,0,0.7,0,1c0,0.4,0,0.9,0,1.5h2h1.4c0.4,0,0.7,0,0.9-0.1s0.4,0,0.6-0.1v1.3h-0.8H222h-1.4h-1.5c0.1,1.6,0.2,2.9,0.3,4.1
		c0.1,1,0.3,2,0.5,3c0.1-0.2,0.1-0.3,0.2-0.5s0.1-0.3,0.2-0.5s0.2-0.6,0.4-1s0.3-0.9,0.4-1.3s0.2-0.9,0.3-1.3s0.1-0.7,0.2-0.9
		c0.2,0.1,0.5,0.2,0.8,0.3c0.2,0.1,0.5,0.1,0.7,0.1c0.2,0,0.4,0.1,0.4,0.2s-0.1,0.2-0.3,0.3c-0.1,0-0.2,0.1-0.2,0.2
		c-0.1,0.2-0.2,0.4-0.3,0.6c-0.1,0.3-0.3,0.7-0.5,1.2s-0.4,1.2-0.8,2c-0.3,0.7-0.6,1.5-0.9,2.2c0.2,0.6,0.4,1.1,0.5,1.5
		s0.3,0.7,0.4,1c0.1,0.2,0.2,0.4,0.4,0.6c0.1,0.2,0.2,0.3,0.4,0.5c0.1,0.1,0.2,0.2,0.3,0.2c0.1,0,0.2,0,0.3-0.1
		c0.1-0.2,0.2-0.4,0.2-0.7c0.1-0.3,0.1-0.8,0.2-1.4c0.2,0.2,0.4,0.4,0.6,0.5c0.2,0.1,0.4,0.2,0.6,0.2c-0.1,0.6-0.2,1.2-0.4,1.8
		c-0.1,0.4-0.3,0.7-0.6,1c-0.2,0.2-0.4,0.3-0.6,0.3c-0.2,0-0.5-0.1-0.7-0.2c-1.1-1-1.9-2.3-2.4-3.8c-0.5,0.8-1.1,1.5-1.7,2.2
		c-0.7,0.7-1.4,1.4-2.1,2.1c-0.1-0.2-0.3-0.4-0.5-0.5c-0.2-0.2-0.5-0.3-0.8-0.4c0.5-0.3,0.9-0.6,1.4-1c0.4-0.3,0.8-0.7,1.2-1.1
		c0.4-0.4,0.7-0.8,1.1-1.2c0.4-0.5,0.7-1,1-1.5c-0.4-1.2-0.6-2.4-0.8-3.6c-0.3-1.7-0.4-3.3-0.5-5h-4.5c0,0.6,0,1.2,0,1.8
		s0,1.1,0,1.6h1.6c0.4,0,0.8,0,1.1-0.1c0.3,0,0.7-0.1,1-0.2l-0.3,5.9c0,0.3,0,0.5-0.1,0.8c-0.1,0.2-0.2,0.4-0.4,0.5
		c-0.2,0.2-0.5,0.3-0.8,0.4c-0.4,0.1-0.9,0.2-1.3,0.2c0-0.2-0.1-0.5-0.2-0.7c-0.1-0.3-0.3-0.5-0.4-0.7c0.4,0,0.8,0.1,1,0.1
		c0.2,0,0.4,0,0.6-0.1c0.1,0,0.2-0.1,0.3-0.2c0.1-0.1,0.1-0.3,0.1-0.5l0.2-4.5L213.5,95.1z M222.2,89.1c-0.3-0.4-0.6-0.7-1-1.1
		c-0.4-0.3-0.8-0.7-1.3-1l0.8-0.9c0.5,0.4,1,0.8,1.4,1.1c0.4,0.3,0.7,0.6,1,1L222.2,89.1z"/>
</g>
</svg>
