<svg id="图层_1" data-name="图层 1" xmlns="http://www.w3.org/2000/svg" viewBox="0 0 500 288.49"><defs><style>.cls-1{fill:#f5821f;}.cls-2{fill:#007dc5;}.cls-3{fill:#656666;}</style></defs><title>logo</title><polygon class="cls-1" points="477.31 54.09 451.49 54.09 426.24 84.19 439.17 99.54 477.31 54.09"/><polygon class="cls-1" points="439.17 130.5 426.24 145.85 450.25 174.71 476.08 174.71 439.17 130.5"/><polygon class="cls-1" points="341.92 14.53 316.14 14.53 400.44 114.95 316.45 214.62 342.23 214.62 426.23 114.97 341.92 14.53"/><path class="cls-2" d="M156,69.34l51.66,75.36h.58V69.34H225.5V173.82H208.82L156.58,97.43H156v76.39H138.87V69.34Z"/><path class="cls-2" d="M349.45,124.88q0-29.31-17.51-44.65-15-13-37.72-13-28.41,0-44.35,16.11-14.77,15-14.78,38.24t14.78,38.25q15.94,16.11,44.35,16.11a58.7,58.7,0,0,0,30.14-8,51.71,51.71,0,0,0,22.37-26.41H326.11q-8.36,18.06-32.87,18.05a39,39,0,0,1-24.7-8.34A31.91,31.91,0,0,1,255.7,127.4h93.75Zm-93.16-12.62A31.73,31.73,0,0,1,269.12,91.1q10.11-7.57,24.12-7.58T317,91.1q9.72,7.56,11.86,21.16Z"/><path class="cls-2" d="M114.43,84.33C103.94,73.87,93.22,68.64,74.79,68.64s-29.1,5.23-39.45,15.69q-14.4,14.57-14.4,37.24t14.4,37.25c10.35,10.46,21,15.69,39.45,15.69s29.15-5.23,39.64-15.69q14.2-14.55,14.2-37.25T114.43,84.33Zm-10.66,62.58q-9.85,11.73-29,11.72t-29-11.72q-8.54-10-8.53-25.34t8.53-25.33q9.84-11.71,29-11.72t29,11.72q8.52,10,8.52,25.33T103.77,146.91Z"/><path class="cls-3" d="M121.24,249.1a.57.57,0,0,1,.53.58.77.77,0,0,1-.57.71,2.63,2.63,0,0,0-.77.66,7.68,7.68,0,0,0-1.12,1.65l-.66,1.19c-.19.34-.38.66-.55,1l-.53.87c-.18.28-.38.58-.61.91a4.32,4.32,0,0,0-.95-.87,3.34,3.34,0,0,0-1-.38c.45-.51.9-1.06,1.34-1.67s.86-1.23,1.25-1.88.75-1.28,1.08-1.91a19.17,19.17,0,0,0,.84-1.82,5.08,5.08,0,0,0,.85.67A3.51,3.51,0,0,0,121.24,249.1Zm4.4-10A31.33,31.33,0,0,0,127.3,236a27.55,27.55,0,0,0,1.25-3.18l1.08.49a10.13,10.13,0,0,0,1.05.38c.45.15.68.33.7.55a.62.62,0,0,1-.36.55,5.42,5.42,0,0,0-1.44,1.34,24.87,24.87,0,0,0-2.05,3c1.39,0,2.65,0,3.77-.07s2.09-.12,2.9-.19V241c-1-.1-2.13-.17-3.5-.21s-2.93-.06-4.65-.06v4.47c1.59,0,3-.06,4.38-.11a31.77,31.77,0,0,0,3.32-.27v2.43a31.77,31.77,0,0,0-3.32-.27c-1.33,0-2.79-.09-4.38-.11v10.15a3.31,3.31,0,0,1-.2,1.24,1.6,1.6,0,0,1-.82.75,5.24,5.24,0,0,1-1.69.4,27,27,0,0,1-2.82.11,2,2,0,0,0-.13-1.42,4.62,4.62,0,0,0-1-1.27c.91.18,1.66.29,2.24.35a5.52,5.52,0,0,0,1.38,0,1.1,1.1,0,0,0,.7-.36,1.15,1.15,0,0,0,.19-.69V246.9c-1.59,0-3.05,0-4.37.09s-2.44.16-3.32.29v-2.43c.88.13,2,.22,3.32.29s2.78.09,4.37.09v-4.47l-3,0-2.35,0c-.71,0-1.35,0-1.92.07l-1.61.14v-2.16l1.75.13c.58,0,1.26.06,2,.08l2.79,0C122.75,239.13,124.07,239.13,125.64,239.13Zm8.14-6.7c-1-.13-2.28-.22-3.8-.27s-3.24-.08-5.14-.08-3.61,0-5.13.08-2.8.14-3.81.27v-2.35c1,.12,2.28.21,3.81.26s3.24.08,5.13.08l3.26,0q1.36,0,2.37-.06c.67,0,1.26-.06,1.78-.11l1.53-.15Zm-11.67,6.44c-.3-.46-.58-.86-.85-1.2a11.26,11.26,0,0,0-.85-1c-.31-.32-.63-.63-1-.95s-.78-.66-1.29-1l1.44-1.25c.43.33.82.63,1.16.91s.66.56,1,.85.6.6.89.93.61.72,1,1.17Zm3-8.76c-.38-.35-.73-.66-1-.92a11.1,11.1,0,0,0-1-.76c-.35-.24-.72-.48-1.12-.7s-.85-.48-1.38-.76l1.14-1.55a22.5,22.5,0,0,1,2.57,1.4,25.45,25.45,0,0,1,2.24,1.59ZM131,254.74a23.79,23.79,0,0,0-1.54-2.48,19.11,19.11,0,0,0-1.91-2.25l1.59-1.22c.76.79,1.44,1.55,2,2.3a15.64,15.64,0,0,1,1.55,2.29Zm11.86-16.25,2.46,0,1.78,0c.51,0,1,0,1.35-.07l1.15-.14v2.28a20.75,20.75,0,0,0-2.29-.21c-.9,0-1.86-.06-2.9-.06V254.1c0,1.14,0,2.15.06,3s.11,1.89.21,3H142c.05-.53.08-1,.11-1.42l.07-1.27c0-.43,0-.9,0-1.42V240.23h-4.66q0,4.1-.28,7a28.89,28.89,0,0,1-.93,5.14,17.67,17.67,0,0,1-1.74,4.09,29.35,29.35,0,0,1-2.81,3.86,7.64,7.64,0,0,0-1.27-.6,5.74,5.74,0,0,0-1.61-.31,17.45,17.45,0,0,0,2.88-2.95,14.9,14.9,0,0,0,2.09-3.83,24.51,24.51,0,0,0,1.25-5.08,46.32,46.32,0,0,0,.38-6.74c0-1.21,0-2.41-.06-3.58s-.08-2.28-.13-3.32-.11-2-.17-2.78-.14-1.49-.21-2a23.7,23.7,0,0,0,6.1-.8,16.88,16.88,0,0,0,5.42-2.5c.2.43.39.81.58,1.14a4.15,4.15,0,0,0,.59.8c.28.27.36.49.25.66s-.32.19-.63.09a.8.8,0,0,0-.28,0l-.53.1c-.24.05-.56.13-1,.24l-1.53.44c-.41.13-.88.26-1.41.4l-1.64.42-1.71.41q-.85.21-1.65.36v7.62Z"/><path class="cls-3" d="M189.14,241.44a30.75,30.75,0,0,1-3,2.22c-1.05.67-2.19,1.33-3.43,2s-2.61,1.29-4.13,1.93-3.23,1.32-5.15,2a7.42,7.42,0,0,0-.87-1.19,6.57,6.57,0,0,0-1.29-1.08,40.45,40.45,0,0,0,4.87-1.18,38.33,38.33,0,0,0,4.87-1.85,35.84,35.84,0,0,0,4.58-2.54,25,25,0,0,0,4-3.26,3.86,3.86,0,0,0,.77.62,5.18,5.18,0,0,0,1,.4c.33.13.49.3.47.51s-.14.34-.39.36-.56.1-.76.15a35,35,0,0,0,4.47,2.54,41.06,41.06,0,0,0,4.34,1.78,36.59,36.59,0,0,0,4,1.14c1.29.28,2.49.48,3.6.61a5.31,5.31,0,0,0-1,1.28,4.28,4.28,0,0,0-.43,1.26q-2.85-.84-5.2-1.73c-1.56-.59-3-1.2-4.33-1.82a36.64,36.64,0,0,1-3.7-2A38.54,38.54,0,0,1,189.14,241.44Zm-.83-12q-3.87,0-6.88.06c-2,0-3.73.09-5.17.17v-2.12l5.4.15q3.17.08,7.25.08t7.45-.08l5.55-.15v2.12c-1.34-.08-3-.13-4.93-.17s-4.11-.06-6.51-.06v2.28l5.19,0,3.81,0c1.07,0,2,0,2.72-.06l2-.07v6.85h-2.12V233.3H190.47v2.86c0,.26,0,.51,0,.74l0,.68c0,.23,0,.49.06.79h-2.42c0-.3.05-.56.07-.79s.05-.46.06-.68,0-.48,0-.74V233.3H176.37v5.15h-2.16v-6.93l2.12.07c.79,0,1.73,0,2.83.06l3.86,0,5.29,0Zm8.14,21.6h-9c-2.05,0-3.88,0-5.5.08s-3.18.13-4.7.26V249c1.44.13,3.17.22,5.19.29s4.22.09,6.6.09c.88,0,1.87,0,3,0l3.28-.05c1.08,0,2.1-.07,3-.12s1.69-.11,2.27-.19V251a3.7,3.7,0,0,0-1,.23,9.83,9.83,0,0,0-1.52.79c-.67.41-1.57,1-2.71,1.78s-2.65,1.86-4.54,3.22l2.44,1.07c.8.35,1.56.7,2.29,1.06l-1.4,1.93c-.76-.46-1.6-.93-2.54-1.42s-1.93-1-3-1.48-2.12-1-3.22-1.42-2.18-.89-3.24-1.29l.91-1.7L186,255c1,.4,1.93.81,2.87,1.21Zm-18.22-14.47v-1.67l1.55.06h4.45l1.07,0c.31,0,.56,0,.73,0v1.67l-.73,0-1.07,0-1.19,0h-1.17l-2.09,0C179.12,236.51,178.61,236.53,178.23,236.56Zm0,3.22v-1.71c.38,0,.89.05,1.55.06l2.09,0H183l1.19,0,1.07,0,.73,0v1.71l-.73,0-1.07,0-1.19,0h-1.17l-2.09,0C179.12,239.73,178.61,239.75,178.23,239.78Zm13.49,8.82a23.65,23.65,0,0,0-2.48-1.61c-.93-.51-1.87-1-2.83-1.45l1.06-1.52c.48.25.93.49,1.33.72l1.25.7,1.35.78c.46.28,1,.58,1.57.91Zm.64-12v-1.67l1.73.06h4.2l1.42-.06v1.67c-.38,0-.85-.05-1.42-.06l-1.95,0-2.25,0C193.31,236.51,192.74,236.53,192.36,236.56Zm0,3.18v-1.67c.38,0,.95.05,1.73.06l2.25,0,1.95,0c.57,0,1,0,1.42-.06v1.67c-.38,0-.85-.05-1.42-.06l-1.95,0-2.25,0C193.31,239.69,192.74,239.71,192.36,239.74Z"/><path class="cls-3" d="M250.18,231.21c1.77,0,3.34,0,4.72,0l3.62-.05c1,0,1.92-.06,2.65-.1s1.35-.08,1.86-.13v2.24c-.51-.05-1.12-.1-1.82-.14s-1.56-.07-2.56-.09-2.17,0-3.5-.06l-4.63,0V236l4.28,0,2.87,0c.77,0,1.4,0,1.91-.08a12.9,12.9,0,0,0,1.44-.17v2.2l-1.44-.13c-.51,0-1.14-.07-1.91-.1l-2.87-.05-4.28,0v2.88l4.25,0c1.13,0,2.09,0,2.86-.06s1.41,0,1.93-.09l1.46-.13v2.19l-1.46-.13c-.52,0-1.16-.07-1.93-.09s-1.73,0-2.86-.06l-4.25,0v3.07l4.72,0q2,0,3.51-.06c1,0,1.81,0,2.48-.09s1.23-.08,1.68-.13v2.12c-.45-.05-1-.1-1.7-.14l-2.56-.09-3.62-.06-4.89,0h-12.2v1.86h-2.65a29,29,0,0,0,.36-3.05c.06-1,.1-1.95.1-2.94v-7.65c-.64.91-1.32,1.84-2.05,2.8s-1.53,1.95-2.39,3a4.39,4.39,0,0,0-1-1.16,4.17,4.17,0,0,0-1.38-.51,18.37,18.37,0,0,0,2.84-2.52,27.7,27.7,0,0,0,2.8-3.5,34.44,34.44,0,0,0,2.41-4.08,24.94,24.94,0,0,0,1.69-4.22c.43.3.83.57,1.21.8l1.25.72c.35.2.52.38.49.55s-.25.38-.68.66a2.31,2.31,0,0,0-.38.28,4,4,0,0,0-.49.59q-.3.42-.78,1.14c-.32.48-.7,1.1-1.15,1.85Zm-11.36,29h-2.66c.08-.63.13-1.2.15-1.7s0-1.08,0-1.71v-5.08c0-.48,0-.86,0-1.15a4.73,4.73,0,0,0-.15-.89c.51,0,1.09,0,1.75,0l2.4,0c.95,0,2.06,0,3.34,0h9.17c1.3,0,2.42,0,3.37,0l2.4,0c.66,0,1.24,0,1.75,0a4.63,4.63,0,0,0-.08.81v5.74c0,.66,0,1.24,0,1.75s.07,1.07.15,1.7H257.8v-1.4h-19Zm-.88-27.32V236h10.31v-3.15Zm0,4.74v2.88h10.31v-2.88Zm10.31,4.47H237.94v3.07h10.31Zm9.55,9.51h-19v4.81h19Zm-7.24-20.76-1-1.05c-.38-.39-.8-.78-1.25-1.17s-.92-.76-1.39-1.12-.9-.65-1.3-.91l1.47-1.63a33.49,33.49,0,0,1,2.88,2,29.51,29.51,0,0,1,2.39,2Z"/><path class="cls-3" d="M297.43,250.27c.43.28.65.5.65.67s-.22.3-.65.43a2.77,2.77,0,0,0-.7.32,12.59,12.59,0,0,0-1.25,1c-.57.49-1.36,1.22-2.39,2.18l-4.15,3.9a3.67,3.67,0,0,0-.75-1.23,3.15,3.15,0,0,0-1.48-.74,28.3,28.3,0,0,0,5.55-4,19.91,19.91,0,0,0,3.28-4.05,6.76,6.76,0,0,0,.83.79A12,12,0,0,0,297.43,250.27ZM301,230.68l-1.53.15c-.52.06-1.19.11-2,.17s-1.85.13-3.09.19-2.81.14-4.73.21a4.45,4.45,0,0,0-.51-1.25A5.33,5.33,0,0,0,288,228.9c.86,0,1.75.09,2.66.12s1.88,0,2.93,0,2.2,0,3.45-.09,2.65-.14,4.19-.27q5.22-.37,8.66-.92a35.44,35.44,0,0,0,5.74-1.35,7.46,7.46,0,0,0,.64,1.12,4.13,4.13,0,0,0,.8.89c.3.3.41.55.32.74s-.31.26-.66.21a13.35,13.35,0,0,0-1.67-.06c-.68,0-1.56.06-2.62.13s-2.35.2-3.86.36l-5.38.63a7.66,7.66,0,0,0,.91.41c.43.13.64.27.64.42s-.23.29-.68.42a4.49,4.49,0,0,0-1.1.47,11.78,11.78,0,0,0-1.59,1.12c-.81.63-1.72,1.29-2.73,2s-2,1.34-3.11,2l11.75-.38c.71-.4,1.28-.74,1.72-1s.8-.52,1.07-.72a5.27,5.27,0,0,0,.62-.55l.46-.55a9.88,9.88,0,0,0,2,1.59c.58.33.84.58.78.74s-.4.26-1,.28a2.57,2.57,0,0,0-.72.12,7.6,7.6,0,0,0-1.05.39c-.41.19-.9.44-1.47.74L307.66,239c-1.08.63-2.1,1.2-3.05,1.71s-1.89,1-2.84,1.44-1.94.9-3,1.34-2.2.92-3.49,1.42l16.22-.91c-.43-.43-.84-.82-1.23-1.19l-1.05-1,1.78-1.21a47.5,47.5,0,0,1,3.49,3.37q1.74,1.86,3.18,3.6l-2.12,1.52a10,10,0,0,0-1-1.58c-.41-.56-.87-1.14-1.38-1.72l-8.68.46v10.83a3.57,3.57,0,0,1-.22,1.37,1.75,1.75,0,0,1-1,.85,7.89,7.89,0,0,1-2.2.45c-1,.09-2.24.14-3.86.14a5.57,5.57,0,0,0-.27-1.56,3.21,3.21,0,0,0-.87-1.29c1.24.18,2.25.29,3,.34a7,7,0,0,0,1.84-.05,1.33,1.33,0,0,0,.89-.48,1.6,1.6,0,0,0,.23-.9v-9.59l-5.15.26c-1.34.08-2.43.16-3.28.25s-1.51.18-2,.27-.9.18-1.25.28a6.11,6.11,0,0,0-.17-1.44,8,8,0,0,0-.51-1.4,5.58,5.58,0,0,0,1.93-.34c1-.28,2.1-.68,3.43-1.21s2.78-1.18,4.38-1.94,3.18-1.59,4.77-2.5l-7.69.38c-1,.05-1.89.12-2.71.21a9.06,9.06,0,0,0-1.88.36,5,5,0,0,0-.07-1.25,3.11,3.11,0,0,0-.57-1.18,12.07,12.07,0,0,0,1.89-.72,17.71,17.71,0,0,0,2.14-1.19,25.86,25.86,0,0,0,2.52-1.86Q299.28,232.24,301,230.68Zm16,27.4c-.58-.63-1.22-1.29-1.93-1.95s-1.44-1.33-2.2-2-1.52-1.26-2.29-1.84-1.51-1.1-2.22-1.56l1.44-1.66c1.62,1.13,3.15,2.28,4.61,3.45s3,2.43,4.52,3.82Z"/><path class="cls-3" d="M355.67,252.77a3.45,3.45,0,0,0-.25,1.18,3.35,3.35,0,0,0,.17,1.17c-2.83.41-5.32.8-7.48,1.2s-3.9.77-5.21,1.15a4.06,4.06,0,0,0-.17-1.31,4.61,4.61,0,0,0-.66-1.38c.7,0,1.59-.09,2.65-.21s2.2-.26,3.43-.43,2.49-.39,3.79-.63S354.48,253,355.67,252.77ZM346.61,240c-.88.05-1.59.12-2.12.2a8.91,8.91,0,0,0-1.44.36,3.47,3.47,0,0,0-.76-2.19,2.4,2.4,0,0,0,1-.5,5.14,5.14,0,0,0,1-1.32,43.42,43.42,0,0,0,2.31-4.53q1.1-2.48,2.31-5.82a5.75,5.75,0,0,0,1.2.91,6,6,0,0,0,1.27.53c.32.1.5.24.53.4s-.18.35-.61.55a2.06,2.06,0,0,0-.53.44,9.09,9.09,0,0,0-.91,1.28c-.4.65-1,1.6-1.63,2.85s-1.57,2.93-2.65,5.05l5-.11a25.08,25.08,0,0,0,1.44-2.71c.38-.84.71-1.66,1-2.44a8.1,8.1,0,0,0,1.18.89,3.93,3.93,0,0,0,1.21.51c.33.08.49.22.48.44s-.24.41-.67.58a1.54,1.54,0,0,0-.57.48c-.22.26-.62.81-1.17,1.63s-1.34,2-2.35,3.58-2.36,3.67-4.05,6.32l7.76-.83a4,4,0,0,0-.21,1,4.41,4.41,0,0,0,.1,1.06l-6.52.61a18.48,18.48,0,0,0-2.27.32,12.79,12.79,0,0,0-1.74.51,11.13,11.13,0,0,0-.27-1.26,5,5,0,0,0-.57-1.31,4.23,4.23,0,0,0,.95-.42,5,5,0,0,0,1.1-1,27.66,27.66,0,0,0,1.65-2.24q1-1.47,2.55-4Zm16.49-6.75c-1.65,0-3.11.06-4.4.11s-2.41.14-3.37.27V231c1.13.12,2.49.22,4.07.28s3.39.09,5.44.09a16.42,16.42,0,0,0-1.29-2.14,11.5,11.5,0,0,0-1.59-1.8l2.58-1.36q.68,1,1.47,2.43c.53.95,1,1.91,1.44,2.87,1.77,0,3.39,0,4.85-.09s2.69-.16,3.68-.28v2.61c-.58-.08-1.2-.13-1.84-.17s-1.38-.08-2.2-.11-1.73-.07-2.73-.08l-3.39,0q-.37.69-.87,1.44c-.33.51-.74,1.09-1.25,1.76s-1.12,1.46-1.84,2.35l-2.63,3.28,11.9-.38q-.76-1.09-1.65-2.22c-.59-.74-1.26-1.5-2-2.29l1.71-1.29c.53.61,1.08,1.27,1.66,2s1.16,1.45,1.73,2.22,1.11,1.54,1.64,2.31,1,1.51,1.48,2.22l-2.08,1.29c-.23-.46-.46-.89-.68-1.31s-.47-.83-.72-1.23l-3.15.15v12.09a3.23,3.23,0,0,0,.06.68.69.69,0,0,0,.3.43,1.68,1.68,0,0,0,.7.25,8.05,8.05,0,0,0,1.25.08,7.43,7.43,0,0,0,1.56-.14,1.71,1.71,0,0,0,1-.55,2.55,2.55,0,0,0,.53-1.17,15.89,15.89,0,0,0,.29-2,5.12,5.12,0,0,0,1.15.95,4.82,4.82,0,0,0,1.35.53,9.27,9.27,0,0,1-.63,2.31,3.47,3.47,0,0,1-1.08,1.44,4,4,0,0,1-1.7.74,12.39,12.39,0,0,1-2.46.21,17,17,0,0,1-2.39-.13,3,3,0,0,1-1.38-.5,1.67,1.67,0,0,1-.63-1,7.35,7.35,0,0,1-.15-1.63V243.64l-4.17.23a52.68,52.68,0,0,1-.36,6.34,14.07,14.07,0,0,1-1.12,4.19,9.1,9.1,0,0,1-2.18,3,31.76,31.76,0,0,1-3.46,2.65,7,7,0,0,0-.91-1.23,6.71,6.71,0,0,0-1.33-1,21.19,21.19,0,0,0,3.75-2.14,6.86,6.86,0,0,0,2.14-2.54,10.51,10.51,0,0,0,1-3.65,54.19,54.19,0,0,0,.23-5.46c-1,.08-1.84.16-2.48.25s-1.26.19-1.84.32c0-.28-.06-.52-.1-.72a3.4,3.4,0,0,0-.15-.57,4.19,4.19,0,0,0-.24-.55c-.11-.19-.23-.4-.38-.62a4,4,0,0,0,1-.19,3.41,3.41,0,0,0,.83-.42,4.83,4.83,0,0,0,.8-.68c.26-.28.56-.62.89-1,.91-1.17,1.72-2.28,2.44-3.34A37.42,37.42,0,0,0,363.1,233.22Z"/></svg>