<?xml version="1.0" encoding="utf-8"?>
<!-- Generator: Adobe Illustrator 19.0.0, SVG Export Plug-In . SVG Version: 6.00 Build 0)  -->
<svg version="1.1" id="图层_1" xmlns="http://www.w3.org/2000/svg" xmlns:xlink="http://www.w3.org/1999/xlink" x="0px" y="0px"
	 viewBox="-192.5 103.9 636 160" style="enable-background:new -192.5 103.9 636 160;" xml:space="preserve">
<style type="text/css">
	.st0{fill:#F74A06;}
	.st1{fill:#FFFFFF;}
</style>
<g>
	<g>
		<path class="st0" d="M144.4,249.8C144.3,249.8,144.3,249.8,144.4,249.8c-2.5,0-4.5-2-4.5-4.5L140,205c0-2.5,2-4.5,4.5-4.5
			c0,0,0,0,0,0c2.5,0,4.5,2,4.5,4.5l-0.2,40.2C148.8,247.8,146.8,249.8,144.4,249.8z"/>
		<path class="st0" d="M122.9,251.8c-2.5,0-4.5-2-4.5-4.5v-43.1c0-4-2.5-7.6-6.3-9c-13-4.6-21.7-17-21.7-30.8
			c0-16.5,12.2-30.1,28-32.3l0-2.9c0-2.5,2.1-4.5,4.6-4.4c2.5,0,4.5,2.1,4.4,4.6l-0.1,7c0,2.5-2,4.4-4.5,4.4
			c-12.9,0-23.4,10.6-23.4,23.6c0,10,6.3,19,15.7,22.4c7.3,2.6,12.3,9.6,12.3,17.4v43.1C127.4,249.7,125.3,251.8,122.9,251.8z"/>
		<path class="st0" d="M134.8,194.3c-1.2,0-2.3-0.5-3.2-1.3l-25.2-25.4c-1.7-1.8-1.7-4.6,0-6.3l13.2-13.3c0.8-0.9,2-1.3,3.2-1.3
			s2.3,0.5,3.2,1.3l13.2,13.3c1.7,1.8,1.7,4.6,0,6.4l-7.5,7.5c-1.1,1.1-2.5,1.5-3.9,1.3l7.8,7.9c6.6-4.3,10.7-11.8,10.7-19.8
			c0-9.7-5.8-18.3-14.7-21.9c-2.3-0.9-3.4-3.6-2.5-5.9c0.9-2.3,3.6-3.4,5.9-2.5c12.3,5,20.3,16.9,20.3,30.3
			c0,12.5-7.3,24.1-18.6,29.5C136.1,194.2,135.4,194.3,134.8,194.3z M115.9,164.5l8.1,8.2c-0.2-1.4,0.2-2.8,1.3-3.9l4.3-4.3
			l-6.8-6.9L115.9,164.5z"/>
		<path class="st0" d="M84,251c-2.5,0-4.5-2-4.5-4.5s2-4.5,4.5-4.5c8,0,15-7.7,15-16.5V207c0-2.5,2-4.5,4.5-4.5s4.5,2,4.5,4.5v18.5
			C108,239.3,97.1,251,84,251z"/>
		<path class="st0" d="M56.2,250.9c-2,0-3.8-1.3-4.3-3.3c-0.6-2.4,0.8-4.9,3.2-5.5c22.1-5.9,23.6-25.3,20.5-105.9
			c-0.2-5.2,1.7-10.1,5.3-13.9c3.7-3.8,8.8-6,14.1-6h55.8c2.5,0,4.5,2,4.5,4.5s-2,4.5-4.5,4.5H95c-2.8,0-5.6,1.2-7.6,3.2
			c-1.9,2-2.9,4.6-2.8,7.3c1.6,42.2,1.9,70-1.7,86.8c-3.5,16.3-10.6,24.1-25.4,28.1C57,250.8,56.6,250.9,56.2,250.9z"/>
		<path class="st0" d="M28,249.2c-1.9,0-3.7-1.2-4.3-3.1c-0.8-2.4,0.5-4.9,2.9-5.7c16.7-5.4,31.6-13.8,28.8-58.2
			c-0.2-2.5,1.7-4.6,4.2-4.8c2.5-0.2,4.6,1.7,4.8,4.2c2.9,45.7-11.9,60-35,67.4C29,249.1,28.5,249.2,28,249.2z"/>
		<g>
			<polygon id="XMLID_6_" class="st0" points="60.4,169.8 54.6,164.1 60.4,158.2 66.1,164.1 			"/>
			<path class="st0" d="M60.4,174l-10.1-9.9L60.4,154l9.9,10.1L60.4,174z M58.8,164l1.5,1.5l1.5-1.5l-1.5-1.5L58.8,164z"/>
		</g>
		<g>
			<polygon id="XMLID_5_" class="st0" points="60.4,146.4 54.6,140.8 60.4,134.9 66.1,140.8 			"/>
			<path class="st0" d="M60.4,150.7l-10.1-9.9l10.1-10.1l9.9,10.1L60.4,150.7z M58.8,140.7l1.5,1.5l1.5-1.5l-1.5-1.5L58.8,140.7z"/>
		</g>
		<path class="st0" d="M299.4,249.8C299.3,249.8,299.3,249.8,299.4,249.8c-2.5,0-4.5-2-4.5-4.5l0.3-40.2c0-2.5,2-4.5,4.5-4.5
			c0,0,0,0,0,0c2.5,0,4.5,2,4.5,4.5l-0.3,40.2C303.8,247.8,301.8,249.8,299.4,249.8z"/>
		<path class="st0" d="M278,251.8c-2.5,0-4.5-2-4.5-4.5v-43.1c0-4-2.5-7.6-6.3-9c-13-4.6-21.7-17-21.7-30.8
			c0-16.5,12.2-30.1,28-32.3l0-2.9c0-2.5,2.1-4.5,4.6-4.4c2.5,0,4.5,2.1,4.4,4.6l-0.1,7c0,2.5-2,4.4-4.5,4.4
			c-12.9,0-23.4,10.6-23.4,23.6c0,10,6.3,19,15.7,22.4c7.3,2.6,12.3,9.6,12.3,17.4v43.1C282.5,249.7,280.4,251.8,278,251.8z"/>
		<path class="st0" d="M289.9,194.3c-1.2,0-2.3-0.5-3.2-1.3l-25.2-25.4c-1.7-1.8-1.7-4.6,0-6.3l13.2-13.3c0.8-0.9,2-1.3,3.2-1.3
			s2.3,0.5,3.2,1.3l13.2,13.3c1.7,1.8,1.7,4.6,0,6.4l-7.5,7.5c-1.1,1.1-2.5,1.5-3.9,1.3l7.8,7.9c6.6-4.3,10.7-11.8,10.7-19.8
			c0-9.7-5.8-18.3-14.7-21.9c-2.3-0.9-3.4-3.6-2.5-5.9c0.9-2.3,3.6-3.4,5.9-2.5c12.3,5,20.3,16.9,20.3,30.3
			c0,12.5-7.3,24.1-18.6,29.5C291.2,194.2,290.5,194.3,289.9,194.3z M271,164.5l8.1,8.2c-0.2-1.4,0.2-2.8,1.3-3.9l4.3-4.3l-6.8-6.9
			L271,164.5z"/>
		<path class="st0" d="M236,251c-2.5,0-4.5-2-4.5-4.5s2-4.5,4.5-4.5c8,0,15-7.7,15-16.5V207c0-2.5,2-4.5,4.5-4.5s4.5,2,4.5,4.5v18.5
			C260,239.3,249.1,251,236,251z"/>
		<path class="st0" d="M211.2,250.9c-2,0-3.8-1.3-4.3-3.3c-0.6-2.4,0.8-4.9,3.2-5.5c22.1-5.9,23.6-25.3,20.5-105.9
			c-0.2-5.2,1.7-10.1,5.3-13.9c3.7-3.8,8.8-6,14.1-6h55.8c2.5,0,4.5,2,4.5,4.5s-2,4.5-4.5,4.5H250c-2.8,0-5.6,1.2-7.6,3.2
			c-1.9,2-2.9,4.6-2.8,7.3c1.6,42.2,1.9,70-1.7,86.8c-3.5,16.3-10.6,24.1-25.4,28.1C212,250.8,211.6,250.9,211.2,250.9z"/>
		<path class="st0" d="M183.1,249.2c-1.9,0-3.7-1.2-4.3-3.1c-0.8-2.4,0.5-4.9,2.9-5.7c16.7-5.4,31.6-13.8,28.8-58.2
			c-0.2-2.5,1.7-4.6,4.2-4.8c2.5-0.2,4.6,1.7,4.8,4.2c2.9,45.7-11.9,60-35,67.4C184.1,249.1,183.6,249.2,183.1,249.2z"/>
		<g>
			<polygon id="XMLID_4_" class="st0" points="215.4,169.8 209.7,164.1 215.4,158.2 221.2,164.1 			"/>
			<path class="st0" d="M215.3,174l-9.9-9.9l9.9-10.1l10.1,10.1L215.3,174z M213.9,164l1.5,1.5l1.5-1.5l-1.5-1.5L213.9,164z"/>
		</g>
		<g>
			<polygon id="XMLID_3_" class="st0" points="215.4,146.4 209.7,140.8 215.4,134.9 221.2,140.8 			"/>
			<path class="st0" d="M215.3,150.7l-9.9-9.9l9.9-10.1l10.1,10.1L215.3,150.7z M213.9,140.7l1.5,1.5l1.5-1.5l-1.5-1.5L213.9,140.7z
				"/>
		</g>
		<g id="XMLID_703_">
			<path class="st0" d="M440,157.2c-2.5,0-4.5-2-4.5-4.5v-18c0-3.8-3.1-6.9-6.8-6.9H409c-2.5,0-4.5-2-4.5-4.5s2-4.5,4.5-4.5h19.7
				c8.7,0,15.8,7.1,15.8,15.9v18C444.5,155.2,442.5,157.2,440,157.2z"/>
			<path class="st0" d="M359,172.5c-2.5,0-4.5-2-4.5-4.5v-33.2c0-8.8,7.1-15.9,15.8-15.9h21.8v-4c0-2.5,2-4.5,4.5-4.5s4.5,2,4.5,4.5
				v8.5c0,2.5-2,4.5-4.5,4.5h-26.3c-3.7,0-6.8,3.1-6.8,6.9V168C363.5,170.5,361.5,172.5,359,172.5z"/>
			<path class="st0" d="M363.8,211.3c-2.3,0-4.2-1.7-4.5-4c-0.3-2.5,1.5-4.7,4-5c35-3.9,48.9-30.6,53.3-42.4H390
				c-2.5,0-4.5-2-4.5-4.5s2-4.5,4.5-4.5h32.8c1.4,0,2.7,0.6,3.5,1.7c0.9,1.1,1.2,2.5,0.8,3.8c-0.1,0.5-3.1,12.5-12.2,25.3
				c-8.5,11.8-24.2,26.6-50.7,29.6C364.2,211.3,364,211.3,363.8,211.3z"/>
			<path class="st0" d="M425,257.5h-47.9c-7.7,0-13.9-6.2-13.9-13.9v-21.8c0-7.7,6.2-13.9,13.9-13.9H425c7.7,0,13.9,6.2,13.9,13.9
				v21.8C439,251.2,432.7,257.5,425,257.5z M377.2,216.8c-2.7,0-4.9,2.2-4.9,4.9v21.8c0,2.7,2.2,4.9,4.9,4.9H425
				c2.7,0,4.9-2.2,4.9-4.9v-21.8c0-2.7-2.2-4.9-4.9-4.9H377.2z"/>
			<path class="st0" d="M373.5,160.6c-1.8,0-3.6-1.1-4.2-3c-0.9-2.3,0.4-4.9,2.7-5.8c8.9-3.2,9.4-14.4,9.4-14.6
				c0.1-2.5,2.2-4.4,4.7-4.3c2.5,0.1,4.4,2.2,4.3,4.7c0,0.7-0.9,17.4-15.4,22.6C374.5,160.5,374,160.6,373.5,160.6z"/>
			<path class="st0" d="M439.3,201.7c-0.9,0-1.9-0.3-2.7-0.9l-49.3-36.2c-2-1.5-2.4-4.3-1-6.3c1.5-2,4.3-2.4,6.3-1l49.3,36.2
				c2,1.5,2.4,4.3,1,6.3C442.1,201,440.7,201.7,439.3,201.7z"/>
		</g>
	</g>
	<g>
		<path id="XMLID_690_" class="st0" d="M-64.6,264h-96c-17.6,0-32-14.4-32-32v-96c0-17.6,14.4-32,32-32h96c17.6,0,32,14.4,32,32v96
			C-32.6,249.6-47,264-64.6,264z"/>
		<path class="st1" d="M-84.1,240.8c-1.9,0-3.5-1.6-3.5-3.5V201c0-3.5-2.3-6.7-5.5-7.8c-10.9-3.9-18.3-14.2-18.3-25.7
			c0-13.9,10.4-25.4,23.8-27.1l0-2.7c0-1.9,1.6-3.5,3.6-3.4c1.9,0,3.5,1.6,3.4,3.6l-0.1,5.9c0,1.9-1.6,3.4-3.5,3.4
			c-11.1,0-20.2,9.1-20.2,20.3c0,8.5,5.5,16.2,13.6,19.1c6.1,2.1,10.2,7.9,10.2,14.4v36.4C-80.6,239.3-82.2,240.8-84.1,240.8z"/>
		<path class="st1" d="M-73.9,192.5c-0.9,0-1.8-0.4-2.5-1l-21.5-21.5c-1.4-1.4-1.4-3.6,0-4.9l11.3-11.3c1.3-1.3,3.6-1.3,5,0
			l11.2,11.2c1.4,1.4,1.4,3.6,0,5l-6.4,6.4c-1.2,1.2-3,1.3-4.4,0.4l7.9,7.9c5.8-3.7,9.5-10.2,9.5-17.2c0-8.3-5-15.7-12.7-18.7
			c-1.8-0.7-2.7-2.8-2-4.5c0.7-1.8,2.8-2.7,4.5-2c10.4,4.1,17.1,14,17.1,25.3c0,10.5-6.1,20.2-15.6,24.7
			C-72.9,192.3-73.4,192.5-73.9,192.5z M-90.5,167.5l8.2,8.2c-0.9-1.4-0.8-3.2,0.4-4.4l3.9-3.9l-6.3-6.3L-90.5,167.5z"/>
		<path class="st1" d="M-118.7,241c-1.9,0-3.5-1.6-3.5-3.5s1.6-3.5,3.5-3.5c7,0,13.1-6.6,13.1-14.1v-16c0-1.9,1.6-3.5,3.5-3.5
			s3.5,1.6,3.5,3.5v16C-98.6,231.4-107.8,241-118.7,241z"/>
		<path class="st1" d="M-65,240.2C-65,240.2-65,240.2-65,240.2c-2,0-3.5-1.6-3.5-3.5l0.2-34c0-1.9,1.6-3.5,3.5-3.5c0,0,0,0,0,0
			c1.9,0,3.5,1.6,3.5,3.5l-0.2,34C-61.5,238.6-63.1,240.2-65,240.2z"/>
		<path class="st1" d="M-140.9,240.2c-1.6,0-3-1-3.4-2.6c-0.5-1.9,0.6-3.8,2.5-4.3c16.9-4.5,20.6-13.3,17.7-89.8
			c-0.2-4.3,1.4-8.4,4.4-11.5c3.1-3.2,7.4-5,11.8-5h47.5c1.9,0,3.5,1.6,3.5,3.5s-1.6,3.5-3.5,3.5h-47.5c-2.5,0-5,1-6.8,2.9
			c-1.7,1.7-2.5,4-2.4,6.4c2.8,72.9,1,90.5-22.9,96.8C-140.3,240.1-140.6,240.2-140.9,240.2z"/>
		<path class="st1" d="M-164.9,238.8c-1.5,0-2.9-1-3.3-2.4c-0.6-1.8,0.4-3.8,2.3-4.4c14.4-4.6,27.1-11.8,24.8-49.5
			c-0.1-1.9,1.4-3.6,3.3-3.7c1.9-0.1,3.6,1.4,3.7,3.3c2.3,38.4-10.2,50.4-29.6,56.5C-164.2,238.7-164.6,238.8-164.9,238.8z"/>
		<g>
			
				<rect id="XMLID_2_" x="-140.8" y="163.7" transform="matrix(0.7071 0.7071 -0.7071 0.7071 77.9653 146.084)" class="st1" width="6.9" height="6.9"/>
			<path class="st1" d="M-137.4,175.6l-8.4-8.4l8.4-8.4l8.4,8.4L-137.4,175.6z M-138.7,167.2l1.3,1.3l1.3-1.3l-1.3-1.3L-138.7,167.2
				z"/>
		</g>
		<g>
			
				<rect id="XMLID_1_" x="-140.8" y="144" transform="matrix(0.7071 0.7071 -0.7071 0.7071 64.0336 140.315)" class="st1" width="6.9" height="6.9"/>
			<path class="st1" d="M-137.4,155.9l-8.4-8.4l8.4-8.4l8.4,8.4L-137.4,155.9z M-138.7,147.5l1.3,1.3l1.3-1.3l-1.3-1.3L-138.7,147.5
				z"/>
		</g>
	</g>
</g>
</svg>
